<svg width="271" height="143" viewBox="0 0 271 143" fill="none" xmlns="http://www.w3.org/2000/svg">
<g clip-path="url(#clip0_143_1082)">
<path d="M222.162 89.6818H46.9778C45.782 89.6808 44.6355 89.3241 43.7899 88.6901C42.9443 88.0561 42.4686 87.1965 42.4673 86.2999V5.30728C42.4683 4.6504 42.8167 4.02063 43.4362 3.55613C44.0557 3.09163 44.8956 2.83035 45.7717 2.82959H223.31C224.202 2.83035 225.056 3.09615 225.686 3.56868C226.317 4.0412 226.671 4.68187 226.672 5.35012V86.2999C226.671 87.1965 226.195 88.0561 225.349 88.6901C224.504 89.3241 223.357 89.6808 222.162 89.6818V89.6818Z" fill="#F2F2F2"/>
<path d="M215.772 84.8926H52.5045C50.1111 84.8926 48.1641 83.5255 48.1641 81.8452V11.3158C48.1641 10.0696 49.6069 9.05566 51.3804 9.05566H216.842C218.645 9.05566 220.112 10.0863 220.112 11.353V81.8452C220.112 83.5255 218.165 84.8926 215.772 84.8926Z" fill="white"/>
<path d="M226.61 5.11391H42.4043V3.39213C42.406 2.49251 42.8836 1.63015 43.7323 0.994224C44.581 0.358298 45.7314 0.00074323 46.9313 0H222.083C223.283 0.000738899 224.433 0.358292 225.282 0.994219C226.13 1.63015 226.608 2.49251 226.61 3.39213V5.11391Z" fill="#CCCCCC"/>
<path d="M50.6314 3.43998C51.2781 3.43998 51.8023 3.04691 51.8023 2.56203C51.8023 2.07715 51.2781 1.68408 50.6314 1.68408C49.9847 1.68408 49.4604 2.07715 49.4604 2.56203C49.4604 3.04691 49.9847 3.43998 50.6314 3.43998Z" fill="white"/>
<path d="M55.0757 3.43998C55.7224 3.43998 56.2467 3.04691 56.2467 2.56203C56.2467 2.07715 55.7224 1.68408 55.0757 1.68408C54.429 1.68408 53.9048 2.07715 53.9048 2.56203C53.9048 3.04691 54.429 3.43998 55.0757 3.43998Z" fill="white"/>
<path d="M59.5206 3.43998C60.1673 3.43998 60.6915 3.04691 60.6915 2.56203C60.6915 2.07715 60.1673 1.68408 59.5206 1.68408C58.8739 1.68408 58.3496 2.07715 58.3496 2.56203C58.3496 3.04691 58.8739 3.43998 59.5206 3.43998Z" fill="white"/>
<path d="M197.801 73.0636H71.2761C70.0078 73.0625 68.7918 72.6843 67.895 72.0119C66.9981 71.3394 66.4936 70.4277 66.4922 69.4767V23.7381C66.4933 23.0269 66.8705 22.345 67.5413 21.8421C68.212 21.3391 69.1214 21.0562 70.07 21.0554H198.95C199.914 21.0562 200.838 21.3437 201.519 21.8546C202.201 22.3656 202.584 23.0583 202.585 23.7809V69.4767C202.584 70.4277 202.079 71.3394 201.182 72.0119C200.285 72.6843 199.069 73.0625 197.801 73.0636V73.0636ZM70.07 21.4653C69.2664 21.466 68.4959 21.7057 67.9277 22.1318C67.3594 22.5579 67.0398 23.1355 67.0389 23.7381V69.4767C67.0402 70.319 67.487 71.1265 68.2814 71.7221C69.0757 72.3177 70.1527 72.6527 71.2761 72.6537H197.801C198.924 72.6527 200.001 72.3177 200.796 71.7221C201.59 71.1265 202.037 70.319 202.038 69.4767V23.7809C202.037 23.167 201.712 22.5784 201.133 22.1443C200.554 21.7102 199.769 21.466 198.95 21.4653H70.07Z" fill="#CCCCCC"/>
<path d="M75.6497 69.4767H193.427C194.587 69.4767 195.699 69.1312 196.52 68.5162C197.34 67.9012 197.801 67.0671 197.801 66.1973V27.9616C197.801 27.0918 197.34 26.2577 196.52 25.6427C195.699 25.0276 194.587 24.6821 193.427 24.6821H75.6497C74.4897 24.6821 73.3772 25.0276 72.557 25.6427C71.7367 26.2577 71.2759 27.0918 71.2759 27.9616V66.1973C71.2759 67.0671 71.7367 67.9012 72.557 68.5162C73.3772 69.1312 74.4897 69.4767 75.6497 69.4767Z" fill="#F2F2F2"/>
<path d="M89.0228 35.8063C90.3816 35.8063 91.4831 34.9804 91.4831 33.9616C91.4831 32.9428 90.3816 32.1169 89.0228 32.1169C87.664 32.1169 86.5625 32.9428 86.5625 33.9616C86.5625 34.9804 87.664 35.8063 89.0228 35.8063Z" fill="#CCCCCC"/>
<path d="M89.0228 42.7751C90.3816 42.7751 91.4831 41.9492 91.4831 40.9304C91.4831 39.9116 90.3816 39.0857 89.0228 39.0857C87.664 39.0857 86.5625 39.9116 86.5625 40.9304C86.5625 41.9492 87.664 42.7751 89.0228 42.7751Z" fill="#CCCCCC"/>
<path d="M89.0228 49.7441C90.3816 49.7441 91.4831 48.9182 91.4831 47.8994C91.4831 46.8806 90.3816 46.0547 89.0228 46.0547C87.664 46.0547 86.5625 46.8806 86.5625 47.8994C86.5625 48.9182 87.664 49.7441 89.0228 49.7441Z" fill="#CCCCCC"/>
<path d="M89.0228 56.7128C90.3816 56.7128 91.4831 55.8869 91.4831 54.8681C91.4831 53.8493 90.3816 53.0234 89.0228 53.0234C87.664 53.0234 86.5625 53.8493 86.5625 54.8681C86.5625 55.8869 87.664 56.7128 89.0228 56.7128Z" fill="#CCCCCC"/>
<path d="M182.241 34.1665H101.324C101.252 34.1665 101.182 34.1449 101.131 34.1065C101.08 34.0681 101.051 34.0159 101.051 33.9616C101.051 33.9072 101.08 33.8551 101.131 33.8166C101.182 33.7782 101.252 33.7566 101.324 33.7566H182.241C182.313 33.7566 182.383 33.7782 182.434 33.8166C182.485 33.8551 182.514 33.9072 182.514 33.9616C182.514 34.0159 182.485 34.0681 182.434 34.1065C182.383 34.1449 182.313 34.1665 182.241 34.1665Z" fill="#CCCCCC"/>
<path d="M182.241 41.1355H101.324C101.252 41.1355 101.182 41.1139 101.131 41.0755C101.08 41.037 101.051 40.9849 101.051 40.9306C101.051 40.8762 101.08 40.8241 101.131 40.7856C101.182 40.7472 101.252 40.7256 101.324 40.7256H182.241C182.313 40.7256 182.383 40.7472 182.434 40.7856C182.485 40.8241 182.514 40.8762 182.514 40.9306C182.514 40.9849 182.485 41.037 182.434 41.0755C182.383 41.1139 182.313 41.1355 182.241 41.1355Z" fill="#CCCCCC"/>
<path d="M182.241 48.1043H101.324C101.252 48.1043 101.182 48.0827 101.131 48.0442C101.08 48.0058 101.051 47.9537 101.051 47.8993C101.051 47.8449 101.08 47.7928 101.131 47.7544C101.182 47.7159 101.252 47.6943 101.324 47.6943H182.241C182.313 47.6943 182.383 47.7159 182.434 47.7544C182.485 47.7928 182.514 47.8449 182.514 47.8993C182.514 47.9537 182.485 48.0058 182.434 48.0442C182.383 48.0827 182.313 48.1043 182.241 48.1043Z" fill="#CCCCCC"/>
<path d="M182.241 55.073H101.324C101.252 55.073 101.182 55.0514 101.131 55.013C101.08 54.9745 101.051 54.9224 101.051 54.8681C101.051 54.8137 101.08 54.7616 101.131 54.7231C101.182 54.6847 101.252 54.6631 101.324 54.6631H182.241C182.313 54.6631 182.383 54.6847 182.434 54.7231C182.485 54.7616 182.514 54.8137 182.514 54.8681C182.514 54.9224 182.485 54.9745 182.434 55.013C182.383 55.0514 182.313 55.073 182.241 55.073Z" fill="#CCCCCC"/>
<path d="M116.633 62.0419H108.705C108.343 62.0416 107.995 61.9336 107.739 61.7414C107.483 61.5493 107.339 61.2888 107.338 61.0171V55.4831C107.339 55.2114 107.483 54.9509 107.739 54.7588C107.995 54.5666 108.343 54.4586 108.705 54.4583H116.633C116.995 54.4586 117.343 54.5666 117.599 54.7588C117.855 54.9509 117.999 55.2114 118 55.4831V61.0171C117.999 61.2888 117.855 61.5493 117.599 61.7414C117.343 61.9336 116.995 62.0416 116.633 62.0419V62.0419Z" fill="black"/>
<path d="M134.402 62.0418H126.474C126.112 62.0414 125.764 61.9334 125.508 61.7412C125.252 61.5491 125.108 61.2886 125.107 61.0169V48.5141C125.108 48.2424 125.252 47.9819 125.508 47.7898C125.764 47.5976 126.112 47.4896 126.474 47.4893H134.402C134.764 47.4896 135.112 47.5976 135.368 47.7898C135.624 47.9819 135.768 48.2424 135.769 48.5141V61.0169C135.768 61.2886 135.624 61.5491 135.368 61.7412C135.112 61.9334 134.764 62.0414 134.402 62.0418V62.0418Z" fill="black"/>
<path d="M152.444 62.0418H144.516C144.154 62.0415 143.806 61.9334 143.55 61.7413C143.294 61.5492 143.15 61.2887 143.149 61.017V41.5453C143.15 41.2736 143.294 41.0131 143.55 40.821C143.806 40.6289 144.154 40.5208 144.516 40.5205H152.444C152.806 40.5208 153.154 40.6289 153.41 40.821C153.666 41.0131 153.81 41.2736 153.811 41.5453V61.017C153.81 61.2887 153.666 61.5492 153.41 61.7413C153.154 61.9334 152.806 62.0415 152.444 62.0418V62.0418Z" fill="#F34A50"/>
<path d="M171.033 62.0417H163.106C162.743 62.0414 162.396 61.9333 162.14 61.7412C161.883 61.5491 161.739 61.2886 161.739 61.0169V34.7814C161.739 34.5097 161.883 34.2492 162.14 34.0571C162.396 33.865 162.743 33.7569 163.106 33.7566H171.033C171.396 33.7569 171.743 33.865 171.999 34.0571C172.256 34.2492 172.4 34.5097 172.4 34.7814V61.0169C172.4 61.2886 172.256 61.5491 171.999 61.7412C171.743 61.9333 171.396 62.0414 171.033 62.0417V62.0417Z" fill="#00AAF3"/>
<path d="M182.241 62.0418H101.324C101.252 62.0418 101.182 62.0202 101.131 61.9817C101.08 61.9433 101.051 61.8912 101.051 61.8368C101.051 61.7824 101.08 61.7303 101.131 61.6919C101.182 61.6534 101.252 61.6318 101.324 61.6318H182.241C182.313 61.6318 182.383 61.6534 182.434 61.6919C182.485 61.7303 182.514 61.7824 182.514 61.8368C182.514 61.8912 182.485 61.9433 182.434 61.9817C182.383 62.0202 182.313 62.0418 182.241 62.0418Z" fill="#3F3D56"/>
<path d="M217.792 100.277C218.013 100.026 218.306 99.8141 218.648 99.6566C218.991 99.4991 219.375 99.3998 219.775 99.3657C220.174 99.3316 220.578 99.3636 220.959 99.4594C221.34 99.5552 221.689 99.7125 221.98 99.9201L230.661 96.561L230.121 100.346L221.96 102.955C221.463 103.299 220.814 103.494 220.138 103.503C219.461 103.512 218.804 103.335 218.29 103.005C217.776 102.674 217.442 102.215 217.35 101.712C217.258 101.209 217.415 100.699 217.792 100.277Z" fill="#FFB8B8"/>
<path d="M225.261 101.689C225.064 101.573 224.919 101.415 224.844 101.236L224.154 99.5634C224.08 99.3822 224.082 99.1882 224.159 99.0078C224.237 98.8274 224.386 98.6692 224.588 98.5547L231.624 94.5701L239.244 83.9709C239.563 83.6627 239.96 83.4046 240.412 83.2114C240.864 83.0183 241.363 82.8938 241.879 82.845C242.395 82.7963 242.92 82.8243 243.421 82.9275C243.923 83.0306 244.393 83.2069 244.804 83.4462C245.215 83.6855 245.56 83.9832 245.817 84.3223C246.075 84.6613 246.241 85.0351 246.306 85.4222C246.371 85.8094 246.333 86.2023 246.196 86.5787C246.058 86.955 245.823 87.3073 245.504 87.6155L241.169 94.4758C239.853 96.558 237.574 98.2112 234.755 99.1277L226.509 101.809C226.35 101.861 226.179 101.887 226.006 101.885C225.834 101.884 225.663 101.855 225.506 101.801C225.419 101.771 225.336 101.734 225.261 101.689V101.689Z" fill="#3F3D56"/>
<path d="M245.696 79.5473C249.404 79.5473 252.41 77.2934 252.41 74.5131C252.41 71.7329 249.404 69.479 245.696 69.479C241.987 69.479 238.981 71.7329 238.981 74.5131C238.981 77.2934 241.987 79.5473 245.696 79.5473Z" fill="#FFB8B8"/>
<path d="M242.972 140.552L239.621 140.552L238.027 130.859L242.973 130.86L242.972 140.552Z" fill="#FFB8B8"/>
<path d="M237.226 139.834H243.69V142.885H233.157C233.157 142.484 233.262 142.088 233.467 141.717C233.671 141.347 233.971 141.011 234.349 140.727C234.727 140.444 235.175 140.219 235.669 140.066C236.163 139.913 236.692 139.834 237.226 139.834Z" fill="#2F2E41"/>
<path d="M253.906 140.552L250.555 140.552L248.961 130.86L253.908 130.86L253.906 140.552Z" fill="#FFB8B8"/>
<path d="M248.161 139.834H254.624V142.885H244.091C244.091 142.485 244.197 142.088 244.401 141.718C244.606 141.347 244.905 141.011 245.283 140.728C245.661 140.444 246.11 140.22 246.604 140.066C247.097 139.913 247.626 139.834 248.161 139.834V139.834Z" fill="#2F2E41"/>
<path d="M254.152 138.093L250.224 138.093C249.954 138.092 249.691 138.025 249.476 137.902C249.262 137.779 249.107 137.606 249.036 137.41L243.383 121.689C243.374 121.665 243.354 121.644 243.325 121.63C243.297 121.616 243.263 121.611 243.229 121.615C243.196 121.619 243.166 121.632 243.145 121.652C243.123 121.672 243.113 121.697 243.115 121.722L244.257 136.632C244.267 136.763 244.239 136.895 244.175 137.018C244.112 137.142 244.013 137.253 243.887 137.345C243.761 137.437 243.61 137.508 243.444 137.553C243.279 137.597 243.102 137.615 242.926 137.604L238.512 137.328C238.229 137.309 237.964 137.219 237.76 137.071C237.556 136.923 237.426 136.726 237.392 136.515L233.371 105.208L234.927 105.908L249.505 104.052L255.371 137.049C255.394 137.179 255.38 137.311 255.329 137.437C255.278 137.563 255.193 137.679 255.077 137.778C254.962 137.877 254.819 137.956 254.66 138.01C254.5 138.065 254.327 138.093 254.152 138.093H254.152Z" fill="#2F2E41"/>
<path d="M238.247 108.512C236.638 108.503 235.063 108.17 233.684 107.549C233.471 107.455 233.302 107.315 233.197 107.147C233.093 106.979 233.059 106.791 233.1 106.609C233.612 104.254 236.294 92.1776 238.733 85.5938C239.727 82.9123 241.924 81.468 245.263 81.3012C250.148 81.061 254.489 83.9262 254.941 87.6961C255.739 94.3468 252.499 103.796 251.069 107.55C251.014 107.695 250.912 107.828 250.772 107.936C250.632 108.045 250.459 108.126 250.268 108.172C250.077 108.219 249.873 108.23 249.675 108.204C249.477 108.178 249.29 108.116 249.132 108.023L246.217 106.323C246.038 106.22 245.816 106.168 245.591 106.175C245.365 106.182 245.15 106.248 244.983 106.362C242.526 108.004 240.193 108.512 238.247 108.512Z" fill="#3F3D56"/>
<path opacity="0.2" d="M247.886 90.9507L250.346 98.7395L246.792 105.298L249.252 98.9445L247.886 90.9507Z" fill="black"/>
<path d="M249.527 78.6528C250.124 78.6611 250.718 78.5806 251.273 78.416C251.518 78.3454 251.772 78.2873 252.015 78.2167C254.17 77.5926 255.59 75.8722 255.64 74.1408C255.691 72.4093 254.496 70.7288 252.72 69.6212C250.944 68.5137 248.644 67.945 246.341 67.8134C243.86 67.6717 241.067 68.1433 239.68 69.6924C239.311 70.1047 239.053 70.605 239.272 71.1029C239.337 71.2531 239.454 71.3878 239.611 71.4935C240.23 71.9065 240.847 71.596 241.478 71.5686C242.346 71.5309 243.125 72.0574 243.405 72.6742C243.685 73.2909 243.562 73.9699 243.335 74.5989C243.163 74.9774 243.055 75.3706 243.012 75.7693C242.994 75.9692 243.044 76.1693 243.158 76.3506C243.272 76.5319 243.445 76.6884 243.662 76.8053C244.204 77.051 244.916 76.9088 245.459 76.6636C246.001 76.4183 246.47 76.0773 247.055 75.8969C247.641 75.7164 248.428 75.7565 248.769 76.1567C248.878 76.3023 248.951 76.4611 248.986 76.6258C249.292 77.67 249.221 77.6085 249.527 78.6528V78.6528Z" fill="#2F2E41"/>
<path d="M239.12 133.52L197.077 122.542C196.356 122.353 195.764 121.957 195.431 121.442C195.099 120.926 195.052 120.332 195.303 119.791L206.228 96.2692C206.413 95.8729 206.8 95.5477 207.304 95.365C207.808 95.1823 208.388 95.157 208.917 95.2946L252.381 106.644C252.919 106.785 253.36 107.08 253.608 107.464C253.856 107.849 253.89 108.291 253.703 108.695L242.79 132.19C242.538 132.731 242.01 133.175 241.322 133.424C240.634 133.674 239.842 133.708 239.12 133.52V133.52Z" fill="#E6E6E6"/>
<path d="M200.665 121.191L237.428 130.79C238.128 130.973 238.897 130.94 239.564 130.698C240.232 130.456 240.744 130.025 240.987 129.5L249.809 110.507C250.053 109.982 250.009 109.406 249.686 108.906C249.364 108.405 248.789 108.021 248.089 107.838L211.326 98.2389C210.626 98.0561 209.857 98.0893 209.19 98.3312C208.522 98.5731 208.01 99.0039 207.767 99.5288L198.945 118.522C198.824 118.782 198.773 119.057 198.794 119.332C198.815 119.607 198.908 119.876 199.068 120.124C199.227 120.371 199.451 120.593 199.725 120.776C199.999 120.959 200.318 121.1 200.665 121.191Z" fill="white"/>
<path d="M209.897 107.846L208.076 107.371C207.977 107.345 207.896 107.291 207.851 107.22C207.805 107.15 207.799 107.068 207.833 106.994L208.467 105.629C208.502 105.555 208.574 105.495 208.668 105.46C208.762 105.426 208.871 105.422 208.97 105.447L210.79 105.923C210.889 105.949 210.97 106.003 211.015 106.073C211.061 106.144 211.067 106.225 211.033 106.299L210.399 107.664C210.364 107.738 210.292 107.799 210.198 107.833C210.104 107.867 209.996 107.872 209.897 107.846V107.846Z" fill="#F34A50"/>
<path d="M208.254 111.383L206.433 110.908C206.334 110.882 206.253 110.828 206.208 110.757C206.162 110.687 206.156 110.605 206.19 110.531L206.824 109.166C206.859 109.092 206.931 109.031 207.025 108.997C207.119 108.963 207.228 108.958 207.326 108.984L209.147 109.46C209.246 109.485 209.327 109.54 209.372 109.61C209.418 109.681 209.424 109.762 209.39 109.836L208.756 111.201C208.721 111.275 208.649 111.336 208.555 111.37C208.461 111.404 208.352 111.409 208.254 111.383V111.383Z" fill="#3F3D56"/>
<path d="M206.611 114.92L204.79 114.445C204.691 114.419 204.61 114.365 204.565 114.294C204.519 114.223 204.513 114.142 204.547 114.068L205.181 112.703C205.216 112.629 205.288 112.568 205.382 112.534C205.476 112.5 205.585 112.495 205.683 112.521L207.504 112.996C207.603 113.022 207.684 113.076 207.729 113.147C207.775 113.218 207.781 113.299 207.747 113.373L207.113 114.738C207.078 114.812 207.006 114.873 206.912 114.907C206.818 114.941 206.709 114.946 206.611 114.92V114.92Z" fill="#CCCCCC"/>
<path d="M222.131 110.275L213.358 107.985C213.309 107.972 213.264 107.952 213.225 107.927C213.187 107.901 213.155 107.869 213.132 107.834C213.11 107.799 213.096 107.761 213.093 107.723C213.09 107.684 213.098 107.645 213.115 107.608C213.132 107.571 213.158 107.538 213.193 107.509C213.227 107.479 213.269 107.456 213.316 107.439C213.363 107.422 213.413 107.412 213.465 107.41C213.517 107.408 213.569 107.413 213.618 107.426L222.39 109.717C222.439 109.73 222.485 109.75 222.523 109.775C222.562 109.801 222.594 109.832 222.616 109.867C222.639 109.902 222.652 109.94 222.655 109.979C222.658 110.018 222.651 110.057 222.634 110.094C222.617 110.13 222.59 110.164 222.556 110.193C222.521 110.222 222.479 110.246 222.433 110.263C222.386 110.28 222.335 110.29 222.283 110.292C222.232 110.294 222.18 110.288 222.131 110.275V110.275Z" fill="#CCCCCC"/>
<path d="M220.488 113.812L211.716 111.522C211.617 111.496 211.536 111.442 211.49 111.371C211.445 111.301 211.439 111.219 211.473 111.145C211.508 111.071 211.58 111.01 211.674 110.976C211.768 110.942 211.876 110.937 211.975 110.963L220.748 113.254C220.797 113.267 220.842 113.286 220.881 113.312C220.919 113.338 220.951 113.369 220.974 113.404C220.996 113.439 221.009 113.477 221.012 113.516C221.015 113.555 221.008 113.594 220.991 113.631C220.974 113.667 220.948 113.701 220.913 113.73C220.879 113.759 220.837 113.783 220.79 113.8C220.743 113.817 220.693 113.826 220.641 113.829C220.589 113.831 220.537 113.825 220.488 113.812V113.812Z" fill="#CCCCCC"/>
<path d="M218.846 117.349L210.073 115.059C209.974 115.033 209.893 114.979 209.848 114.908C209.802 114.837 209.796 114.756 209.831 114.682C209.865 114.608 209.937 114.547 210.031 114.513C210.125 114.479 210.234 114.474 210.333 114.5L219.105 116.791C219.204 116.817 219.285 116.871 219.33 116.941C219.376 117.012 219.382 117.093 219.348 117.167C219.313 117.241 219.241 117.302 219.147 117.336C219.053 117.37 218.944 117.375 218.846 117.349V117.349Z" fill="#CCCCCC"/>
<path d="M242.191 119.266C242.255 119.151 242.315 119.034 242.37 118.915C243.091 117.362 242.96 115.659 242.006 114.179C241.052 112.699 239.353 111.564 237.282 111.023L234.399 117.231L242.191 119.266Z" fill="#F34A50"/>
<path d="M233.56 117.609L236.444 111.401C234.92 111.003 233.274 110.948 231.709 111.243C230.144 111.538 228.729 112.17 227.637 113.061C226.546 113.952 225.826 115.063 225.566 116.257C225.307 117.451 225.519 118.676 226.177 119.781C226.835 120.885 227.909 121.822 229.268 122.474C230.627 123.126 232.211 123.466 233.825 123.451C235.438 123.437 237.011 123.068 238.348 122.391C239.686 121.715 240.73 120.759 241.352 119.643L233.56 117.609Z" fill="#3F3D56"/>
<path d="M243.883 108.704C243.85 108.403 243.906 108.101 244.045 107.819C244.185 107.536 244.406 107.28 244.692 107.069C244.979 106.857 245.323 106.695 245.702 106.594C246.08 106.493 246.484 106.456 246.884 106.485L250.95 99.8247L253.64 103.052L249.367 108.882C249.258 109.383 248.908 109.836 248.383 110.156C247.858 110.476 247.195 110.641 246.519 110.619C245.843 110.597 245.201 110.39 244.715 110.037C244.229 109.684 243.933 109.209 243.883 108.704V108.704Z" fill="#FFB8B8"/>
<path d="M250.922 106.358C250.672 106.358 250.427 106.301 250.221 106.194L248.301 105.198C248.094 105.09 247.936 104.936 247.848 104.758C247.761 104.58 247.748 104.387 247.813 104.203L250.069 97.8125L247.341 85.9465C247.338 85.556 247.438 85.1689 247.634 84.8073C247.831 84.4456 248.121 84.1166 248.487 83.839C248.853 83.5614 249.289 83.3406 249.769 83.1893C250.249 83.038 250.764 82.9592 251.285 82.9573C251.806 82.9554 252.322 83.0305 252.804 83.1783C253.286 83.3261 253.725 83.5437 254.094 83.8187C254.464 84.0936 254.758 84.4205 254.959 84.7807C255.161 85.1409 255.265 85.5272 255.267 85.9177L257.502 93.3217C258.181 95.5688 257.748 97.9243 256.284 99.95L252.003 105.875C251.921 105.989 251.807 106.089 251.67 106.168C251.533 106.246 251.375 106.303 251.207 106.333C251.114 106.35 251.018 106.358 250.922 106.358V106.358Z" fill="#3F3D56"/>
<path d="M271.727 143H219.787C219.715 143 219.645 142.978 219.594 142.94C219.542 142.902 219.514 142.849 219.514 142.795C219.514 142.741 219.542 142.689 219.594 142.65C219.645 142.612 219.715 142.59 219.787 142.59H271.727C271.799 142.59 271.869 142.612 271.92 142.65C271.971 142.689 272 142.741 272 142.795C272 142.849 271.971 142.902 271.92 142.94C271.869 142.978 271.799 143 271.727 143Z" fill="#CCCCCC"/>
<path d="M134.098 140.45L137.449 140.449L139.043 130.757H134.097L134.098 140.45Z" fill="#A0616A"/>
<path d="M133.243 139.629L139.843 139.629H139.843C140.395 139.629 140.942 139.711 141.453 139.869C141.963 140.028 142.427 140.26 142.817 140.553C143.208 140.846 143.518 141.193 143.729 141.576C143.94 141.959 144.049 142.369 144.049 142.783V142.885L133.243 142.886L133.243 139.629Z" fill="#2F2E41"/>
<path d="M120.703 140.45L124.054 140.449L125.648 130.757H120.702L120.703 140.45Z" fill="#A0616A"/>
<path d="M119.848 139.629L126.448 139.629H126.449C127.001 139.629 127.548 139.711 128.058 139.869C128.568 140.028 129.032 140.26 129.423 140.553C129.813 140.846 130.123 141.193 130.335 141.576C130.546 141.959 130.655 142.369 130.655 142.783V142.885L119.848 142.886L119.848 139.629Z" fill="#2F2E41"/>
<path d="M134.767 73.3483C138.475 73.3483 141.481 71.0945 141.481 68.3142C141.481 65.5339 138.475 63.28 134.767 63.28C131.059 63.28 128.053 65.5339 128.053 68.3142C128.053 71.0945 131.059 73.3483 134.767 73.3483Z" fill="#A0616A"/>
<path d="M139.282 138.358H133.063C132.9 138.358 132.739 138.334 132.588 138.287C132.438 138.24 132.302 138.171 132.187 138.084C132.073 137.997 131.983 137.894 131.922 137.781C131.861 137.668 131.831 137.546 131.832 137.424L132.194 115.282C132.195 115.203 132.156 115.127 132.085 115.069C132.014 115.012 131.916 114.976 131.811 114.971C131.707 114.966 131.603 114.991 131.522 115.041C131.442 115.091 131.389 115.163 131.377 115.241L127.757 137.547C127.721 137.771 127.576 137.977 127.351 138.126C127.126 138.275 126.836 138.358 126.536 138.358H120.257C120.087 138.358 119.92 138.332 119.764 138.281C119.609 138.23 119.469 138.155 119.354 138.062C119.239 137.969 119.151 137.858 119.095 137.738C119.039 137.618 119.017 137.491 119.031 137.364L123.177 97.5852L123.29 97.576L143.144 95.9683L140.511 137.479C140.496 137.716 140.36 137.94 140.131 138.103C139.902 138.267 139.598 138.358 139.282 138.358V138.358Z" fill="#2F2E41"/>
<path d="M123.418 100.027C123.1 100.027 122.793 99.9331 122.565 99.7664C122.336 99.5998 122.203 99.3729 122.193 99.1339C122.084 96.6186 121.899 87.9156 124.058 81.5263C124.647 79.7809 125.969 78.224 127.83 77.0857C129.691 75.9474 131.99 75.2881 134.389 75.2054V75.2054C136.75 75.1088 139.092 75.572 141.082 76.5294C143.072 77.4868 144.61 78.8898 145.476 80.5393C149.105 87.4473 152.534 95.9621 148.259 97.2976C142.657 99.0478 127.887 99.828 123.494 100.025C123.469 100.027 123.444 100.027 123.418 100.027Z" fill="#3F3D56"/>
<path d="M149.08 63.226C149.186 63.3073 149.299 63.3822 149.421 63.4501L148.716 73.6012L145.784 74.7265L147.471 78.2658L152.919 76.6517C153.359 76.5214 153.731 76.2874 153.979 75.9851C154.227 75.6828 154.337 75.3283 154.293 74.975L152.866 63.4602C153.333 63.1989 153.683 62.8372 153.869 62.4232C154.055 62.0092 154.069 61.5625 153.908 61.1425C153.747 60.7226 153.42 60.3492 152.969 60.0722C152.519 59.7951 151.967 59.6274 151.386 59.5915C150.805 59.5556 150.223 59.6531 149.718 59.871C149.213 60.089 148.809 60.417 148.558 60.8116C148.308 61.2061 148.224 61.6485 148.317 62.0798C148.41 62.5111 148.676 62.9109 149.08 63.226V63.226Z" fill="#A0616A"/>
<path d="M148.771 73.9792L150.834 78.3734C150.892 78.4985 150.914 78.6315 150.898 78.7635C150.882 78.8955 150.828 79.0233 150.74 79.1383C150.652 79.2533 150.532 79.3527 150.389 79.4298C150.245 79.5069 150.081 79.5599 149.907 79.5851L143.826 80.468C142.971 80.6896 142.034 80.6479 141.22 80.3521C140.406 80.0563 139.782 79.5306 139.484 78.8902C139.186 78.2498 139.239 77.5471 139.632 76.936C140.024 76.3249 140.723 75.8554 141.577 75.6305L147.037 73.4696C147.193 73.4077 147.366 73.3719 147.542 73.3645C147.719 73.3571 147.895 73.3783 148.06 73.4266C148.224 73.475 148.373 73.5494 148.496 73.6448C148.619 73.7401 148.713 73.8542 148.771 73.9792V73.9792Z" fill="#3F3D56"/>
<path d="M119.997 63.226C119.892 63.3073 119.778 63.3822 119.657 63.4501L120.362 73.6012L123.293 74.7265L121.606 78.2658L116.158 76.6517C115.718 76.5214 115.346 76.2874 115.098 75.9851C114.851 75.6828 114.74 75.3283 114.784 74.975L116.212 63.4602C115.745 63.1989 115.395 62.8372 115.208 62.4232C115.022 62.0092 115.009 61.5625 115.169 61.1425C115.33 60.7226 115.657 60.3492 116.108 60.0722C116.558 59.7951 117.111 59.6274 117.692 59.5915C118.272 59.5556 118.854 59.6531 119.359 59.871C119.864 60.089 120.269 60.417 120.519 60.8116C120.769 61.2061 120.853 61.6485 120.76 62.0798C120.667 62.5111 120.401 62.9109 119.997 63.226H119.997Z" fill="#A0616A"/>
<path d="M121.017 73.4265C121.182 73.378 121.358 73.3568 121.535 73.3642C121.711 73.3716 121.883 73.4075 122.04 73.4694L127.5 75.6304C128.353 75.8553 129.053 76.3248 129.445 76.9358C129.837 77.5469 129.89 78.2497 129.593 78.8901C129.295 79.5305 128.671 80.0562 127.857 80.352C127.043 80.6477 126.106 80.6894 125.251 80.4679L119.17 79.5849C118.996 79.5597 118.832 79.5068 118.688 79.4297C118.544 79.3526 118.424 79.2531 118.336 79.1382C118.248 79.0232 118.195 78.8953 118.178 78.7633C118.162 78.6313 118.184 78.4983 118.243 78.3733L120.305 73.9791C120.364 73.854 120.458 73.7399 120.581 73.6445C120.704 73.5491 120.852 73.4748 121.017 73.4265V73.4265Z" fill="#3F3D56"/>
<path d="M137.374 69.1721C137.339 68.53 137.554 67.894 137.993 67.3419C138.432 66.7898 139.076 66.3455 139.846 66.0633C141.887 65.2733 143.169 63.5883 142.607 62.0497C141.888 60.0802 138.313 58.8029 135.416 59.4805C134.632 59.6891 133.876 59.9526 133.158 60.2674L131.265 61.028C130.457 61.3315 129.677 61.6765 128.932 62.0606C127.816 62.6771 126.942 63.507 126.4 64.4635C125.858 65.42 125.668 66.4681 125.851 67.4983C126.224 69.5006 127.973 71.3368 130.367 72.5939C131.282 73.1069 132.34 73.4593 133.461 73.6251C134.608 73.767 135.886 73.6058 136.725 73.0707C138.036 72.2346 137.9 70.8344 137.476 69.665C137.42 69.5037 137.386 69.3386 137.374 69.1721Z" fill="#2F2E41"/>
<path d="M160.192 143H108.253C108.18 143 108.111 142.978 108.06 142.94C108.008 142.902 107.979 142.849 107.979 142.795C107.979 142.741 108.008 142.689 108.06 142.65C108.111 142.612 108.18 142.59 108.253 142.59H160.192C160.265 142.59 160.335 142.612 160.386 142.65C160.437 142.689 160.466 142.741 160.466 142.795C160.466 142.849 160.437 142.902 160.386 142.94C160.335 142.978 160.265 143 160.192 143Z" fill="#CCCCCC"/>
<path d="M75.4247 105.609L32.567 118.792C31.831 119.017 31.0056 119.015 30.272 118.785C29.5383 118.555 28.9563 118.116 28.6537 117.565L15.5343 93.5872C15.3138 93.1829 15.3162 92.7295 15.5409 92.3265C15.7657 91.9235 16.1944 91.6039 16.7332 91.4376L61.0397 77.8092C61.5883 77.641 62.2034 77.6428 62.7502 77.8142C63.2969 77.9857 63.7307 78.3127 63.9562 78.7237L77.0612 102.675C77.3622 103.227 77.3589 103.845 77.0521 104.395C76.7453 104.946 76.1601 105.382 75.4247 105.609V105.609Z" fill="#E6E6E6"/>
<path d="M34.1194 115.883L71.5954 104.356C72.3091 104.136 72.8772 103.713 73.1748 103.18C73.4724 102.646 73.4751 102.046 73.1824 101.511L62.5885 82.1492C62.4436 81.8842 62.2304 81.6433 61.9612 81.4401C61.6921 81.2369 61.3722 81.0755 61.0198 80.965C60.6674 80.8545 60.2895 80.7971 59.9076 80.7962C59.5256 80.7952 59.1472 80.8506 58.7938 80.9593L21.3177 92.4867C20.9644 92.5954 20.643 92.7552 20.372 92.9571C20.101 93.1589 19.8857 93.3987 19.7384 93.6629C19.591 93.9271 19.5145 94.2105 19.5132 94.4969C19.5119 94.7832 19.5859 95.067 19.7308 95.3319L30.3246 114.694C30.4696 114.958 30.6828 115.199 30.9519 115.403C31.2211 115.606 31.541 115.767 31.8933 115.878C32.2457 115.988 32.6237 116.046 33.0056 116.047C33.3875 116.047 33.766 115.992 34.1194 115.883V115.883Z" fill="white"/>
<path d="M62.3815 87.4294L61.8306 87.5989L61.8682 87.6677L62.4192 87.4983L62.3815 87.4294Z" fill="#E6E6E6"/>
<path d="M60.7551 88.01L59.642 88.3524L59.6044 88.2835L60.7174 87.9412L60.7551 88.01ZM58.5289 88.6948L57.4159 89.0371L57.3782 88.9683L58.4913 88.6259L58.5289 88.6948ZM56.3028 89.3795L55.1897 89.7219L55.152 89.6531L56.2651 89.3107L56.3028 89.3795ZM54.0766 90.0643L52.9635 90.4067L52.9259 90.3378L54.0389 89.9954L54.0766 90.0643ZM51.8504 90.749L50.7374 91.0914L50.6997 91.0226L51.8128 90.6802L51.8504 90.749ZM49.6243 91.4338L48.5112 91.7762L48.4735 91.7073L49.5866 91.365L49.6243 91.4338ZM47.3981 92.1186L46.2851 92.4609L46.2474 92.3921L47.3605 92.0497L47.3981 92.1186ZM45.172 92.8033L44.0589 93.1457L44.0212 93.0768L45.1343 92.7345L45.172 92.8033ZM42.9458 93.4881L41.8327 93.8304L41.7951 93.7616L42.9081 93.4192L42.9458 93.4881ZM40.7196 94.1728L39.6066 94.5152L39.5689 94.4464L40.682 94.104L40.7196 94.1728ZM38.4935 94.8576L37.3804 95.2L37.3427 95.1311L38.4558 94.7887L38.4935 94.8576ZM36.2673 95.5423L35.1543 95.8847L35.1166 95.8159L36.2296 95.4735L36.2673 95.5423ZM34.0412 96.2271L32.9281 96.5695L32.8904 96.5006L34.0035 96.1583L34.0412 96.2271ZM31.815 96.9119L30.7019 97.2542L30.6642 97.1854L31.7773 96.843L31.815 96.9119ZM29.5888 97.5966L28.4758 97.939L28.4381 97.8701L29.5512 97.5278L29.5888 97.5966ZM27.3627 98.2814L26.2496 98.6238L26.2119 98.5549L27.325 98.2125L27.3627 98.2814Z" fill="#E6E6E6"/>
<path d="M25.0988 98.8974L24.5479 99.0669L24.5855 99.1357L25.1365 98.9663L25.0988 98.8974Z" fill="#E6E6E6"/>
<path d="M47.7946 99.3969L47.2437 99.5664L47.2813 99.6353L47.8323 99.4658L47.7946 99.3969Z" fill="#E6E6E6"/>
<path d="M46.1847 99.9727L45.0881 100.31L45.0504 100.241L46.147 99.9038L46.1847 99.9727ZM43.9916 100.647L42.895 100.985L42.8573 100.916L43.9539 100.578L43.9916 100.647ZM41.7985 101.322L40.7019 101.659L40.6642 101.59L41.7608 101.253L41.7985 101.322ZM39.6054 101.996L38.5088 102.334L38.4711 102.265L39.5677 101.928L39.6054 101.996ZM37.4123 102.671L36.3157 103.008L36.278 102.939L37.3746 102.602L37.4123 102.671ZM35.2191 103.346L34.1226 103.683L34.0849 103.614L35.1815 103.277L35.2191 103.346ZM33.0261 104.02L31.9295 104.357L31.8918 104.289L32.9884 103.951L33.0261 104.02ZM30.833 104.695L29.7364 105.032L29.6987 104.963L30.7953 104.626L30.833 104.695Z" fill="#E6E6E6"/>
<path d="M28.6022 105.3L28.0513 105.47L28.0889 105.539L28.6399 105.369L28.6022 105.3Z" fill="#E6E6E6"/>
<path d="M38.7082 105.731L38.1572 105.901L38.1949 105.97L38.7459 105.8L38.7082 105.731Z" fill="#E6E6E6"/>
<path d="M37.0668 106.317L35.9386 106.664L35.9009 106.595L37.0291 106.248L37.0668 106.317ZM34.8104 107.011L33.6822 107.358L33.6446 107.289L34.7727 106.942L34.8104 107.011ZM32.554 107.705L31.4259 108.052L31.3882 107.983L32.5164 107.636L32.554 107.705Z" fill="#E6E6E6"/>
<path d="M30.26 108.33L29.709 108.5L29.7467 108.568L30.2976 108.399L30.26 108.33Z" fill="#E6E6E6"/>
<path d="M41.5368 110.901L40.9858 111.071L41.0235 111.14L41.5745 110.97L41.5368 110.901Z" fill="#E6E6E6"/>
<path d="M39.8954 111.487L38.7672 111.834L38.7295 111.765L39.8577 111.418L39.8954 111.487ZM37.639 112.181L36.5108 112.528L36.4732 112.459L37.6013 112.112L37.639 112.181ZM35.3827 112.875L34.2545 113.222L34.2168 113.153L35.345 112.806L35.3827 112.875Z" fill="#E6E6E6"/>
<path d="M33.0886 113.5L32.5376 113.669L32.5753 113.738L33.1262 113.569L33.0886 113.5Z" fill="#E6E6E6"/>
<path d="M35.7104 112.835L67.4689 103.067C68.2375 102.83 68.8493 102.373 69.1699 101.799C69.4906 101.224 69.494 100.577 69.1794 99.9999L62.7627 88.2727L62.7007 88.2934L54.9072 102.265L49.1269 100.453C49.0203 100.42 48.9047 100.405 48.7892 100.41C48.6737 100.416 48.5614 100.441 48.4612 100.484C48.3107 100.552 48.1942 100.656 48.1298 100.778L44.0454 108.1L39.8192 106.775C39.728 106.747 39.6302 106.732 39.5313 106.732C39.4324 106.731 39.3345 106.746 39.243 106.774C39.1516 106.802 39.0684 106.843 38.9983 106.895C38.9281 106.948 38.8724 107.01 38.8343 107.078C38.8073 107.128 36.2014 111.922 35.7104 112.835Z" fill="#F34A50"/>
<path d="M35.613 112.946L35.5215 112.917L38.7895 107.058C38.876 106.903 39.0408 106.781 39.2477 106.717C39.4547 106.653 39.6869 106.654 39.8933 106.719L44.0361 108.017L48.0972 100.736C48.1838 100.581 48.3486 100.459 48.5555 100.395C48.7625 100.332 48.9946 100.332 49.2011 100.397L54.8979 102.183L62.7314 88.1379L62.823 88.1667L54.9511 102.28L49.1628 100.465C49.0726 100.437 48.9759 100.422 48.8781 100.422C48.7804 100.422 48.6835 100.436 48.593 100.464C48.5026 100.492 48.4203 100.533 48.351 100.584C48.2816 100.636 48.2265 100.697 48.1888 100.765L44.0893 108.115L39.855 106.787C39.6728 106.73 39.468 106.73 39.2854 106.786C39.1028 106.842 38.9574 106.95 38.881 107.087L35.613 112.946Z" fill="#3F3D56"/>
<path d="M38.727 106.287C39.1107 106.287 39.4218 106.054 39.4218 105.766C39.4218 105.478 39.1107 105.245 38.727 105.245C38.3433 105.245 38.0322 105.478 38.0322 105.766C38.0322 106.054 38.3433 106.287 38.727 106.287Z" fill="#3F3D56"/>
<path d="M47.8134 99.9525C48.1972 99.9525 48.5082 99.7193 48.5082 99.4316C48.5082 99.1439 48.1972 98.9106 47.8134 98.9106C47.4297 98.9106 47.1187 99.1439 47.1187 99.4316C47.1187 99.7193 47.4297 99.9525 47.8134 99.9525Z" fill="#3F3D56"/>
<path d="M61.9619 87.9662C62.3456 87.9662 62.6567 87.733 62.6567 87.4453C62.6567 87.1576 62.3456 86.9243 61.9619 86.9243C61.5782 86.9243 61.2671 87.1576 61.2671 87.4453C61.2671 87.733 61.5782 87.9662 61.9619 87.9662Z" fill="#3F3D56"/>
<path d="M23.0727 105.175C23.4338 105.04 23.7512 104.847 24.0025 104.611C24.2537 104.374 24.4326 104.099 24.5267 103.805C24.6208 103.511 24.6277 103.205 24.547 102.908C24.4663 102.612 24.2999 102.332 24.0595 102.089L26.123 86.9622H21.6635L20.0236 101.733C19.506 102.063 19.1678 102.524 19.073 103.028C18.9783 103.532 19.1335 104.045 19.5094 104.469C19.8852 104.894 20.4555 105.2 21.1123 105.33C21.769 105.46 22.4665 105.405 23.0727 105.175Z" fill="#FFB8B8"/>
<path d="M27.1672 78.6138C30.6518 78.6138 33.4765 76.4958 33.4765 73.8832C33.4765 71.2706 30.6518 69.1526 27.1672 69.1526C23.6827 69.1526 20.8579 71.2706 20.8579 73.8832C20.8579 76.4958 23.6827 78.6138 27.1672 78.6138Z" fill="#FFB8B8"/>
<path d="M28.3547 95.7719C28.1021 95.7718 27.8566 95.7096 27.6557 95.5949C27.4548 95.4801 27.3097 95.3191 27.2426 95.1365C26.7371 93.7595 25.422 91.4313 23.3338 88.2162C22.8626 87.4895 22.6017 86.6962 22.5682 85.8885C22.5346 85.0809 22.7292 84.277 23.1392 83.5297C23.5492 82.7823 24.1652 82.1084 24.947 81.5522C25.7288 80.9959 26.6585 80.5699 27.6754 80.302C28.6389 80.0469 29.661 79.9393 30.681 79.9855C31.701 80.0318 32.6983 80.231 33.6139 80.5713C34.5295 80.9116 35.3447 81.3861 36.0114 81.9668C36.678 82.5475 37.1826 83.2226 37.4952 83.952C39.1138 87.7567 39.0356 91.8323 38.9269 93.4078C38.9134 93.5975 38.8173 93.7787 38.6533 93.9236C38.4894 94.0685 38.2666 94.1691 38.0191 94.21L28.6026 95.7518C28.5212 95.7652 28.4381 95.7719 28.3547 95.7719Z" fill="#FF6584"/>
<path d="M37.4737 140.693H40.6229L42.1212 131.585L37.4731 131.585L37.4737 140.693Z" fill="#FFB8B8"/>
<path d="M46.6968 142.885L36.7989 142.886L36.7987 140.018L42.8724 140.018C43.3746 140.018 43.8719 140.092 44.3359 140.236C44.7999 140.38 45.2214 140.592 45.5766 140.858C45.9317 141.124 46.2134 141.44 46.4056 141.788C46.5978 142.136 46.6968 142.509 46.6968 142.885Z" fill="#2F2E41"/>
<path d="M5.98193 137.633L8.74185 138.77L15.9073 131.33L11.8344 129.651L5.98193 137.633Z" fill="#FFB8B8"/>
<path d="M12.6553 142.886L3.98175 139.31L5.82412 136.798L11.1465 138.992C12.0353 139.358 12.6936 139.974 12.9765 140.704C13.2594 141.435 13.1439 142.219 12.6553 142.886V142.886V142.886Z" fill="#2F2E41"/>
<path d="M37.3265 135.638C37.0459 135.637 36.7749 135.561 36.5642 135.422C36.3535 135.283 36.2174 135.091 36.1813 134.882L32.2427 112.126C32.2253 112.026 32.1659 111.932 32.073 111.858C31.9801 111.784 31.8585 111.734 31.7255 111.715C31.5925 111.696 31.4549 111.709 31.3324 111.753C31.2099 111.796 31.1088 111.867 31.0434 111.956L14.629 134.285C14.4935 134.467 14.2753 134.607 14.014 134.679C13.7527 134.751 13.4657 134.75 13.2051 134.676L9.62725 133.654C9.48334 133.613 9.35184 133.551 9.24046 133.471C9.12908 133.392 9.04008 133.296 8.97868 133.19C8.91727 133.084 8.88471 132.97 8.88289 132.855C8.88108 132.739 8.91006 132.625 8.96812 132.518L20.3388 111.574C20.3676 111.521 20.3871 111.465 20.3969 111.408C21.937 102.471 25.8555 97.9258 27.0198 96.7458C27.1048 96.659 27.1608 96.5582 27.183 96.4519C27.2051 96.3455 27.1929 96.2367 27.1472 96.1346L26.9871 95.7746C26.9232 95.6317 26.9101 95.4788 26.9491 95.331C26.9881 95.1831 27.0779 95.0455 27.2096 94.9316C31.4048 91.3488 38.7169 93.3039 38.7903 93.324L38.827 93.3341L38.8499 93.3577C47.049 101.788 44.0175 129.172 43.3266 134.575C43.3008 134.778 43.18 134.968 42.9857 135.111C42.7913 135.254 42.5359 135.34 42.2646 135.355L37.4163 135.635C37.3862 135.637 37.3563 135.638 37.3265 135.638Z" fill="#2F2E41"/>
<path d="M51.6953 79.3782C51.6638 79.4822 51.6432 79.5878 51.6338 79.6941L40.5988 84.4673L37.9165 83.3096L35.0571 86.1163L39.5398 88.5118C39.902 88.7053 40.3381 88.8056 40.7827 88.7974C41.2272 88.7893 41.6563 88.6733 42.0054 88.4668L53.3845 81.736C53.898 81.8785 54.4573 81.9004 54.9878 81.7988C55.5184 81.6973 55.9951 81.477 56.3546 81.1673C56.7141 80.8576 56.9393 80.4731 57.0003 80.0651C57.0613 79.6571 56.9552 79.2449 56.6961 78.8832C56.4369 78.5215 56.0371 78.2275 55.5497 78.0404C55.0623 77.8532 54.5105 77.7818 53.9676 77.8355C53.4247 77.8893 52.9165 78.0657 52.5106 78.3412C52.1047 78.6168 51.8203 78.9785 51.6953 79.3782V79.3782Z" fill="#FFB8B8"/>
<path d="M40.2298 84.6934L36.6632 88.1592C36.5618 88.2578 36.4331 88.3388 36.2861 88.3968C36.1391 88.4548 35.9771 88.4883 35.8113 88.4951C35.6454 88.502 35.4795 88.4819 35.3249 88.4363C35.1703 88.3907 35.0307 88.3207 34.9154 88.231L30.8779 85.0874C30.208 84.6953 29.7728 84.1199 29.6677 83.4876C29.5626 82.8552 29.7963 82.2174 30.3175 81.714C30.8386 81.2107 31.6048 80.8828 32.4479 80.8023C33.291 80.7217 34.1423 80.8952 34.8151 81.2846L39.879 83.4076C40.024 83.4684 40.1498 83.552 40.2478 83.6525C40.3458 83.7531 40.4138 83.8683 40.4471 83.9903C40.4803 84.1123 40.4782 84.2383 40.4407 84.3596C40.4032 84.481 40.3312 84.5948 40.2298 84.6934V84.6934Z" fill="#FF6584"/>
<path d="M26.4064 90.7147L20.661 89.9369C20.4975 89.9147 20.3424 89.8664 20.206 89.7953C20.0697 89.7241 19.9554 89.6318 19.8709 89.5245C19.7865 89.4173 19.7339 89.2976 19.7167 89.1737C19.6995 89.0499 19.7181 88.9246 19.7712 88.8066L21.6338 84.6719C21.7895 84.0454 22.2702 83.4908 22.9705 83.1296C23.6708 82.7685 24.5335 82.6303 25.3695 82.7454C26.2055 82.8605 26.9465 83.2194 27.4301 83.7435C27.9136 84.2676 28.1002 84.9141 27.949 85.5412L27.7672 89.8892C27.762 90.0137 27.721 90.1358 27.6471 90.2474C27.5732 90.3589 27.4681 90.4572 27.3389 90.5356C27.2098 90.6139 27.0597 90.6705 26.8987 90.7014C26.7378 90.7323 26.5699 90.7368 26.4064 90.7147H26.4064Z" fill="#FF6584"/>
<path d="M28.1656 72.795C29.7872 73.6271 31.9165 74.4825 33.5727 73.5963C34.0908 73.3005 34.4672 72.8869 34.6455 72.4173C34.8238 71.9477 34.7945 71.4474 34.5619 70.9914C33.7688 69.2909 31.5899 68.5423 29.5063 67.9685C26.7976 67.2225 23.8482 66.6291 21.0519 67.1633C18.2557 67.6975 15.7844 69.7275 16.2892 71.8577C16.6951 73.5708 18.8503 74.9962 18.5443 76.7209C18.2364 78.4567 15.6329 79.3704 13.3343 79.6806C11.0358 79.9908 8.46373 80.0905 6.81188 81.3284C4.70464 82.9075 5.23085 85.73 7.21368 87.3973C9.19651 89.0645 12.1887 89.8203 15.0881 90.3341C18.9297 91.0148 23.0847 91.3725 26.7332 90.2428C30.3818 89.1131 33.221 86.0721 32.1641 83.2204C31.7176 82.0159 30.6659 80.9979 29.6496 80.0069C28.6332 79.0159 27.604 77.9795 27.2163 76.7636C26.8932 75.7504 27.1323 74.574 28.0285 73.8139C28.1915 73.6809 28.2941 73.5125 28.3215 73.3331C28.3489 73.1536 28.2998 72.9722 28.1812 72.815L28.1656 72.795Z" fill="#2F2E41"/>
<path d="M52.213 143H0.273366C0.200865 143 0.131333 142.978 0.080067 142.94C0.0288008 142.902 0 142.849 0 142.795C0 142.741 0.0288008 142.689 0.080067 142.65C0.131333 142.612 0.200865 142.59 0.273366 142.59H52.213C52.2855 142.59 52.355 142.612 52.4063 142.65C52.4576 142.689 52.4864 142.741 52.4864 142.795C52.4864 142.849 52.4576 142.902 52.4063 142.94C52.355 142.978 52.2855 143 52.213 143Z" fill="#CCCCCC"/>
</g>
<defs>
<clipPath id="clip0_143_1082">
<rect width="272" height="143" fill="white"/>
</clipPath>
</defs>
</svg>
