<svg width="400" height="300" viewBox="0 0 400 300" fill="none" xmlns="http://www.w3.org/2000/svg">
<g clip-path="url(#clip0_129_8)">
<rect width="400" height="300" fill="white"/>
<path d="M326.709 188.144H69.0853C67.3267 188.142 65.6407 187.394 64.3972 186.063C63.1536 184.733 62.4541 182.93 62.4521 181.049V11.1344C62.4536 9.75628 62.966 8.43508 63.877 7.46061C64.788 6.48614 66.0232 5.93799 67.3116 5.9364H328.398C329.709 5.938 330.966 6.49562 331.892 7.48694C332.819 8.47825 333.341 9.8223 333.342 11.2242V181.049C333.34 182.93 332.641 184.733 331.397 186.063C330.154 187.394 328.467 188.142 326.709 188.144Z" fill="#F2F2F2"/>
<path d="M317.311 178.096H77.2125C73.6929 178.096 70.8296 175.228 70.8296 171.703V23.7392C70.8296 21.1248 72.9514 18.9977 75.5595 18.9977H318.886C321.537 18.9977 323.694 21.1598 323.694 23.8173V171.703C323.694 175.228 320.83 178.096 317.311 178.096Z" fill="white"/>
<path d="M333.25 10.7285H62.3594V7.11635C62.3619 5.22905 63.0643 3.4199 64.3123 2.08578C65.5604 0.751674 67.2522 0.00155922 69.0167 0H326.593C328.357 0.00155014 330.049 0.751662 331.297 2.08577C332.545 3.41989 333.247 5.22905 333.25 7.11635V10.7285Z" fill="#CCCCCC"/>
<path d="M74.4578 7.21679C75.4088 7.21679 76.1798 6.39216 76.1798 5.37493C76.1798 4.35771 75.4088 3.53308 74.4578 3.53308C73.5068 3.53308 72.7358 4.35771 72.7358 5.37493C72.7358 6.39216 73.5068 7.21679 74.4578 7.21679Z" fill="white"/>
<path d="M80.994 7.21679C81.945 7.21679 82.7159 6.39216 82.7159 5.37493C82.7159 4.35771 81.945 3.53308 80.994 3.53308C80.0429 3.53308 79.272 4.35771 79.272 5.37493C79.272 6.39216 80.0429 7.21679 80.994 7.21679Z" fill="white"/>
<path d="M87.5301 7.21679C88.4811 7.21679 89.2521 6.39216 89.2521 5.37493C89.2521 4.35771 88.4811 3.53308 87.5301 3.53308C86.5791 3.53308 85.8081 4.35771 85.8081 5.37493C85.8081 6.39216 86.5791 7.21679 87.5301 7.21679Z" fill="white"/>
<path d="M290.884 153.28H104.818C102.953 153.278 101.165 152.484 99.8456 151.074C98.5267 149.663 97.7848 147.75 97.7827 145.755V49.8001C97.7843 48.308 98.3391 46.8775 99.3255 45.8224C100.312 44.7673 101.649 44.1738 103.044 44.1721H292.573C293.99 44.1739 295.349 44.7768 296.351 45.8488C297.354 46.9207 297.917 48.374 297.919 49.8899V145.755C297.917 147.75 297.175 149.663 295.856 151.074C294.537 152.484 292.749 153.278 290.884 153.28ZM103.044 45.0321C101.862 45.0336 100.729 45.5364 99.8937 46.4302C99.0581 47.3241 98.588 48.536 98.5867 49.8001V145.755C98.5886 147.522 99.2457 149.216 100.414 150.466C101.582 151.715 103.166 152.418 104.818 152.42H290.884C292.536 152.418 294.119 151.715 295.288 150.466C296.456 149.216 297.113 147.522 297.115 145.755V49.8899C297.113 48.602 296.635 47.3673 295.783 46.4566C294.932 45.5459 293.777 45.0336 292.573 45.0321H103.044Z" fill="#CCCCCC"/>
<path d="M111.25 145.755H284.451C286.157 145.755 287.793 145.03 289 143.74C290.206 142.45 290.884 140.7 290.884 138.875V58.6606C290.884 56.8359 290.206 55.086 289 53.7957C287.793 52.5055 286.157 51.7806 284.451 51.7806H111.25C109.544 51.7806 107.908 52.5055 106.702 53.7957C105.496 55.086 104.818 56.8359 104.818 58.6606V138.875C104.818 140.7 105.496 142.45 106.702 143.74C107.908 145.03 109.544 145.755 111.25 145.755Z" fill="#F2F2F2"/>
<path d="M130.916 75.1182C132.914 75.1182 134.534 73.3856 134.534 71.2483C134.534 69.1109 132.914 67.3783 130.916 67.3783C128.918 67.3783 127.298 69.1109 127.298 71.2483C127.298 73.3856 128.918 75.1182 130.916 75.1182Z" fill="#CCCCCC"/>
<path d="M130.916 89.7381C132.914 89.7381 134.534 88.0055 134.534 85.8681C134.534 83.7308 132.914 81.9982 130.916 81.9982C128.918 81.9982 127.298 83.7308 127.298 85.8681C127.298 88.0055 128.918 89.7381 130.916 89.7381Z" fill="#CCCCCC"/>
<path d="M130.916 104.358C132.914 104.358 134.534 102.625 134.534 100.488C134.534 98.3507 132.914 96.618 130.916 96.618C128.918 96.618 127.298 98.3507 127.298 100.488C127.298 102.625 128.918 104.358 130.916 104.358Z" fill="#CCCCCC"/>
<path d="M130.916 118.978C132.914 118.978 134.534 117.245 134.534 115.108C134.534 112.971 132.914 111.238 130.916 111.238C128.918 111.238 127.298 112.971 127.298 115.108C127.298 117.245 128.918 118.978 130.916 118.978Z" fill="#CCCCCC"/>
<path d="M268.001 71.6782H149.007C148.9 71.6782 148.798 71.6329 148.722 71.5523C148.647 71.4717 148.604 71.3623 148.604 71.2482C148.604 71.1342 148.647 71.0248 148.722 70.9442C148.798 70.8635 148.9 70.8182 149.007 70.8182H268.001C268.108 70.8182 268.21 70.8635 268.286 70.9442C268.361 71.0248 268.404 71.1342 268.404 71.2482C268.404 71.3623 268.361 71.4717 268.286 71.5523C268.21 71.6329 268.108 71.6782 268.001 71.6782Z" fill="#CCCCCC"/>
<path d="M268.001 86.2981H149.007C148.9 86.2981 148.798 86.2528 148.722 86.1722C148.647 86.0915 148.604 85.9821 148.604 85.8681C148.604 85.7541 148.647 85.6447 148.722 85.5641C148.798 85.4834 148.9 85.4381 149.007 85.4381H268.001C268.108 85.4381 268.21 85.4834 268.286 85.5641C268.361 85.6447 268.404 85.7541 268.404 85.8681C268.404 85.9821 268.361 86.0915 268.286 86.1722C268.21 86.2528 268.108 86.2981 268.001 86.2981Z" fill="#CCCCCC"/>
<path d="M268.001 100.918H149.007C148.9 100.918 148.798 100.873 148.722 100.792C148.647 100.711 148.604 100.602 148.604 100.488C148.604 100.374 148.647 100.265 148.722 100.184C148.798 100.103 148.9 100.058 149.007 100.058H268.001C268.108 100.058 268.21 100.103 268.286 100.184C268.361 100.265 268.404 100.374 268.404 100.488C268.404 100.602 268.361 100.711 268.286 100.792C268.21 100.873 268.108 100.918 268.001 100.918Z" fill="#CCCCCC"/>
<path d="M268.001 115.538H149.007C148.9 115.538 148.798 115.493 148.722 115.412C148.647 115.331 148.604 115.222 148.604 115.108C148.604 114.994 148.647 114.884 148.722 114.804C148.798 114.723 148.9 114.678 149.007 114.678H268.001C268.108 114.678 268.21 114.723 268.286 114.804C268.361 114.884 268.404 114.994 268.404 115.108C268.404 115.222 268.361 115.331 268.286 115.412C268.21 115.493 268.108 115.538 268.001 115.538Z" fill="#CCCCCC"/>
<path d="M171.519 130.158H159.861C159.328 130.157 158.817 129.93 158.44 129.527C158.063 129.124 157.851 128.578 157.851 128.008V116.398C157.851 115.828 158.063 115.281 158.44 114.878C158.817 114.475 159.328 114.248 159.861 114.248H171.519C172.052 114.248 172.563 114.475 172.94 114.878C173.316 115.281 173.528 115.828 173.529 116.398V128.008C173.528 128.578 173.316 129.124 172.94 129.527C172.563 129.93 172.052 130.157 171.519 130.158Z" fill="#921C00"/>
<path d="M197.65 130.158H185.991C185.459 130.157 184.948 129.93 184.571 129.527C184.194 129.124 183.982 128.578 183.981 128.008V101.778C183.982 101.208 184.194 100.661 184.571 100.258C184.948 99.8553 185.459 99.6286 185.991 99.6279H197.65C198.183 99.6286 198.694 99.8553 199.07 100.258C199.447 100.661 199.659 101.208 199.66 101.778V128.008C199.659 128.578 199.447 129.124 199.07 129.527C198.694 129.93 198.183 130.157 197.65 130.158Z" fill="#921C00"/>
<path d="M224.183 130.158H212.524C211.991 130.157 211.48 129.93 211.104 129.527C210.727 129.124 210.515 128.578 210.514 128.008V87.1582C210.515 86.5881 210.727 86.0417 211.104 85.6386C211.48 85.2356 211.991 85.0088 212.524 85.0082H224.183C224.715 85.0088 225.226 85.2356 225.603 85.6386C225.98 86.0417 226.192 86.5881 226.193 87.1582V128.008C226.192 128.578 225.98 129.124 225.603 129.527C225.226 129.93 224.715 130.157 224.183 130.158Z" fill="#921C00"/>
<path d="M251.519 130.158H239.861C239.328 130.157 238.817 129.93 238.44 129.527C238.063 129.124 237.851 128.578 237.851 128.008V72.9682C237.851 72.3982 238.063 71.8517 238.44 71.4487C238.817 71.0456 239.328 70.8189 239.861 70.8182H251.519C252.052 70.8189 252.563 71.0456 252.94 71.4487C253.316 71.8517 253.528 72.3982 253.529 72.9682V128.008C253.528 128.578 253.316 129.124 252.94 129.527C252.563 129.93 252.052 130.157 251.519 130.158Z" fill="#921C00"/>
<path d="M268.001 130.158H149.007C148.9 130.158 148.798 130.112 148.722 130.032C148.647 129.951 148.604 129.842 148.604 129.728C148.604 129.614 148.647 129.504 148.722 129.424C148.798 129.343 148.9 129.298 149.007 129.298H268.001C268.108 129.298 268.21 129.343 268.286 129.424C268.361 129.504 268.404 129.614 268.404 129.728C268.404 129.842 268.361 129.951 268.286 130.032C268.21 130.112 268.108 130.158 268.001 130.158Z" fill="#3F3D56"/>
<path d="M320.282 210.372C320.608 209.845 321.038 209.4 321.542 209.07C322.045 208.739 322.611 208.531 323.198 208.46C323.785 208.388 324.38 208.455 324.94 208.656C325.5 208.857 326.013 209.187 326.441 209.623L339.207 202.576L338.413 210.515L326.412 215.99C325.68 216.711 324.726 217.12 323.731 217.139C322.737 217.158 321.77 216.786 321.014 216.094C320.259 215.401 319.767 214.436 319.632 213.382C319.497 212.327 319.728 211.257 320.282 210.372Z" fill="#FFB8B8"/>
<path d="M331.266 213.334C330.976 213.091 330.762 212.759 330.653 212.383L329.638 208.874C329.529 208.494 329.532 208.087 329.646 207.709C329.76 207.33 329.98 206.998 330.276 206.758L340.623 198.399L351.829 176.163C352.298 175.516 352.882 174.975 353.547 174.569C354.212 174.164 354.945 173.903 355.704 173.801C356.464 173.699 357.234 173.757 357.973 173.974C358.711 174.19 359.402 174.56 360.006 175.062C360.611 175.564 361.117 176.189 361.496 176.9C361.875 177.611 362.119 178.395 362.214 179.207C362.31 180.02 362.255 180.844 362.052 181.634C361.85 182.423 361.504 183.162 361.035 183.809L354.66 198.201C352.725 202.569 349.373 206.037 345.227 207.96L333.101 213.586C332.868 213.694 332.616 213.748 332.362 213.745C332.108 213.742 331.857 213.682 331.626 213.569C331.498 213.506 331.377 213.427 331.266 213.334Z" fill="#3F3D56"/>
<path d="M361.317 166.882C366.77 166.882 371.19 162.154 371.19 156.321C371.19 150.489 366.77 145.76 361.317 145.76C355.864 145.76 351.443 150.489 351.443 156.321C351.443 162.154 355.864 166.882 361.317 166.882Z" fill="#FFB8B8"/>
<path d="M357.311 294.864L352.383 294.864L350.039 274.53L357.313 274.53L357.311 294.864Z" fill="#FFB8B8"/>
<path d="M348.863 293.357H358.368V299.759H342.878C342.878 298.918 343.033 298.086 343.333 297.309C343.634 296.532 344.075 295.827 344.631 295.232C345.187 294.638 345.846 294.166 346.572 293.845C347.298 293.523 348.077 293.357 348.863 293.357Z" fill="#2F2E41"/>
<path d="M373.392 294.865L368.464 294.864L366.12 274.53L373.394 274.531L373.392 294.865Z" fill="#FFB8B8"/>
<path d="M364.943 293.358H374.448V299.759H358.958C358.958 298.919 359.113 298.086 359.414 297.31C359.714 296.533 360.155 295.827 360.711 295.233C361.267 294.639 361.926 294.167 362.652 293.845C363.379 293.524 364.157 293.358 364.943 293.358Z" fill="#2F2E41"/>
<path d="M373.752 289.705L367.976 289.705C367.579 289.704 367.192 289.564 366.876 289.305C366.561 289.046 366.334 288.684 366.23 288.273L357.916 255.292C357.903 255.241 357.873 255.196 357.831 255.168C357.789 255.139 357.739 255.127 357.69 255.136C357.641 255.145 357.596 255.172 357.565 255.214C357.534 255.255 357.518 255.308 357.521 255.361L359.201 286.64C359.216 286.917 359.175 287.193 359.081 287.452C358.987 287.71 358.843 287.943 358.657 288.137C358.472 288.33 358.25 288.479 358.006 288.572C357.762 288.666 357.502 288.702 357.244 288.679L350.753 288.1C350.337 288.062 349.946 287.872 349.646 287.561C349.346 287.251 349.155 286.839 349.106 286.396L343.192 220.716L345.48 222.184L366.919 218.291L375.545 287.515C375.579 287.788 375.558 288.066 375.484 288.33C375.409 288.594 375.283 288.837 375.113 289.045C374.943 289.252 374.734 289.419 374.499 289.532C374.264 289.646 374.01 289.705 373.752 289.705H373.752Z" fill="#2F2E41"/>
<path d="M350.362 227.648C347.997 227.628 345.68 226.93 343.652 225.628C343.34 225.43 343.091 225.136 342.937 224.784C342.784 224.431 342.734 224.038 342.793 223.655C343.547 218.716 347.49 193.38 351.078 179.568C352.539 173.942 355.77 170.912 360.681 170.562C367.864 170.058 374.249 176.069 374.913 183.978C376.086 197.931 371.322 217.754 369.219 225.63C369.138 225.934 368.988 226.212 368.782 226.44C368.577 226.667 368.322 226.838 368.041 226.935C367.76 227.033 367.46 227.056 367.169 227.001C366.878 226.946 366.603 226.816 366.37 226.621L362.084 223.055C361.82 222.84 361.494 222.73 361.163 222.745C360.831 222.759 360.515 222.898 360.269 223.136C356.656 226.583 353.224 227.648 350.362 227.648Z" fill="#3F3D56"/>
<path opacity="0.2" d="M364.537 190.806L368.155 207.146L362.928 220.905L366.547 207.576L364.537 190.806Z" fill="black"/>
<path d="M366.951 165.006C367.829 165.024 368.702 164.855 369.519 164.509C369.878 164.361 370.252 164.239 370.61 164.091C373.779 162.782 375.866 159.173 375.941 155.54C376.016 151.908 374.258 148.382 371.646 146.059C369.035 143.735 365.653 142.542 362.266 142.266C358.617 141.969 354.509 142.958 352.47 146.208C351.928 147.073 351.548 148.123 351.87 149.167C351.966 149.482 352.138 149.765 352.368 149.987C353.279 150.853 354.186 150.202 355.115 150.144C356.39 150.065 357.536 151.17 357.948 152.463C358.359 153.757 358.178 155.182 357.846 156.501C357.592 157.296 357.433 158.12 357.37 158.957C357.343 159.376 357.417 159.796 357.584 160.176C357.752 160.557 358.007 160.885 358.326 161.13C359.123 161.646 360.17 161.347 360.968 160.833C361.765 160.318 362.455 159.603 363.316 159.224C364.178 158.846 365.335 158.93 365.837 159.769C365.996 160.075 366.104 160.408 366.155 160.754C366.605 162.944 366.502 162.815 366.951 165.006Z" fill="#2F2E41"/>
<path d="M351.647 280.113L289.819 257.082C288.758 256.685 287.888 255.855 287.399 254.773C286.909 253.69 286.842 252.445 287.21 251.309L303.277 201.963C303.548 201.132 304.117 200.45 304.858 200.067C305.6 199.683 306.453 199.63 307.231 199.919L371.148 223.728C371.939 224.024 372.588 224.643 372.952 225.45C373.317 226.256 373.367 227.184 373.093 228.031L357.044 277.322C356.673 278.457 355.897 279.388 354.885 279.911C353.873 280.435 352.708 280.507 351.647 280.113Z" fill="#E6E6E6"/>
<path d="M295.095 254.246L349.159 274.385C350.188 274.769 351.318 274.699 352.3 274.191C353.281 273.684 354.034 272.78 354.393 271.679L367.366 231.833C367.725 230.732 367.66 229.523 367.185 228.473C366.711 227.423 365.866 226.618 364.836 226.235L310.772 206.096C309.743 205.712 308.613 205.782 307.632 206.289C306.65 206.797 305.897 207.701 305.539 208.802L292.565 248.648C292.388 249.193 292.312 249.771 292.343 250.347C292.374 250.924 292.511 251.488 292.746 252.008C292.981 252.527 293.309 252.993 293.712 253.377C294.115 253.761 294.585 254.056 295.095 254.246Z" fill="white"/>
<path d="M308.671 226.251L305.994 225.253C305.849 225.199 305.73 225.085 305.663 224.937C305.596 224.789 305.587 224.619 305.637 224.463L306.57 221.6C306.62 221.444 306.726 221.317 306.865 221.245C307.003 221.174 307.163 221.164 307.308 221.218L309.985 222.215C310.131 222.269 310.25 222.383 310.317 222.531C310.384 222.679 310.393 222.85 310.342 223.005L309.41 225.869C309.359 226.024 309.253 226.152 309.115 226.223C308.976 226.295 308.817 226.305 308.671 226.251Z" fill="#921C00"/>
<path d="M306.255 233.671L303.578 232.673C303.433 232.619 303.314 232.505 303.247 232.357C303.18 232.209 303.171 232.039 303.221 231.884L304.154 229.02C304.204 228.864 304.31 228.737 304.449 228.665C304.587 228.594 304.747 228.584 304.892 228.638L307.569 229.635C307.715 229.689 307.834 229.803 307.901 229.951C307.967 230.099 307.977 230.27 307.926 230.425L306.994 233.289C306.943 233.444 306.837 233.572 306.698 233.643C306.56 233.715 306.401 233.725 306.255 233.671Z" fill="#3F3D56"/>
<path d="M303.839 241.091L301.162 240.093C301.017 240.039 300.898 239.926 300.831 239.778C300.764 239.629 300.755 239.459 300.805 239.304L301.738 236.44C301.788 236.285 301.894 236.157 302.033 236.086C302.171 236.014 302.331 236.004 302.476 236.058L305.153 237.055C305.299 237.11 305.418 237.223 305.485 237.371C305.551 237.519 305.561 237.69 305.51 237.845L304.578 240.709C304.527 240.864 304.421 240.992 304.282 241.063C304.144 241.135 303.985 241.145 303.839 241.091Z" fill="#CCCCCC"/>
<path d="M326.663 231.347L313.762 226.541C313.69 226.515 313.624 226.473 313.567 226.419C313.51 226.365 313.463 226.299 313.43 226.226C313.396 226.152 313.377 226.073 313.373 225.991C313.368 225.91 313.379 225.828 313.404 225.751C313.429 225.674 313.468 225.603 313.519 225.542C313.57 225.481 313.631 225.432 313.7 225.396C313.769 225.361 313.843 225.34 313.919 225.336C313.995 225.331 314.072 225.343 314.144 225.37L327.044 230.175C327.116 230.202 327.183 230.244 327.24 230.298C327.297 230.352 327.344 230.418 327.377 230.491C327.41 230.564 327.43 230.644 327.434 230.726C327.438 230.807 327.428 230.889 327.403 230.966C327.378 231.043 327.339 231.114 327.288 231.175C327.237 231.236 327.175 231.285 327.107 231.321C327.038 231.356 326.963 231.377 326.887 231.381C326.811 231.386 326.735 231.374 326.663 231.347Z" fill="#CCCCCC"/>
<path d="M324.247 238.767L311.346 233.962C311.201 233.907 311.082 233.794 311.015 233.646C310.948 233.498 310.939 233.327 310.989 233.172C311.04 233.016 311.146 232.889 311.285 232.817C311.423 232.746 311.582 232.736 311.728 232.79L324.628 237.596C324.7 237.622 324.767 237.664 324.824 237.718C324.881 237.772 324.927 237.838 324.961 237.911C324.994 237.985 325.013 238.064 325.018 238.146C325.022 238.227 325.012 238.309 324.986 238.386C324.961 238.463 324.922 238.534 324.872 238.595C324.821 238.656 324.759 238.705 324.691 238.741C324.622 238.776 324.547 238.797 324.471 238.801C324.395 238.806 324.319 238.794 324.247 238.767Z" fill="#CCCCCC"/>
<path d="M321.831 246.187L308.931 241.382C308.785 241.328 308.666 241.214 308.599 241.066C308.532 240.918 308.523 240.747 308.574 240.592C308.624 240.436 308.731 240.309 308.869 240.237C309.008 240.166 309.167 240.156 309.312 240.21L322.213 245.016C322.358 245.07 322.477 245.183 322.544 245.331C322.611 245.48 322.62 245.65 322.57 245.805C322.519 245.961 322.413 246.088 322.274 246.16C322.136 246.231 321.977 246.241 321.831 246.187Z" fill="#CCCCCC"/>
<path d="M356.162 250.207C356.256 249.966 356.345 249.721 356.426 249.471C357.487 246.215 357.294 242.641 355.891 239.536C354.488 236.431 351.989 234.05 348.944 232.916L344.704 245.939L356.162 250.207Z" fill="#921C00"/>
<path d="M343.471 246.731L347.711 233.708C345.47 232.873 343.05 232.758 340.748 233.377C338.447 233.996 336.365 235.322 334.76 237.191C333.155 239.06 332.096 241.391 331.714 243.896C331.333 246.401 331.645 248.971 332.612 251.288C333.58 253.606 335.16 255.57 337.159 256.938C339.157 258.307 341.487 259.019 343.859 258.989C346.232 258.958 348.544 258.185 350.511 256.766C352.479 255.346 354.014 253.342 354.929 251L343.471 246.731Z" fill="#3F3D56"/>
<path d="M358.651 228.05C358.603 227.42 358.685 226.786 358.891 226.193C359.096 225.601 359.421 225.064 359.842 224.62C360.263 224.176 360.769 223.836 361.326 223.624C361.883 223.413 362.477 223.334 363.065 223.394L369.044 209.423L373 216.194L366.716 228.424C366.556 229.474 366.041 230.425 365.269 231.097C364.497 231.769 363.522 232.114 362.528 232.068C361.534 232.022 360.59 231.587 359.876 230.847C359.161 230.106 358.725 229.111 358.651 228.05Z" fill="#FFB8B8"/>
<path d="M369.003 223.129C368.634 223.129 368.275 223.009 367.972 222.785L365.149 220.695C364.844 220.468 364.611 220.146 364.482 219.773C364.354 219.399 364.336 218.993 364.43 218.608L367.748 205.201L363.737 180.307C363.732 179.488 363.879 178.676 364.168 177.917C364.457 177.159 364.883 176.468 365.421 175.886C365.96 175.304 366.601 174.84 367.307 174.523C368.013 174.206 368.77 174.04 369.536 174.036C370.302 174.032 371.061 174.19 371.77 174.5C372.479 174.81 373.124 175.267 373.668 175.843C374.212 176.42 374.644 177.106 374.94 177.862C375.236 178.617 375.389 179.428 375.392 180.247L378.679 195.78C379.678 200.494 379.041 205.436 376.888 209.685L370.592 222.116C370.471 222.355 370.304 222.564 370.103 222.729C369.901 222.895 369.669 223.013 369.422 223.076C369.285 223.111 369.144 223.129 369.003 223.129Z" fill="#3F3D56"/>
<path d="M399.598 300H323.216C323.109 300 323.007 299.955 322.932 299.874C322.856 299.793 322.814 299.684 322.814 299.57C322.814 299.456 322.856 299.347 322.932 299.266C323.007 299.185 323.109 299.14 323.216 299.14H399.598C399.705 299.14 399.807 299.185 399.882 299.266C399.958 299.347 400 299.456 400 299.57C400 299.684 399.958 299.793 399.882 299.874C399.807 299.955 399.705 300 399.598 300Z" fill="#CCCCCC"/>
<path d="M197.202 294.65L202.131 294.65L204.476 274.316H197.202L197.202 294.65Z" fill="#A0616A"/>
<path d="M195.945 292.929L205.651 292.928H205.652C206.464 292.928 207.268 293.1 208.019 293.432C208.769 293.765 209.451 294.252 210.026 294.866C210.6 295.481 211.056 296.21 211.366 297.013C211.677 297.815 211.837 298.676 211.837 299.544V299.759L195.946 299.76L195.945 292.929Z" fill="#2F2E41"/>
<path d="M177.504 294.65L182.432 294.65L184.777 274.316H177.503L177.504 294.65Z" fill="#A0616A"/>
<path d="M176.247 292.929L185.953 292.928H185.954C186.766 292.928 187.57 293.1 188.321 293.432C189.071 293.765 189.753 294.252 190.327 294.866C190.902 295.481 191.357 296.21 191.668 297.013C191.979 297.815 192.139 298.676 192.139 299.544V299.759L176.247 299.76L176.247 292.929Z" fill="#2F2E41"/>
<path d="M198.186 153.878C203.639 153.878 208.06 149.149 208.06 143.316C208.06 137.484 203.639 132.755 198.186 132.755C192.733 132.755 188.312 137.484 188.312 143.316C188.312 149.149 192.733 153.878 198.186 153.878Z" fill="#A0616A"/>
<path d="M204.826 290.261H195.68C195.441 290.261 195.204 290.211 194.983 290.112C194.762 290.013 194.562 289.868 194.393 289.686C194.225 289.504 194.092 289.288 194.003 289.051C193.913 288.813 193.868 288.559 193.871 288.303L194.403 241.85C194.405 241.685 194.347 241.525 194.243 241.404C194.138 241.283 193.994 241.209 193.84 241.198C193.686 241.187 193.534 241.24 193.415 241.345C193.296 241.45 193.22 241.6 193.201 241.764L187.878 288.56C187.825 289.029 187.612 289.461 187.282 289.775C186.951 290.088 186.524 290.261 186.082 290.261H176.849C176.599 290.261 176.352 290.206 176.124 290.099C175.895 289.993 175.69 289.836 175.52 289.64C175.351 289.444 175.221 289.213 175.14 288.961C175.058 288.709 175.026 288.442 175.045 288.176L181.143 204.724L181.308 204.705L210.506 201.332L206.633 288.418C206.612 288.915 206.412 289.384 206.075 289.727C205.739 290.071 205.291 290.262 204.826 290.261Z" fill="#2F2E41"/>
<path d="M181.498 209.847C181.029 209.846 180.578 209.65 180.242 209.3C179.906 208.95 179.71 208.475 179.695 207.973C179.536 202.696 179.263 184.438 182.438 171.034C183.304 167.372 185.249 164.106 187.985 161.718C190.721 159.33 194.103 157.947 197.631 157.774C201.103 157.571 204.547 158.543 207.473 160.551C210.4 162.56 212.661 165.503 213.936 168.964C219.272 183.456 224.315 201.319 218.028 204.121C209.789 207.792 188.069 209.429 181.609 209.843C181.571 209.846 181.534 209.847 181.498 209.847Z" fill="#3F3D56"/>
<path d="M219.235 132.642C219.39 132.813 219.558 132.97 219.736 133.112L218.699 154.408L214.388 156.769L216.869 164.194L224.881 160.808C225.528 160.535 226.075 160.044 226.439 159.409C226.804 158.775 226.966 158.032 226.901 157.29L224.802 133.134C225.489 132.585 226.004 131.827 226.278 130.958C226.551 130.089 226.571 129.152 226.335 128.271C226.099 127.39 225.617 126.607 224.955 126.026C224.292 125.444 223.48 125.093 222.626 125.017C221.772 124.942 220.917 125.147 220.174 125.604C219.431 126.061 218.836 126.749 218.468 127.577C218.1 128.405 217.976 129.333 218.113 130.237C218.25 131.142 218.641 131.981 219.235 132.642Z" fill="#A0616A"/>
<path d="M218.781 155.201L221.814 164.42C221.9 164.682 221.933 164.961 221.909 165.238C221.885 165.515 221.806 165.783 221.677 166.024C221.548 166.265 221.371 166.474 221.16 166.636C220.948 166.797 220.707 166.909 220.451 166.961L211.509 168.814C210.251 169.279 208.873 169.191 207.676 168.571C206.479 167.95 205.561 166.847 205.123 165.504C204.685 164.16 204.764 162.686 205.34 161.404C205.917 160.122 206.946 159.137 208.201 158.665L216.231 154.132C216.461 154.002 216.714 153.927 216.973 153.911C217.233 153.896 217.493 153.94 217.735 154.042C217.977 154.143 218.196 154.299 218.376 154.499C218.557 154.699 218.695 154.939 218.781 155.201V155.201Z" fill="#3F3D56"/>
<path d="M176.467 132.642C176.311 132.813 176.144 132.97 175.966 133.112L177.002 154.408L181.313 156.769L178.833 164.194L170.821 160.808C170.174 160.535 169.627 160.044 169.262 159.409C168.898 158.775 168.736 158.032 168.8 157.29L170.899 133.134C170.213 132.585 169.698 131.827 169.424 130.958C169.15 130.089 169.13 129.152 169.367 128.271C169.603 127.39 170.084 126.607 170.747 126.026C171.409 125.444 172.222 125.093 173.076 125.017C173.93 124.942 174.785 125.147 175.528 125.604C176.271 126.061 176.866 126.749 177.234 127.577C177.602 128.405 177.726 129.333 177.589 130.237C177.452 131.142 177.06 131.981 176.467 132.642H176.467Z" fill="#A0616A"/>
<path d="M177.967 154.042C178.209 153.94 178.468 153.896 178.728 153.911C178.987 153.927 179.241 154.002 179.471 154.132L187.5 158.665C188.755 159.137 189.784 160.122 190.361 161.404C190.938 162.686 191.016 164.16 190.578 165.504C190.14 166.847 189.222 167.95 188.025 168.571C186.828 169.191 185.45 169.279 184.193 168.814L175.25 166.962C174.994 166.909 174.753 166.798 174.541 166.636C174.33 166.474 174.154 166.265 174.024 166.024C173.895 165.783 173.816 165.515 173.792 165.238C173.769 164.961 173.801 164.682 173.887 164.42L176.92 155.201C177.006 154.939 177.144 154.699 177.325 154.499C177.506 154.299 177.724 154.143 177.967 154.042Z" fill="#3F3D56"/>
<path d="M202.021 145.117C201.969 143.769 202.285 142.435 202.931 141.277C203.576 140.119 204.523 139.187 205.655 138.595C208.657 136.937 210.542 133.402 209.716 130.174C208.659 126.043 203.401 123.363 199.141 124.784C197.988 125.222 196.876 125.775 195.82 126.435L193.037 128.031C191.848 128.668 190.702 129.391 189.606 130.197C187.965 131.491 186.679 133.232 185.882 135.238C185.085 137.245 184.807 139.444 185.076 141.605C185.624 145.806 188.195 149.658 191.716 152.295C193.062 153.371 194.617 154.111 196.266 154.459C197.954 154.756 199.832 154.418 201.066 153.296C202.994 151.541 202.795 148.604 202.171 146.151C202.089 145.812 202.038 145.466 202.021 145.117Z" fill="#2F2E41"/>
<path d="M235.578 300H159.196C159.089 300 158.987 299.955 158.912 299.874C158.836 299.793 158.794 299.684 158.794 299.57C158.794 299.456 158.836 299.347 158.912 299.266C158.987 299.185 159.089 299.14 159.196 299.14H235.578C235.684 299.14 235.787 299.185 235.862 299.266C235.938 299.347 235.98 299.456 235.98 299.57C235.98 299.684 235.938 299.793 235.862 299.874C235.787 299.955 235.684 300 235.578 300Z" fill="#CCCCCC"/>
<path d="M110.918 221.557L47.8923 249.213C46.8099 249.687 45.5961 249.681 44.5172 249.199C43.4384 248.716 42.5825 247.796 42.1375 246.639L22.8442 196.337C22.5199 195.489 22.5234 194.537 22.854 193.692C23.1845 192.847 23.815 192.176 24.6073 191.827L89.7639 163.236C90.5706 162.883 91.4752 162.887 92.2793 163.247C93.0833 163.606 93.7212 164.292 94.0529 165.155L113.325 215.401C113.768 216.559 113.763 217.858 113.312 219.011C112.86 220.165 112 221.081 110.918 221.557Z" fill="#E6E6E6"/>
<path d="M50.1755 243.112L105.287 218.929C106.337 218.468 107.172 217.58 107.61 216.461C108.048 215.342 108.052 214.082 107.621 212.96L92.0418 172.341C91.8287 171.785 91.5152 171.28 91.1194 170.853C90.7236 170.427 90.2531 170.088 89.7349 169.857C89.2167 169.625 88.6609 169.505 88.0993 169.502C87.5376 169.5 86.981 169.617 86.4614 169.845L31.3495 194.028C30.8299 194.256 30.3573 194.591 29.9588 195.015C29.5603 195.438 29.2437 195.941 29.0269 196.496C28.8102 197.05 28.6977 197.644 28.6958 198.245C28.6939 198.846 28.8027 199.441 29.0159 199.997L44.595 240.616C44.8082 241.172 45.1216 241.677 45.5175 242.103C45.9133 242.53 46.3837 242.868 46.9019 243.1C47.4201 243.332 47.9759 243.452 48.5376 243.454C49.0992 243.456 49.6558 243.34 50.1755 243.112Z" fill="white"/>
<path d="M91.7375 183.418L90.9272 183.774L90.9826 183.918L91.7929 183.563L91.7375 183.418Z" fill="#E6E6E6"/>
<path d="M89.3458 184.636L87.7089 185.355L87.6535 185.21L89.2904 184.492L89.3458 184.636ZM86.072 186.073L84.4351 186.791L84.3797 186.647L86.0166 185.929L86.072 186.073ZM82.7982 187.509L81.1614 188.228L81.106 188.083L82.7428 187.365L82.7982 187.509ZM79.5245 188.946L77.8876 189.664L77.8322 189.52L79.4691 188.802L79.5245 188.946ZM76.2507 190.383L74.6138 191.101L74.5584 190.956L76.1953 190.238L76.2507 190.383ZM72.9769 191.819L71.34 192.537L71.2846 192.393L72.9215 191.675L72.9769 191.819ZM69.7031 193.256L68.0663 193.974L68.0109 193.83L69.6477 193.111L69.7031 193.256ZM66.4294 194.692L64.7925 195.411L64.7371 195.266L66.374 194.548L66.4294 194.692ZM63.1556 196.129L61.5187 196.847L61.4633 196.703L63.1002 195.984L63.1556 196.129ZM59.8818 197.565L58.245 198.284L58.1896 198.139L59.8264 197.421L59.8818 197.565ZM56.608 199.002L54.9712 199.72L54.9158 199.576L56.5526 198.857L56.608 199.002ZM53.3343 200.438L51.6974 201.157L51.642 201.012L53.2789 200.294L53.3343 200.438ZM50.0605 201.875L48.4236 202.593L48.3682 202.449L50.0051 201.731L50.0605 201.875ZM46.7867 203.312L45.1498 204.03L45.0944 203.885L46.7313 203.167L46.7867 203.312ZM43.513 204.748L41.8761 205.466L41.8207 205.322L43.4575 204.604L43.513 204.748ZM40.2392 206.185L38.6023 206.903L38.5469 206.759L40.1838 206.04L40.2392 206.185Z" fill="#E6E6E6"/>
<path d="M36.9099 207.477L36.0996 207.832L36.155 207.977L36.9653 207.621L36.9099 207.477Z" fill="#E6E6E6"/>
<path d="M70.2863 208.525L69.4761 208.881L69.5315 209.025L70.3417 208.67L70.2863 208.525Z" fill="#E6E6E6"/>
<path d="M67.9188 209.733L66.3062 210.441L66.2508 210.296L67.8634 209.589L67.9188 209.733ZM64.6937 211.148L63.0811 211.856L63.0257 211.711L64.6383 211.004L64.6937 211.148ZM61.4685 212.563L59.856 213.271L59.8006 213.127L61.4131 212.419L61.4685 212.563ZM58.2434 213.979L56.6308 214.686L56.5754 214.542L58.188 213.834L58.2434 213.979ZM55.0182 215.394L53.4056 216.101L53.3502 215.957L54.9628 215.249L55.0182 215.394ZM51.7931 216.809L50.1805 217.517L50.1251 217.372L51.7377 216.665L51.7931 216.809ZM48.5679 218.224L46.9553 218.932L46.8999 218.787L48.5125 218.08L48.5679 218.224ZM45.3428 219.639L43.7302 220.347L43.6748 220.203L45.2874 219.495L45.3428 219.639Z" fill="#E6E6E6"/>
<path d="M42.0622 220.91L41.252 221.266L41.3074 221.41L42.1176 221.055L42.0622 220.91Z" fill="#E6E6E6"/>
<path d="M56.9235 221.814L56.1133 222.17L56.1687 222.314L56.9789 221.958L56.9235 221.814Z" fill="#E6E6E6"/>
<path d="M54.5096 223.042L52.8505 223.77L52.7951 223.626L54.4542 222.898L54.5096 223.042ZM51.1914 224.498L49.5323 225.226L49.4769 225.082L51.136 224.354L51.1914 224.498ZM47.8732 225.954L46.2141 226.682L46.1587 226.538L47.8178 225.81L47.8732 225.954Z" fill="#E6E6E6"/>
<path d="M44.4997 227.266L43.6895 227.621L43.7449 227.766L44.5551 227.41L44.4997 227.266Z" fill="#E6E6E6"/>
<path d="M61.0837 232.66L60.2734 233.015L60.3288 233.16L61.1391 232.804L61.0837 232.66Z" fill="#E6E6E6"/>
<path d="M58.6698 233.888L57.0107 234.616L56.9553 234.471L58.6143 233.743L58.6698 233.888ZM55.3515 235.344L53.6924 236.072L53.637 235.927L55.2961 235.199L55.3515 235.344ZM52.0333 236.8L50.3742 237.528L50.3188 237.384L51.9779 236.656L52.0333 236.8Z" fill="#E6E6E6"/>
<path d="M48.6599 238.112L47.8496 238.467L47.905 238.612L48.7153 238.256L48.6599 238.112Z" fill="#E6E6E6"/>
<path d="M52.5156 236.718L99.2192 216.224C100.349 215.726 101.249 214.77 101.721 213.563C102.192 212.357 102.197 211 101.735 209.79L92.2984 185.188L92.2071 185.231L80.7461 214.542L72.2457 210.741C72.0889 210.671 71.9189 210.64 71.749 210.651C71.5792 210.662 71.414 210.716 71.2666 210.807C71.0453 210.949 70.8741 211.166 70.7794 211.423L64.7729 226.783L58.5578 224.004C58.4237 223.944 58.2799 223.913 58.1345 223.912C57.9891 223.912 57.8451 223.942 57.7106 224.001C57.5761 224.06 57.4538 224.147 57.3506 224.256C57.2475 224.366 57.1656 224.496 57.1095 224.64C57.0698 224.744 53.2377 234.801 52.5156 236.718Z" fill="#921C00"/>
<path d="M52.372 236.95L52.2373 236.889L57.0432 224.597C57.1704 224.273 57.4128 224.016 57.7171 223.882C58.0214 223.749 58.3628 223.75 58.6664 223.885L64.7587 226.61L70.731 211.335C70.8583 211.01 71.1006 210.753 71.405 210.619C71.7093 210.486 72.0507 210.487 72.3543 210.622L80.7319 214.37L92.2519 184.905L92.3865 184.965L80.8103 214.574L72.298 210.766C72.1654 210.707 72.0231 210.676 71.8794 210.676C71.7356 210.675 71.5932 210.705 71.4602 210.763C71.3271 210.822 71.2062 210.907 71.1042 211.016C71.0022 211.124 70.9212 211.253 70.8657 211.395L64.837 226.814L58.6101 224.029C58.3422 223.91 58.041 223.909 57.7725 224.027C57.504 224.144 57.2901 224.371 57.1778 224.658L52.372 236.95Z" fill="#3F3D56"/>
<path d="M56.9514 222.979C57.5157 222.979 57.9732 222.49 57.9732 221.886C57.9732 221.283 57.5157 220.793 56.9514 220.793C56.3871 220.793 55.9297 221.283 55.9297 221.886C55.9297 222.49 56.3871 222.979 56.9514 222.979Z" fill="#3F3D56"/>
<path d="M70.3138 209.69C70.8781 209.69 71.3355 209.201 71.3355 208.598C71.3355 207.994 70.8781 207.505 70.3138 207.505C69.7495 207.505 69.292 207.994 69.292 208.598C69.292 209.201 69.7495 209.69 70.3138 209.69Z" fill="#3F3D56"/>
<path d="M91.1204 184.545C91.6847 184.545 92.1421 184.055 92.1421 183.452C92.1421 182.848 91.6847 182.359 91.1204 182.359C90.5561 182.359 90.0986 182.848 90.0986 183.452C90.0986 184.055 90.5561 184.545 91.1204 184.545Z" fill="#3F3D56"/>
<path d="M33.93 220.646C34.4612 220.363 34.9279 219.96 35.2974 219.463C35.6668 218.967 35.93 218.389 36.0683 217.772C36.2067 217.155 36.2169 216.513 36.0982 215.891C35.9794 215.27 35.7347 214.683 35.3812 214.174L38.4158 182.438H31.8577L29.446 213.426C28.6849 214.118 28.1876 215.085 28.0482 216.143C27.9089 217.201 28.1372 218.277 28.6899 219.166C29.2426 220.056 30.0813 220.699 31.0471 220.971C32.0129 221.244 33.0386 221.128 33.93 220.646Z" fill="#FFB8B8"/>
<path d="M39.9518 164.924C45.0761 164.924 49.2302 160.481 49.2302 155C49.2302 149.518 45.0761 145.075 39.9518 145.075C34.8274 145.075 30.6733 149.518 30.6733 155C30.6733 160.481 34.8274 164.924 39.9518 164.924Z" fill="#FFB8B8"/>
<path d="M41.6981 200.92C41.3267 200.92 40.9656 200.789 40.6702 200.549C40.3748 200.308 40.1614 199.97 40.0627 199.587C39.3194 196.698 37.3853 191.814 34.3145 185.069C33.6216 183.544 33.2379 181.88 33.1886 180.186C33.1392 178.491 33.4254 176.805 34.0283 175.237C34.6312 173.669 35.5372 172.255 36.6868 171.088C37.8365 169.921 39.2038 169.028 40.6991 168.466C42.1162 167.93 43.6192 167.705 45.1192 167.802C46.6192 167.899 48.0859 168.317 49.4323 169.031C50.7787 169.744 51.9775 170.74 52.9579 171.958C53.9383 173.176 54.6803 174.593 55.1401 176.123C57.5203 184.105 57.4054 192.655 57.2455 195.96C57.2256 196.358 57.0843 196.738 56.8432 197.042C56.6021 197.346 56.2744 197.557 55.9104 197.643L42.0627 200.878C41.943 200.906 41.8207 200.92 41.6981 200.92Z" fill="#FF6584"/>
<path d="M55.1082 295.16H59.7394L61.9428 276.052L55.1074 276.053L55.1082 295.16Z" fill="#FFB8B8"/>
<path d="M68.6719 299.759L54.1161 299.76L54.1159 293.745L63.0478 293.744C63.7863 293.744 64.5176 293.9 65.2 294.202C65.8823 294.504 66.5023 294.947 67.0245 295.506C67.5468 296.065 67.961 296.728 68.2437 297.457C68.5263 298.187 68.6718 298.969 68.6719 299.759Z" fill="#2F2E41"/>
<path d="M8.79688 288.74L12.8556 291.127L23.3931 275.519L17.4035 271.996L8.79688 288.74Z" fill="#FFB8B8"/>
<path d="M18.6108 299.76L5.85566 292.259L8.56503 286.988L16.3921 291.591C17.6991 292.36 18.6671 293.652 19.0832 295.184C19.4993 296.716 19.3294 298.362 18.6108 299.76Z" fill="#2F2E41"/>
<path d="M54.8921 284.554C54.4794 284.554 54.0809 284.393 53.771 284.102C53.4611 283.81 53.2609 283.408 53.2079 282.97L47.4158 235.23C47.3902 235.019 47.3029 234.822 47.1663 234.667C47.0297 234.512 46.8508 234.407 46.6553 234.367C46.4597 234.328 46.2574 234.355 46.0772 234.446C45.8971 234.536 45.7483 234.686 45.6522 234.872L21.5132 281.716C21.314 282.099 20.9931 282.392 20.6089 282.543C20.2246 282.694 19.8025 282.692 19.4193 282.538L14.1578 280.394C13.9461 280.308 13.7527 280.177 13.5889 280.01C13.4252 279.842 13.2943 279.642 13.204 279.42C13.1137 279.198 13.0658 278.958 13.0631 278.716C13.0604 278.474 13.1031 278.234 13.1884 278.009L29.9101 234.072C29.9525 233.96 29.9812 233.843 29.9955 233.724C32.2604 214.974 38.0229 205.439 39.7351 202.963C39.8601 202.781 39.9424 202.57 39.975 202.346C40.0077 202.123 39.9896 201.895 39.9224 201.681L39.687 200.926C39.593 200.626 39.5738 200.305 39.6311 199.995C39.6885 199.685 39.8205 199.396 40.0142 199.157C46.1837 191.641 56.9368 195.742 57.0447 195.785L57.0986 195.806L57.1324 195.855C69.1898 213.542 64.7318 270.989 63.7157 282.326C63.6777 282.752 63.5002 283.15 63.2144 283.449C62.9286 283.749 62.5529 283.93 62.154 283.962L55.0241 284.549C54.9798 284.553 54.9358 284.554 54.8921 284.554Z" fill="#2F2E41"/>
<path d="M76.0226 166.528C75.9762 166.746 75.946 166.967 75.9322 167.19L59.7042 177.204L55.7597 174.775L51.5547 180.663L58.1469 185.689C58.6795 186.095 59.3208 186.305 59.9746 186.288C60.6284 186.271 61.2594 186.028 61.7728 185.595L78.5067 171.474C79.2619 171.773 80.0843 171.819 80.8645 171.606C81.6448 171.393 82.3458 170.931 82.8745 170.281C83.4032 169.631 83.7344 168.825 83.8241 167.969C83.9138 167.113 83.7577 166.248 83.3767 165.489C82.9956 164.73 82.4076 164.114 81.6908 163.721C80.9741 163.328 80.1626 163.179 79.3642 163.291C78.5659 163.404 77.8185 163.774 77.2216 164.352C76.6247 164.93 76.2065 165.689 76.0226 166.528Z" fill="#FFB8B8"/>
<path d="M59.1614 177.678L53.9166 184.949C53.7673 185.156 53.5782 185.326 53.3619 185.448C53.1457 185.569 52.9076 185.64 52.6636 185.654C52.4197 185.668 52.1758 185.626 51.9484 185.531C51.7211 185.435 51.5157 185.288 51.3462 185.1L45.4087 178.505C44.4235 177.682 43.7835 176.475 43.629 175.149C43.4745 173.822 43.8181 172.484 44.5846 171.428C45.351 170.372 46.4776 169.684 47.7175 169.515C48.9573 169.346 50.2092 169.71 51.1986 170.527L58.6456 174.981C58.8588 175.108 59.0438 175.284 59.1879 175.495C59.3321 175.706 59.432 175.947 59.481 176.203C59.5299 176.459 59.5267 176.724 59.4716 176.978C59.4164 177.233 59.3106 177.472 59.1614 177.678Z" fill="#FF6584"/>
<path d="M38.8334 190.31L30.3842 188.679C30.1438 188.632 29.9156 188.531 29.7151 188.382C29.5146 188.232 29.3465 188.039 29.2224 187.814C29.0982 187.588 29.0208 187.338 28.9955 187.078C28.9702 186.818 28.9975 186.555 29.0757 186.307L31.8147 177.633C32.0437 176.319 32.7507 175.155 33.7805 174.398C34.8104 173.64 36.0791 173.35 37.3085 173.592C38.5379 173.833 39.6276 174.586 40.3387 175.686C41.0498 176.785 41.3242 178.141 41.1018 179.457L40.8345 188.579C40.8268 188.84 40.7665 189.096 40.6578 189.33C40.5492 189.564 40.3946 189.77 40.2047 189.935C40.0148 190.099 39.794 190.218 39.5573 190.282C39.3207 190.347 39.0737 190.357 38.8333 190.31H38.8334Z" fill="#FF6584"/>
<path d="M41.4201 152.717C43.8049 154.463 46.9361 156.257 49.3718 154.398C50.1336 153.778 50.6871 152.91 50.9493 151.925C51.2116 150.939 51.1684 149.89 50.8264 148.933C49.6601 145.366 46.4558 143.795 43.3917 142.591C39.4083 141.027 35.0711 139.782 30.9589 140.902C26.8467 142.023 23.2125 146.282 23.9548 150.751C24.5518 154.344 27.7212 157.335 27.2712 160.953C26.8184 164.595 22.9897 166.511 19.6095 167.162C16.2293 167.813 12.4468 168.022 10.0176 170.619C6.91876 173.932 7.6926 179.853 10.6085 183.351C13.5244 186.849 17.9247 188.434 22.1886 189.512C27.838 190.94 33.9482 191.691 39.3137 189.321C44.6792 186.951 48.8545 180.571 47.3002 174.589C46.6437 172.062 45.0971 169.926 43.6024 167.847C42.1077 165.768 40.5942 163.594 40.024 161.043C39.5489 158.917 39.9006 156.449 41.2185 154.855C41.4582 154.575 41.609 154.222 41.6494 153.846C41.6897 153.469 41.6175 153.089 41.443 152.759L41.4201 152.717Z" fill="#2F2E41"/>
<path d="M76.7839 300H0.40201C0.29539 300 0.193137 299.955 0.117746 299.874C0.0423542 299.793 0 299.684 0 299.57C0 299.456 0.0423542 299.347 0.117746 299.266C0.193137 299.185 0.29539 299.14 0.40201 299.14H76.7839C76.8905 299.14 76.9928 299.185 77.0682 299.266C77.1436 299.347 77.1859 299.456 77.1859 299.57C77.1859 299.684 77.1436 299.793 77.0682 299.874C76.9928 299.955 76.8905 300 76.7839 300Z" fill="#CCCCCC"/>
</g>
<defs>
<clipPath id="clip0_129_8">
<rect width="400" height="300" fill="white"/>
</clipPath>
</defs>
</svg>
