<svg width="279" height="151" viewBox="0 0 279 151" fill="none" xmlns="http://www.w3.org/2000/svg">
<g clip-path="url(#clip0_143_922)">
<rect width="279" height="151" fill="white"/>
<path d="M132.366 150.284H191.674C194.015 150.284 194.019 145.886 191.674 145.886H132.366C130.025 145.886 130.021 150.284 132.366 150.284Z" fill="#E6E6E6"/>
<path d="M116.354 54.7002H57.2448C56.6204 54.7011 56.0218 55.0014 55.5803 55.5351C55.1388 56.0688 54.8904 56.7925 54.8896 57.5473V71.7419C57.8381 71.8258 59.752 74.7669 60.2157 78.3372V91.2055H60.4396C60.4752 91.2056 60.5093 91.2228 60.5345 91.2532C60.5596 91.2836 60.5738 91.3248 60.5739 91.3679V98.2152C60.5738 98.2582 60.5596 98.2995 60.5345 98.3299C60.5093 98.3603 60.4752 98.3774 60.4396 98.3776H60.2157V139.764C60.2157 140.674 60.2082 142.333 60.2082 142.333H116.354C116.978 142.332 117.577 142.031 118.018 141.498C118.46 140.964 118.708 140.24 118.709 139.486V57.5473C118.708 56.7925 118.46 56.0688 118.018 55.5351C117.577 55.0014 116.978 54.7011 116.354 54.7002Z" fill="#00FF38"/>
<path d="M226.175 7.99451V85.666H122.797V51.4689C122.795 49.9161 122.285 48.4274 121.376 47.3294C120.468 46.2314 119.236 45.6139 117.952 45.6124H98.564V7.99451H226.175Z" fill="#000AFF"/>
<path d="M232.558 96.6158H122.912V96.0745H232.11V4.60076C232.109 3.52449 231.755 2.49265 231.126 1.73161C230.496 0.970571 229.643 0.542483 228.752 0.541264H94.6482C93.7579 0.542484 92.9043 0.970571 92.2748 1.73161C91.6452 2.49265 91.2911 3.52449 91.29 4.60076V45.2617H90.8423V4.60076C90.8434 3.38098 91.2448 2.21156 91.9583 1.34905C92.6718 0.486537 93.6392 0.00137279 94.6482 0H228.752C229.761 0.00137085 230.729 0.486531 231.442 1.34904C232.156 2.21155 232.557 3.38098 232.558 4.60076V96.6158Z" fill="#403D5C"/>
<path d="M222.169 113.124H122.912V112.583H222.169C224.805 112.58 227.332 111.312 229.195 109.059C231.059 106.806 232.107 103.752 232.11 100.566V96.6158H122.912V96.0746H232.558V100.566C232.555 103.895 231.46 107.088 229.512 109.442C227.564 111.796 224.923 113.121 222.169 113.124Z" fill="#3F3D56"/>
<path d="M192.711 139.646C187.178 133.224 183.538 124.844 182.368 113.124H141.588C141.173 124.088 137.556 132.311 131.032 139.618L130.342 139.647C137.074 132.272 140.781 123.989 141.15 112.843L141.158 112.583H182.766L182.789 112.822C183.939 124.74 187.655 133.174 193.324 139.603L192.711 139.646Z" fill="#3F3D56"/>
<path d="M117.844 150.843H55.0237V150.302H117.844C119.128 150.3 120.36 149.683 121.268 148.585C122.176 147.487 122.687 145.998 122.688 144.446V51.5932C122.687 50.0406 122.176 48.552 121.268 47.4541C120.36 46.3563 119.128 45.7387 117.844 45.737H55.0237C53.7393 45.7387 52.5079 46.3563 51.5997 47.4541C50.6915 48.552 50.1806 50.0406 50.1792 51.5932V71.6314H49.7314V51.5932C49.733 49.8971 50.2911 48.271 51.2833 47.0716C52.2754 45.8723 53.6206 45.1976 55.0237 45.1957H117.844C119.247 45.1976 120.592 45.8722 121.584 47.0716C122.577 48.2709 123.135 49.8971 123.136 51.5932V144.446C123.135 146.142 122.577 147.768 121.584 148.967C120.592 150.167 119.247 150.841 117.844 150.843Z" fill="#3F3D56"/>
<path d="M86.4337 52.0434C86.1334 52.0434 85.8399 51.9358 85.5902 51.7341C85.3406 51.5325 85.146 51.2459 85.0311 50.9105C84.9162 50.5752 84.8861 50.2062 84.9447 49.8502C85.0033 49.4942 85.1479 49.1672 85.3602 48.9106C85.5725 48.6539 85.843 48.4791 86.1375 48.4083C86.432 48.3375 86.7372 48.3738 87.0146 48.5127C87.292 48.6516 87.5291 48.8868 87.6959 49.1886C87.8628 49.4904 87.9518 49.8452 87.9518 50.2082C87.9513 50.6947 87.7913 51.1612 87.5066 51.5052C87.222 51.8493 86.8362 52.0428 86.4337 52.0434ZM86.4337 48.7972C86.2028 48.7972 85.9771 48.88 85.7852 49.035C85.5932 49.1901 85.4436 49.4105 85.3553 49.6683C85.2669 49.9261 85.2438 50.2098 85.2889 50.4835C85.3339 50.7572 85.4451 51.0086 85.6083 51.206C85.7716 51.4033 85.9796 51.5377 86.206 51.5921C86.4324 51.6465 86.6671 51.6186 86.8804 51.5118C87.0937 51.405 87.2759 51.2241 87.4042 50.9921C87.5325 50.76 87.6009 50.4872 87.6009 50.2082C87.6005 49.8341 87.4774 49.4755 87.2586 49.211C87.0398 48.9464 86.7431 48.7977 86.4337 48.7972Z" fill="#3F3D56"/>
<path d="M86.4337 148.769C86.0506 148.769 85.6761 148.631 85.3575 148.374C85.039 148.117 84.7907 147.751 84.644 147.323C84.4974 146.895 84.4591 146.424 84.5338 145.97C84.6085 145.516 84.793 145.099 85.0639 144.771C85.3348 144.444 85.68 144.221 86.0558 144.13C86.4315 144.04 86.821 144.086 87.175 144.263C87.529 144.441 87.8315 144.741 88.0444 145.126C88.2572 145.511 88.3708 145.964 88.3709 146.427C88.3703 147.048 88.166 147.643 87.8028 148.082C87.4397 148.521 86.9473 148.768 86.4337 148.769ZM86.4337 144.626C86.1391 144.626 85.8512 144.732 85.6063 144.93C85.3613 145.128 85.1704 145.409 85.0577 145.738C84.945 146.067 84.9155 146.429 84.973 146.778C85.0304 147.127 85.1723 147.448 85.3806 147.7C85.5889 147.952 85.8543 148.123 86.1432 148.193C86.4321 148.262 86.7316 148.226 87.0037 148.09C87.2759 147.954 87.5085 147.723 87.6721 147.427C87.8358 147.131 87.9231 146.783 87.9231 146.427C87.9226 145.949 87.7656 145.492 87.4864 145.154C87.2071 144.817 86.8286 144.627 86.4337 144.626Z" fill="#3F3D56"/>
<path d="M54.3928 151H33.5977C32.0321 150.998 30.5313 150.245 29.4243 148.907C28.3173 147.569 27.6946 145.755 27.6929 143.862V78.7691C27.6946 76.8767 28.3173 75.0625 29.4243 73.7243C30.5313 72.3862 32.0321 71.6335 33.5976 71.6313H54.3929C55.9583 71.6335 57.4592 72.3862 58.5662 73.7243C59.6732 75.0625 60.2958 76.8767 60.2976 78.7691V90.4178C60.4036 90.4714 60.4942 90.5616 60.558 90.6772C60.6217 90.7928 60.6558 90.9286 60.6559 91.0675L60.6559 98.647C60.6558 98.7859 60.6217 98.9217 60.5579 99.0373C60.4942 99.1529 60.4036 99.2431 60.2976 99.2967V143.862C60.2958 145.755 59.6731 147.569 58.5662 148.907C57.4592 150.245 55.9583 150.998 54.3928 151ZM33.5976 72.1726C32.1508 72.1746 30.7638 72.8702 29.7408 74.1069C28.7177 75.3435 28.1423 77.0202 28.1406 78.7691V143.862C28.1422 145.611 28.7177 147.288 29.7407 148.524C30.7638 149.761 32.1508 150.457 33.5976 150.459H54.3928C55.8396 150.457 57.2266 149.761 58.2497 148.524C59.2727 147.288 59.8482 145.611 59.8498 143.862V98.8094H60.0737C60.1094 98.8094 60.1435 98.7923 60.1687 98.7618C60.1939 98.7314 60.2081 98.6901 60.2081 98.647L60.2081 91.0675C60.2081 91.0244 60.1939 90.9831 60.1687 90.9526C60.1435 90.9221 60.1094 90.905 60.0737 90.9049H59.8498V78.7691C59.8482 77.0202 59.2727 75.3435 58.2497 74.1069C57.2267 72.8702 55.8396 72.1746 54.3929 72.1726H33.5976Z" fill="#3F3D56"/>
<path d="M54.6221 73.6885H51.9077C52.0325 74.0584 52.0802 74.4598 52.0464 74.8573C52.0127 75.2548 51.8986 75.6361 51.7143 75.9677C51.5299 76.2993 51.2809 76.571 50.9892 76.7589C50.6975 76.9468 50.3721 77.0451 50.0415 77.0451H38.1282C37.7977 77.0451 37.4723 76.9468 37.1806 76.7589C36.8889 76.571 36.6399 76.2993 36.4555 75.9677C36.2712 75.6361 36.1571 75.2548 36.1234 74.8573C36.0896 74.4598 36.1373 74.0584 36.2621 73.6885H33.7268C32.6016 73.6885 31.5226 74.2288 30.727 75.1905C29.9314 76.1523 29.4844 77.4567 29.4844 78.8168V143.814C29.4844 145.174 29.9313 146.479 30.727 147.441C31.5226 148.402 32.6016 148.943 33.7268 148.943H54.6222C55.7473 148.943 56.8264 148.402 57.622 147.441C58.4176 146.479 58.8646 145.174 58.8646 143.814V78.8168C58.8646 77.4567 58.4176 76.1523 57.622 75.1905C56.8264 74.2288 55.7473 73.6885 54.6221 73.6885Z" fill="#FF0303"/>
<path d="M278.733 150.894H0.266492C0.23141 150.894 0.196652 150.886 0.164206 150.87C0.131761 150.854 0.102265 150.83 0.0774161 150.8C0.0525674 150.77 0.0328528 150.735 0.0194001 150.695C0.00594734 150.656 -0.000976562 150.614 -0.000976562 150.572C-0.000976562 150.529 0.00594734 150.487 0.0194001 150.448C0.0328528 150.409 0.0525674 150.374 0.0774161 150.344C0.102265 150.314 0.131761 150.29 0.164206 150.274C0.196652 150.258 0.23141 150.249 0.266492 150.25H278.733C278.768 150.249 278.803 150.258 278.836 150.274C278.868 150.29 278.898 150.314 278.922 150.344C278.947 150.374 278.967 150.409 278.98 150.448C278.994 150.487 279.001 150.529 279.001 150.572C279.001 150.614 278.994 150.656 278.98 150.695C278.967 150.735 278.947 150.77 278.922 150.8C278.898 150.83 278.868 150.854 278.836 150.87C278.803 150.886 278.768 150.894 278.733 150.894Z" fill="#3F3D56"/>
<path d="M192.85 150.742H130.835C130.217 150.743 129.606 150.596 129.035 150.311C128.464 150.026 127.945 149.607 127.508 149.079C127.071 148.552 126.725 147.925 126.488 147.235C126.252 146.545 126.13 145.806 126.13 145.059C126.13 144.312 126.252 143.573 126.488 142.883C126.725 142.193 127.071 141.567 127.508 141.039C127.945 140.511 128.464 140.092 129.035 139.807C129.606 139.522 130.217 139.375 130.835 139.376H192.85C194.096 139.377 195.291 139.976 196.172 141.042C197.053 142.108 197.548 143.553 197.548 145.059C197.548 146.566 197.053 148.01 196.172 149.076C195.291 150.142 194.096 150.741 192.85 150.742ZM130.835 139.917C129.707 139.917 128.625 140.459 127.827 141.423C127.03 142.387 126.581 143.695 126.581 145.059C126.581 146.423 127.03 147.731 127.827 148.695C128.625 149.659 129.707 150.201 130.835 150.201H192.85C193.978 150.201 195.06 149.659 195.858 148.695C196.655 147.731 197.104 146.423 197.104 145.059C197.104 143.695 196.655 142.387 195.858 141.423C195.06 140.459 193.978 139.917 192.85 139.917H130.835Z" fill="#3F3D56"/>
</g>
<defs>
<clipPath id="clip0_143_922">
<rect width="279" height="151" fill="white"/>
</clipPath>
</defs>
</svg>
