<svg width="245" height="145" viewBox="0 0 245 145" fill="none" xmlns="http://www.w3.org/2000/svg">
<path d="M239.195 125.35H66.0517C64.5119 125.35 63.0353 124.83 61.9465 123.904C60.8577 122.978 60.2461 121.722 60.2461 120.412C123.01 114.207 184.595 114.207 245 120.412C245 121.722 244.388 122.978 243.3 123.904C242.211 124.83 240.734 125.35 239.195 125.35Z" fill="#2F2E41"/>
<path d="M245 120.702L60.2461 120.412L81.6584 89.7642L81.7609 89.6189V22.0751C81.7608 21.2553 81.9506 20.4434 82.3194 19.686C82.6882 18.9285 83.2287 18.2403 83.9102 17.6606C84.5917 17.0809 85.4008 16.621 86.2912 16.3073C87.1817 15.9936 88.136 15.8322 89.0998 15.8323H215.122C216.086 15.8322 217.04 15.9936 217.93 16.3073C218.821 16.621 219.63 17.0809 220.311 17.6606C220.993 18.2403 221.534 18.9285 221.902 19.686C222.271 20.4434 222.461 21.2553 222.461 22.0751V90.0837L245 120.702Z" fill="#3F3D56"/>
<path d="M88.9325 20.1897C88.2987 20.1903 87.6911 20.4047 87.2429 20.786C86.7948 21.1672 86.5427 21.6841 86.542 22.2232V83.809C86.5427 84.3481 86.7948 84.865 87.243 85.2462C87.6911 85.6274 88.2987 85.8419 88.9325 85.8425H216.314C216.947 85.8418 217.555 85.6274 218.003 85.2462C218.451 84.865 218.704 84.3481 218.704 83.809V22.2232C218.704 21.6841 218.451 21.1672 218.003 20.786C217.555 20.4048 216.948 20.1903 216.314 20.1897H88.9325Z" fill="white"/>
<path d="M89.4662 93.9763C89.2703 93.9766 89.0787 94.0245 88.9137 94.1144C88.7488 94.2043 88.6176 94.3323 88.5354 94.4836L81.9376 106.685C81.8657 106.817 81.8343 106.963 81.8462 107.109C81.8581 107.255 81.9129 107.396 82.0056 107.519C82.0983 107.642 82.2258 107.743 82.3766 107.813C82.5273 107.884 82.6964 107.92 82.8682 107.92H221.617C221.791 107.92 221.963 107.882 222.116 107.81C222.268 107.738 222.396 107.633 222.488 107.507C222.58 107.381 222.632 107.236 222.64 107.088C222.648 106.939 222.611 106.792 222.533 106.659L215.361 94.458C215.277 94.313 215.146 94.191 214.984 94.1059C214.822 94.0207 214.636 93.9758 214.445 93.9763H89.4662Z" fill="#2F2E41"/>
<path d="M152.111 19.1728C152.959 19.1728 153.647 18.5876 153.647 17.8656C153.647 17.1436 152.959 16.5583 152.111 16.5583C151.262 16.5583 150.574 17.1436 150.574 17.8656C150.574 18.5876 151.262 19.1728 152.111 19.1728Z" fill="white"/>
<path d="M138.473 110.244C138.248 110.244 138.029 110.308 137.85 110.424C137.671 110.541 137.543 110.704 137.484 110.889L135.829 116.118C135.788 116.247 135.782 116.383 135.813 116.514C135.843 116.645 135.909 116.769 136.005 116.875C136.1 116.981 136.223 117.067 136.364 117.126C136.505 117.185 136.661 117.216 136.818 117.216H168.292C168.456 117.216 168.617 117.183 168.762 117.119C168.907 117.056 169.032 116.963 169.127 116.85C169.221 116.737 169.283 116.606 169.306 116.469C169.329 116.331 169.314 116.191 169.26 116.06L167.132 110.831C167.063 110.659 166.932 110.511 166.758 110.406C166.585 110.301 166.377 110.244 166.164 110.244H138.473Z" fill="#2F2E41"/>
<path d="M222.461 88.6021V89.7639H81.6582L81.7642 89.6189V88.6021H222.461Z" fill="#2F2E41"/>
<path d="M153.905 74.6698C167.108 74.6698 177.811 65.5656 177.811 54.3349C177.811 43.1042 167.108 34 153.905 34C140.703 34 130 43.1042 130 54.3349C130 65.5656 140.703 74.6698 153.905 74.6698Z" fill="#2A58FC"/>
<path d="M163.173 61.1914H143.366C143.004 61.1911 142.657 61.0686 142.4 60.8507C142.144 60.6329 142 60.3375 142 60.0294V49.8619C142 49.5539 142.144 49.2585 142.401 49.0407C142.657 48.8228 143.004 48.7003 143.366 48.7H163.173C163.535 48.7003 163.883 48.8228 164.139 49.0407C164.395 49.2585 164.539 49.5539 164.539 49.8619V60.0294C164.539 60.3375 164.395 60.6329 164.139 60.8507C163.883 61.0686 163.535 61.1911 163.173 61.1914ZM143.366 49.862V60.0294H163.174L163.173 49.8619L143.366 49.862Z" fill="white"/>
<path d="M159.294 49.8679H147V45.2199C147 41.8533 149.585 39.4099 153.147 39.4099C156.709 39.4099 159.294 41.8533 159.294 45.2199L159.294 49.8679ZM148.366 48.7059H157.928V45.2199C157.928 42.4833 155.962 40.5719 153.147 40.5719C150.332 40.5719 148.366 42.4833 148.366 45.2199L148.366 48.7059Z" fill="white"/>
<path d="M153.536 55.824C154.29 55.824 154.902 55.3037 154.902 54.662C154.902 54.0202 154.29 53.5 153.536 53.5C152.782 53.5 152.17 54.0202 152.17 54.662C152.17 55.3037 152.782 55.824 153.536 55.824Z" fill="white"/>
<path d="M118.697 58.5359C122.798 58.5359 126.123 55.7076 126.123 52.2189C126.123 48.7301 122.798 45.9019 118.697 45.9019C114.596 45.9019 111.271 48.7301 111.271 52.2189C111.271 55.7076 114.596 58.5359 118.697 58.5359Z" fill="#E6E6E6"/>
</svg>
