<svg width="270" height="177" viewBox="0 0 270 177" fill="none" xmlns="http://www.w3.org/2000/svg">
<g clip-path="url(#clip0_26_100)">
<line x1="230.8" y1="64.0801" x2="230.8" y2="46.4201" stroke="black"/>
<line x1="250.376" y1="70.6" x2="259.366" y2="55.3993" stroke="black"/>
<line x1="214.457" y1="69.5985" x2="201.458" y2="57.6449" stroke="black"/>
<path d="M224.523 76.3337C224.523 76.3337 218.176 79.3012 220.003 82.6798C221.83 86.0585 247.777 83.2941 247.777 83.2941C247.777 83.2941 245.95 78.6869 242.66 77.7655C239.371 76.844 224.523 76.3337 224.523 76.3337Z" fill="#F34A50"/>
<path d="M222.049 77.1249C223.325 76.4279 224.743 75.9351 226.232 75.6712C231.198 74.6594 236.398 74.7957 241.28 76.0656L241.191 76.0045C243.27 76.9272 245.096 78.2068 246.55 79.7604L222.049 77.1249Z" fill="#CCCCCC"/>
<path d="M250.16 91.6545C250.072 92.7572 249.984 93.8588 249.897 94.9594C249.776 97.2647 249.477 99.5609 249.001 101.833C248.555 103.735 247.846 105.621 246.578 107.239C245.31 108.855 243.428 110.191 241.199 110.682C239.83 110.958 238.407 110.984 237.025 110.759C234.42 109.515 232.655 111.106 235.257 112.725C235.847 113.092 236.461 113.431 237.095 113.742L238.275 129.059L216.348 125.066L220.628 104.69C219.972 104.189 219.373 103.639 218.837 103.047C216.385 100.31 215.541 96.744 215.702 93.3223C215.866 89.8976 216.951 86.5589 218.03 83.2571C218.304 82.3613 218.636 81.4785 219.024 80.6125C219.502 80.7784 219.988 80.9289 220.482 81.0548C223.635 81.8596 226.987 81.9241 230.283 81.921C236.148 81.9179 242.007 81.7254 247.857 81.3436C249.202 83.204 250.018 85.2996 250.244 87.4681C250.338 88.8634 250.31 90.2627 250.16 91.6545Z" fill="#CCCCCC"/>
<path d="M48.3999 140.763C48.3994 141.813 48.6388 142.854 49.1052 143.828C49.2843 144.206 49.4982 144.572 49.7447 144.922C50.0632 145.378 50.4328 145.808 50.8484 146.206C51.7665 147.085 52.8973 147.789 54.1653 148.272C55.4333 148.755 56.8093 149.004 58.2012 149.004H201.205C203.804 149.004 206.297 148.136 208.135 146.591C209.973 145.046 211.006 142.951 211.006 140.766C211.006 138.581 209.973 136.486 208.135 134.941C206.297 133.396 203.804 132.528 201.205 132.528H58.2012C55.6032 132.53 53.1122 133.399 51.2748 134.942C49.4373 136.486 48.4034 138.579 48.3999 140.763Z" fill="#E6E6E6"/>
<path d="M0 145.468C3.17474 148.63 6.60857 151.601 10.2764 154.36H259.724C263.391 151.601 266.825 148.63 270 145.468H0Z" fill="#3F3D56"/>
<path d="M67.6665 115.733V147.235H93.9239V115.733C93.9244 115.507 93.8384 115.286 93.6785 115.104C93.5187 114.921 93.2934 114.787 93.0359 114.72C92.9145 114.686 92.7873 114.67 92.6595 114.671H68.9346C68.7683 114.67 68.6035 114.698 68.4498 114.751C68.296 114.804 68.1563 114.882 68.0385 114.981C67.9207 115.08 67.8272 115.197 67.7634 115.326C67.6996 115.455 67.6667 115.594 67.6665 115.733ZM77.9137 126.557C77.9205 125.936 78.2188 125.343 78.7438 124.906C79.2687 124.468 79.9777 124.223 80.7166 124.223C81.4556 124.223 82.1646 124.468 82.6895 124.906C83.2144 125.343 83.5128 125.936 83.5196 126.557V130.212C83.5158 130.835 83.2189 131.431 82.6936 131.87C82.1684 132.31 81.4576 132.556 80.7166 132.556C79.9757 132.556 79.2649 132.31 78.7397 131.87C78.2144 131.431 77.9174 130.835 77.9137 130.212V126.557Z" fill="#2F2E41"/>
<path d="M67.5859 146.227V149.265C67.5865 149.422 67.6609 149.573 67.793 149.684C67.925 149.796 68.104 149.859 68.2912 149.861H93.2988C93.4862 149.86 93.6656 149.797 93.7978 149.685C93.93 149.573 94.0042 149.422 94.0041 149.265V146.227H67.5859Z" fill="#3F3D56"/>
<path d="M26.3599 68.2727V125.789C26.3606 126.522 26.7073 127.225 27.324 127.743C27.9406 128.262 28.7768 128.553 29.6489 128.554H131.061C131.933 128.553 132.769 128.262 133.386 127.743C134.002 127.225 134.349 126.522 134.35 125.789V68.2727C134.348 67.5404 134 66.8386 133.384 66.3211C132.767 65.8035 131.932 65.5124 131.061 65.5115H29.6489C28.7776 65.5124 27.9422 65.8035 27.3257 66.3211C26.7092 66.8386 26.3619 67.5404 26.3599 68.2727Z" fill="#3F3D56"/>
<path d="M28.7388 68.9885V125.08C28.7396 125.471 28.925 125.847 29.2545 126.124C29.584 126.401 30.0306 126.556 30.4966 126.557H130.216C130.682 126.556 131.129 126.401 131.458 126.124C131.788 125.847 131.973 125.471 131.974 125.08V68.9885C131.974 68.5964 131.789 68.2203 131.459 67.9428C131.13 67.6653 130.683 67.5089 130.216 67.5081H30.4966C30.0301 67.5089 29.583 67.6653 29.2534 67.9428C28.9239 68.2203 28.7388 68.5964 28.7388 68.9885Z" fill="#ADADAD"/>
<path d="M49.0721 150.576C49.1736 150.683 49.3026 150.769 49.4495 150.828C49.5963 150.887 49.7572 150.918 49.92 150.917H109.247C109.409 150.917 109.569 150.886 109.716 150.827C109.862 150.769 109.991 150.683 110.093 150.577C110.195 150.472 110.268 150.348 110.306 150.215C110.345 150.083 110.347 149.945 110.314 149.811L109.393 146.135C109.355 145.985 109.273 145.845 109.154 145.729C109.035 145.612 108.884 145.523 108.713 145.468C108.59 145.427 108.458 145.407 108.326 145.407H50.8372C50.7047 145.407 50.5733 145.427 50.4499 145.468C50.2794 145.523 50.1279 145.612 50.0092 145.729C49.8905 145.845 49.8083 145.985 49.7701 146.135L48.8492 149.811C48.8164 149.945 48.8194 150.082 48.858 150.215C48.8965 150.347 48.9697 150.47 49.0721 150.576Z" fill="#2F2E41"/>
<path d="M106.255 146.99H107.726C107.824 146.99 107.904 146.923 107.904 146.841V146.219C107.904 146.136 107.824 146.069 107.726 146.069H106.255C106.157 146.069 106.077 146.136 106.077 146.219V146.841C106.077 146.923 106.157 146.99 106.255 146.99Z" fill="#3F3D56"/>
<path d="M102.601 146.99H104.072C104.17 146.99 104.25 146.923 104.25 146.841V146.219C104.25 146.136 104.17 146.069 104.072 146.069H102.601C102.503 146.069 102.423 146.136 102.423 146.219V146.841C102.423 146.923 102.503 146.99 102.601 146.99Z" fill="#3F3D56"/>
<path d="M98.9469 146.99H100.417C100.516 146.99 100.596 146.923 100.596 146.841V146.219C100.596 146.136 100.516 146.069 100.417 146.069H98.9469C98.8483 146.069 98.7685 146.136 98.7685 146.219V146.841C98.7685 146.923 98.8483 146.99 98.9469 146.99Z" fill="#3F3D56"/>
<path d="M95.2921 146.99H96.7625C96.861 146.99 96.9409 146.923 96.9409 146.841V146.219C96.9409 146.136 96.861 146.069 96.7625 146.069H95.2921C95.1936 146.069 95.1137 146.136 95.1137 146.219V146.841C95.1137 146.923 95.1936 146.99 95.2921 146.99Z" fill="#3F3D56"/>
<path d="M91.6378 146.99H93.1082C93.2067 146.99 93.2866 146.923 93.2866 146.841V146.219C93.2866 146.136 93.2067 146.069 93.1082 146.069H91.6378C91.5393 146.069 91.4594 146.136 91.4594 146.219V146.841C91.4594 146.923 91.5393 146.99 91.6378 146.99Z" fill="#3F3D56"/>
<path d="M87.9835 146.99H89.4539C89.5524 146.99 89.6323 146.923 89.6323 146.841V146.219C89.6323 146.136 89.5524 146.069 89.4539 146.069H87.9835C87.885 146.069 87.8051 146.136 87.8051 146.219V146.841C87.8051 146.923 87.885 146.99 87.9835 146.99Z" fill="#3F3D56"/>
<path d="M84.3287 146.99H85.7991C85.8977 146.99 85.9775 146.923 85.9775 146.841V146.219C85.9775 146.136 85.8977 146.069 85.7991 146.069H84.3287C84.2302 146.069 84.1503 146.136 84.1503 146.219V146.841C84.1503 146.923 84.2302 146.99 84.3287 146.99Z" fill="#3F3D56"/>
<path d="M80.6744 146.99H82.1448C82.2434 146.99 82.3232 146.923 82.3232 146.841V146.219C82.3232 146.136 82.2434 146.069 82.1448 146.069H80.6744C80.5759 146.069 80.496 146.136 80.496 146.219V146.841C80.496 146.923 80.5759 146.99 80.6744 146.99Z" fill="#3F3D56"/>
<path d="M77.0201 146.99H78.4905C78.5891 146.99 78.6689 146.923 78.6689 146.841V146.219C78.6689 146.136 78.5891 146.069 78.4905 146.069H77.0201C76.9216 146.069 76.8417 146.136 76.8417 146.219V146.841C76.8417 146.923 76.9216 146.99 77.0201 146.99Z" fill="#3F3D56"/>
<path d="M73.3653 146.99H74.8358C74.9343 146.99 75.0142 146.923 75.0142 146.841V146.219C75.0142 146.136 74.9343 146.069 74.8358 146.069H73.3653C73.2668 146.069 73.1869 146.136 73.1869 146.219V146.841C73.1869 146.923 73.2668 146.99 73.3653 146.99Z" fill="#3F3D56"/>
<path d="M69.711 146.99H71.1815C71.28 146.99 71.3599 146.923 71.3599 146.841V146.219C71.3599 146.136 71.28 146.069 71.1815 146.069H69.711C69.6125 146.069 69.5326 146.136 69.5326 146.219V146.841C69.5326 146.923 69.6125 146.99 69.711 146.99Z" fill="#3F3D56"/>
<path d="M66.0567 146.99H67.5272C67.6257 146.99 67.7056 146.923 67.7056 146.841V146.219C67.7056 146.136 67.6257 146.069 67.5272 146.069H66.0567C65.9582 146.069 65.8783 146.136 65.8783 146.219V146.841C65.8783 146.923 65.9582 146.99 66.0567 146.99Z" fill="#3F3D56"/>
<path d="M62.402 146.99H63.8724C63.9709 146.99 64.0508 146.923 64.0508 146.841V146.219C64.0508 146.136 63.9709 146.069 63.8724 146.069H62.402C62.3034 146.069 62.2235 146.136 62.2235 146.219V146.841C62.2235 146.923 62.3034 146.99 62.402 146.99Z" fill="#3F3D56"/>
<path d="M58.7477 146.99H60.2181C60.3166 146.99 60.3965 146.923 60.3965 146.841V146.219C60.3965 146.136 60.3166 146.069 60.2181 146.069H58.7477C58.6491 146.069 58.5692 146.136 58.5692 146.219V146.841C58.5692 146.923 58.6491 146.99 58.7477 146.99Z" fill="#3F3D56"/>
<path d="M55.0934 146.99H56.5638C56.6623 146.99 56.7422 146.923 56.7422 146.841V146.219C56.7422 146.136 56.6623 146.069 56.5638 146.069H55.0934C54.9948 146.069 54.915 146.136 54.915 146.219V146.841C54.915 146.923 54.9948 146.99 55.0934 146.99Z" fill="#3F3D56"/>
<path d="M51.4386 146.99H52.909C53.0075 146.99 53.0874 146.923 53.0874 146.841V146.219C53.0874 146.136 53.0075 146.069 52.909 146.069H51.4386C51.34 146.069 51.2602 146.136 51.2602 146.219V146.841C51.2602 146.923 51.34 146.99 51.4386 146.99Z" fill="#3F3D56"/>
<path d="M106.299 148.526H107.769C107.868 148.526 107.948 148.459 107.948 148.376V147.755C107.948 147.672 107.868 147.605 107.769 147.605H106.299C106.2 147.605 106.121 147.672 106.121 147.755V148.376C106.121 148.459 106.2 148.526 106.299 148.526Z" fill="#3F3D56"/>
<path d="M102.645 148.526H104.115C104.214 148.526 104.293 148.459 104.293 148.376V147.755C104.293 147.672 104.214 147.605 104.115 147.605H102.645C102.546 147.605 102.466 147.672 102.466 147.755V148.376C102.466 148.459 102.546 148.526 102.645 148.526Z" fill="#3F3D56"/>
<path d="M98.9898 148.526H100.46C100.559 148.526 100.639 148.459 100.639 148.376V147.755C100.639 147.672 100.559 147.605 100.46 147.605H98.9898C98.8913 147.605 98.8114 147.672 98.8114 147.755V148.376C98.8114 148.459 98.8913 148.526 98.9898 148.526Z" fill="#3F3D56"/>
<path d="M95.3355 148.526H96.806C96.9045 148.526 96.9844 148.459 96.9844 148.376V147.755C96.9844 147.672 96.9045 147.605 96.806 147.605H95.3355C95.237 147.605 95.1571 147.672 95.1571 147.755V148.376C95.1571 148.459 95.237 148.526 95.3355 148.526Z" fill="#3F3D56"/>
<path d="M91.6812 148.526H93.1517C93.2502 148.526 93.3301 148.459 93.3301 148.376V147.755C93.3301 147.672 93.2502 147.605 93.1517 147.605H91.6812C91.5827 147.605 91.5028 147.672 91.5028 147.755V148.376C91.5028 148.459 91.5827 148.526 91.6812 148.526Z" fill="#3F3D56"/>
<path d="M88.0265 148.526H89.4969C89.5954 148.526 89.6753 148.459 89.6753 148.376V147.755C89.6753 147.672 89.5954 147.605 89.4969 147.605H88.0265C87.9279 147.605 87.8481 147.672 87.8481 147.755V148.376C87.8481 148.459 87.9279 148.526 88.0265 148.526Z" fill="#3F3D56"/>
<path d="M84.3722 148.526H85.8426C85.9411 148.526 86.021 148.459 86.021 148.376V147.755C86.021 147.672 85.9411 147.605 85.8426 147.605H84.3722C84.2736 147.605 84.1938 147.672 84.1938 147.755V148.376C84.1938 148.459 84.2736 148.526 84.3722 148.526Z" fill="#3F3D56"/>
<path d="M80.7179 148.526H82.1883C82.2868 148.526 82.3667 148.459 82.3667 148.376V147.755C82.3667 147.672 82.2868 147.605 82.1883 147.605H80.7179C80.6193 147.605 80.5395 147.672 80.5395 147.755V148.376C80.5395 148.459 80.6193 148.526 80.7179 148.526Z" fill="#3F3D56"/>
<path d="M77.0631 148.526H78.5335C78.632 148.526 78.7119 148.459 78.7119 148.376V147.755C78.7119 147.672 78.632 147.605 78.5335 147.605H77.0631C76.9646 147.605 76.8847 147.672 76.8847 147.755V148.376C76.8847 148.459 76.9646 148.526 77.0631 148.526Z" fill="#3F3D56"/>
<path d="M73.4088 148.526H74.8792C74.9777 148.526 75.0576 148.459 75.0576 148.376V147.755C75.0576 147.672 74.9777 147.605 74.8792 147.605H73.4088C73.3103 147.605 73.2304 147.672 73.2304 147.755V148.376C73.2304 148.459 73.3103 148.526 73.4088 148.526Z" fill="#3F3D56"/>
<path d="M69.7545 148.526H71.2249C71.3234 148.526 71.4033 148.459 71.4033 148.376V147.755C71.4033 147.672 71.3234 147.605 71.2249 147.605H69.7545C69.656 147.605 69.5761 147.672 69.5761 147.755V148.376C69.5761 148.459 69.656 148.526 69.7545 148.526Z" fill="#3F3D56"/>
<path d="M66.0997 148.526H67.5701C67.6687 148.526 67.7485 148.459 67.7485 148.376V147.755C67.7485 147.672 67.6687 147.605 67.5701 147.605H66.0997C66.0012 147.605 65.9213 147.672 65.9213 147.755V148.376C65.9213 148.459 66.0012 148.526 66.0997 148.526Z" fill="#3F3D56"/>
<path d="M62.4454 148.526H63.9158C64.0144 148.526 64.0942 148.459 64.0942 148.376V147.755C64.0942 147.672 64.0144 147.605 63.9158 147.605H62.4454C62.3469 147.605 62.267 147.672 62.267 147.755V148.376C62.267 148.459 62.3469 148.526 62.4454 148.526Z" fill="#3F3D56"/>
<path d="M58.7906 148.526H60.261C60.3596 148.526 60.4395 148.459 60.4395 148.376V147.755C60.4395 147.672 60.3596 147.605 60.261 147.605H58.7906C58.6921 147.605 58.6122 147.672 58.6122 147.755V148.376C58.6122 148.459 58.6921 148.526 58.7906 148.526Z" fill="#3F3D56"/>
<path d="M55.1363 148.526H56.6067C56.7053 148.526 56.7852 148.459 56.7852 148.376V147.755C56.7852 147.672 56.7053 147.605 56.6067 147.605H55.1363C55.0378 147.605 54.9579 147.672 54.9579 147.755V148.376C54.9579 148.459 55.0378 148.526 55.1363 148.526Z" fill="#3F3D56"/>
<path d="M51.482 148.526H52.9525C53.051 148.526 53.1309 148.459 53.1309 148.376V147.755C53.1309 147.672 53.051 147.605 52.9525 147.605H51.482C51.3835 147.605 51.3036 147.672 51.3036 147.755V148.376C51.3036 148.459 51.3835 148.526 51.482 148.526Z" fill="#3F3D56"/>
<path d="M75.9668 150.369H90.2278C90.3264 150.369 90.4062 150.302 90.4062 150.219V149.598C90.4062 149.515 90.3264 149.448 90.2278 149.448H75.9668C75.8682 149.448 75.7884 149.515 75.7884 149.598V150.219C75.7884 150.302 75.8682 150.369 75.9668 150.369Z" fill="#3F3D56"/>
<path d="M35.5075 75.2348H128.815C128.912 75.233 129.004 75.1994 129.072 75.1411C129.14 75.0828 129.178 75.0045 129.178 74.9229C129.178 74.8414 129.14 74.7631 129.072 74.7048C129.004 74.6465 128.912 74.6129 128.815 74.6111H35.5075C35.4105 74.6129 35.3182 74.6465 35.2504 74.7048C35.1825 74.7631 35.1445 74.8414 35.1445 74.9229C35.1445 75.0045 35.1825 75.0828 35.2504 75.1411C35.3182 75.1994 35.4105 75.233 35.5075 75.2348Z" fill="#3F3D56"/>
<path d="M122.463 73.0188C123.664 73.0188 124.638 72.1823 124.638 71.1504C124.638 70.1185 123.664 69.282 122.463 69.282C121.262 69.282 120.289 70.1185 120.289 71.1504C120.289 72.1823 121.262 73.0188 122.463 73.0188Z" fill="#3F3D56"/>
<path d="M114.951 73.0188C116.152 73.0188 117.126 72.1823 117.126 71.1504C117.126 70.1185 116.152 69.282 114.951 69.282C113.75 69.282 112.777 70.1185 112.777 71.1504C112.777 72.1823 113.75 73.0188 114.951 73.0188Z" fill="#3F3D56"/>
<path d="M107.439 73.0188C108.64 73.0188 109.614 72.1823 109.614 71.1504C109.614 70.1185 108.64 69.282 107.439 69.282C106.238 69.282 105.265 70.1185 105.265 71.1504C105.265 72.1823 106.238 73.0188 107.439 73.0188Z" fill="#3F3D56"/>
<path d="M39.6328 70.0851C39.6326 70.1292 39.6427 70.173 39.6626 70.2139C39.6824 70.2548 39.7117 70.292 39.7487 70.3234C39.7857 70.3547 39.8297 70.3797 39.8781 70.3968C39.9266 70.4139 39.9786 70.4227 40.0312 70.4229H45.3667C45.4722 70.4209 45.5725 70.3842 45.6462 70.3208C45.7199 70.2574 45.7612 70.1722 45.7612 70.0835C45.7612 69.9949 45.7199 69.9097 45.6462 69.8463C45.5725 69.7829 45.4722 69.7462 45.3667 69.7441H40.0312C39.9246 69.7452 39.823 69.7817 39.7483 69.8456C39.6737 69.9094 39.6322 69.9956 39.6328 70.0851Z" fill="#3F3D56"/>
<path d="M39.6328 71.3595C39.6326 71.4037 39.6427 71.4474 39.6626 71.4883C39.6824 71.5292 39.7117 71.5664 39.7487 71.5978C39.7857 71.6292 39.8297 71.6541 39.8781 71.6712C39.9266 71.6883 39.9786 71.6972 40.0312 71.6974H45.3667C45.4722 71.6954 45.5727 71.6588 45.6465 71.5953C45.7203 71.5319 45.7617 71.4467 45.7617 71.358C45.7617 71.2692 45.7203 71.184 45.6465 71.1206C45.5727 71.0571 45.4722 71.0205 45.3667 71.0186H40.0312C39.9246 71.0196 39.823 71.0561 39.7483 71.12C39.6737 71.1839 39.6322 71.27 39.6328 71.3595Z" fill="#3F3D56"/>
<path d="M39.6328 72.6313C39.6322 72.7208 39.6737 72.807 39.7483 72.8708C39.823 72.9347 39.9246 72.9712 40.0312 72.9723H45.3667C45.4722 72.9702 45.5725 72.9335 45.6462 72.8701C45.7199 72.8067 45.7612 72.7215 45.7612 72.6329C45.7612 72.5442 45.7199 72.459 45.6462 72.3956C45.5725 72.3322 45.4722 72.2955 45.3667 72.2935H40.0312C39.9786 72.2936 39.9266 72.3025 39.8781 72.3196C39.8297 72.3367 39.7857 72.3617 39.7487 72.393C39.7117 72.4244 39.6824 72.4616 39.6626 72.5025C39.6427 72.5434 39.6326 72.5872 39.6328 72.6313Z" fill="#3F3D56"/>
<path d="M41.2817 82.4824H39.3645C38.7832 82.4824 38.312 82.8785 38.312 83.367C38.312 83.8555 38.7832 84.2516 39.3645 84.2516H41.2817C41.863 84.2516 42.3342 83.8555 42.3342 83.367C42.3342 82.8785 41.863 82.4824 41.2817 82.4824Z" fill="black"/>
<path d="M63.2084 82.4824H61.2912C60.71 82.4824 60.2388 82.8785 60.2388 83.367C60.2388 83.8555 60.71 84.2516 61.2912 84.2516H63.2084C63.7897 84.2516 64.2609 83.8555 64.2609 83.367C64.2609 82.8785 63.7897 82.4824 63.2084 82.4824Z" fill="#E6E6E6"/>
<path d="M69.4213 82.4824H67.5041C66.9229 82.4824 66.4517 82.8785 66.4517 83.367C66.4517 83.8555 66.9229 84.2516 67.5041 84.2516H69.4213C70.0026 84.2516 70.4738 83.8555 70.4738 83.367C70.4738 82.8785 70.0026 82.4824 69.4213 82.4824Z" fill="#E6E6E6"/>
<path d="M57.2446 82.335H45.3288C44.7476 82.335 44.2764 82.731 44.2764 83.2195C44.2764 83.7081 44.7476 84.1041 45.3288 84.1041H57.2446C57.8258 84.1041 58.297 83.7081 58.297 83.2195C58.297 82.731 57.8258 82.335 57.2446 82.335Z" fill="black"/>
<path d="M86.4804 82.335H74.5647C73.9834 82.335 73.5122 82.731 73.5122 83.2195C73.5122 83.7081 73.9834 84.1041 74.5647 84.1041H86.4804C87.0617 84.1041 87.5329 83.7081 87.5329 83.2195C87.5329 82.731 87.0617 82.335 86.4804 82.335Z" fill="#E6E6E6"/>
<path d="M47.1289 86.4753H45.2117C44.6304 86.4753 44.1592 86.8714 44.1592 87.3599C44.1592 87.8484 44.6304 88.2445 45.2117 88.2445H47.1289C47.7101 88.2445 48.1813 87.8484 48.1813 87.3599C48.1813 86.8714 47.7101 86.4753 47.1289 86.4753Z" fill="black"/>
<path d="M69.0556 86.4753H67.1384C66.5572 86.4753 66.0859 86.8714 66.0859 87.3599C66.0859 87.8484 66.5572 88.2445 67.1384 88.2445H69.0556C69.6369 88.2445 70.1081 87.8484 70.1081 87.3599C70.1081 86.8714 69.6369 86.4753 69.0556 86.4753Z" fill="#E6E6E6"/>
<path d="M75.2685 86.4753H73.3513C72.77 86.4753 72.2988 86.8714 72.2988 87.3599C72.2988 87.8484 72.77 88.2445 73.3513 88.2445H75.2685C75.8498 88.2445 76.321 87.8484 76.321 87.3599C76.321 86.8714 75.8498 86.4753 75.2685 86.4753Z" fill="#E6E6E6"/>
<path d="M63.0917 86.3281H51.176C50.5947 86.3281 50.1235 86.7242 50.1235 87.2127C50.1235 87.7012 50.5947 88.0973 51.176 88.0973H63.0917C63.673 88.0973 64.1442 87.7012 64.1442 87.2127C64.1442 86.7242 63.673 86.3281 63.0917 86.3281Z" fill="black"/>
<path d="M92.3276 86.3281H80.4119C79.8306 86.3281 79.3594 86.7242 79.3594 87.2127C79.3594 87.7012 79.8306 88.0973 80.4119 88.0973H92.3276C92.9088 88.0973 93.38 87.7012 93.38 87.2127C93.38 86.7242 92.9088 86.3281 92.3276 86.3281Z" fill="#E6E6E6"/>
<path d="M52.976 90.4685H51.0588C50.4776 90.4685 50.0063 90.8645 50.0063 91.3531C50.0063 91.8416 50.4776 92.2377 51.0588 92.2377H52.976C53.5573 92.2377 54.0285 91.8416 54.0285 91.3531C54.0285 90.8645 53.5573 90.4685 52.976 90.4685Z" fill="black"/>
<path d="M74.9028 90.4685H72.9856C72.4043 90.4685 71.9331 90.8645 71.9331 91.3531C71.9331 91.8416 72.4043 92.2377 72.9856 92.2377H74.9028C75.4841 92.2377 75.9553 91.8416 75.9553 91.3531C75.9553 90.8645 75.4841 90.4685 74.9028 90.4685Z" fill="#E6E6E6"/>
<path d="M81.1157 90.4685H79.1985C78.6172 90.4685 78.146 90.8645 78.146 91.3531C78.146 91.8416 78.6172 92.2377 79.1985 92.2377H81.1157C81.6969 92.2377 82.1682 91.8416 82.1682 91.3531C82.1682 90.8645 81.6969 90.4685 81.1157 90.4685Z" fill="#E6E6E6"/>
<path d="M68.9389 90.3208H57.0232C56.4419 90.3208 55.9707 90.7168 55.9707 91.2054C55.9707 91.6939 56.4419 92.0899 57.0232 92.0899H68.9389C69.5202 92.0899 69.9914 91.6939 69.9914 91.2054C69.9914 90.7168 69.5202 90.3208 68.9389 90.3208Z" fill="#E6E6E6"/>
<path d="M98.1747 90.3208H86.259C85.6778 90.3208 85.2065 90.7168 85.2065 91.2054C85.2065 91.6939 85.6778 92.0899 86.259 92.0899H98.1747C98.756 92.0899 99.2272 91.6939 99.2272 91.2054C99.2272 90.7168 98.756 90.3208 98.1747 90.3208Z" fill="#E6E6E6"/>
<path d="M58.8232 94.4609H56.906C56.3247 94.4609 55.8535 94.857 55.8535 95.3455C55.8535 95.834 56.3247 96.2301 56.906 96.2301H58.8232C59.4045 96.2301 59.8757 95.834 59.8757 95.3455C59.8757 94.857 59.4045 94.4609 58.8232 94.4609Z" fill="#E6E6E6"/>
<path d="M80.75 94.4609H78.8328C78.2515 94.4609 77.7803 94.857 77.7803 95.3455C77.7803 95.834 78.2515 96.2301 78.8328 96.2301H80.75C81.3312 96.2301 81.8024 95.834 81.8024 95.3455C81.8024 94.857 81.3312 94.4609 80.75 94.4609Z" fill="#E6E6E6"/>
<path d="M86.9628 94.4609H85.0456C84.4644 94.4609 83.9932 94.857 83.9932 95.3455C83.9932 95.834 84.4644 96.2301 85.0456 96.2301H86.9628C87.5441 96.2301 88.0153 95.834 88.0153 95.3455C88.0153 94.857 87.5441 94.4609 86.9628 94.4609Z" fill="#E6E6E6"/>
<path d="M74.7861 94.3137H62.8704C62.2891 94.3137 61.8179 94.7098 61.8179 95.1983C61.8179 95.6868 62.2891 96.0829 62.8704 96.0829H74.7861C75.3673 96.0829 75.8385 95.6868 75.8385 95.1983C75.8385 94.7098 75.3673 94.3137 74.7861 94.3137Z" fill="#E6E6E6"/>
<path d="M63.2084 110.339H61.2912C60.71 110.339 60.2388 110.735 60.2388 111.223C60.2388 111.712 60.71 112.108 61.2912 112.108H63.2084C63.7897 112.108 64.2609 111.712 64.2609 111.223C64.2609 110.735 63.7897 110.339 63.2084 110.339Z" fill="black"/>
<path d="M69.4213 110.339H67.5041C66.9229 110.339 66.4517 110.735 66.4517 111.223C66.4517 111.712 66.9229 112.108 67.5041 112.108H69.4213C70.0026 112.108 70.4738 111.712 70.4738 111.223C70.4738 110.735 70.0026 110.339 69.4213 110.339Z" fill="black"/>
<path d="M86.4804 110.486H74.5647C73.9834 110.486 73.5122 110.882 73.5122 111.371C73.5122 111.859 73.9834 112.255 74.5647 112.255H86.4804C87.0617 112.255 87.5329 111.859 87.5329 111.371C87.5329 110.882 87.0617 110.486 86.4804 110.486Z" fill="#E6E6E6"/>
<path d="M41.2817 110.339H39.3645C38.7832 110.339 38.312 110.735 38.312 111.223C38.312 111.712 38.7832 112.108 39.3645 112.108H41.2817C41.863 112.108 42.3342 111.712 42.3342 111.223C42.3342 110.735 41.863 110.339 41.2817 110.339Z" fill="black"/>
<path d="M57.2446 110.486H45.3288C44.7476 110.486 44.2764 110.882 44.2764 111.371C44.2764 111.859 44.7476 112.255 45.3288 112.255H57.2446C57.8258 112.255 58.297 111.859 58.297 111.371C58.297 110.882 57.8258 110.486 57.2446 110.486Z" fill="#E6E6E6"/>
<path d="M47.1289 106.346H45.2117C44.6304 106.346 44.1592 106.742 44.1592 107.23C44.1592 107.719 44.6304 108.115 45.2117 108.115H47.1289C47.7101 108.115 48.1813 107.719 48.1813 107.23C48.1813 106.742 47.7101 106.346 47.1289 106.346Z" fill="black"/>
<path d="M69.0556 106.346H67.1384C66.5572 106.346 66.0859 106.742 66.0859 107.23C66.0859 107.719 66.5572 108.115 67.1384 108.115H69.0556C69.6369 108.115 70.1081 107.719 70.1081 107.23C70.1081 106.742 69.6369 106.346 69.0556 106.346Z" fill="black"/>
<path d="M75.2685 106.346H73.3513C72.77 106.346 72.2988 106.742 72.2988 107.23C72.2988 107.719 72.77 108.115 73.3513 108.115H75.2685C75.8498 108.115 76.321 107.719 76.321 107.23C76.321 106.742 75.8498 106.346 75.2685 106.346Z" fill="black"/>
<path d="M63.0917 106.493H51.176C50.5947 106.493 50.1235 106.889 50.1235 107.378C50.1235 107.866 50.5947 108.262 51.176 108.262H63.0917C63.673 108.262 64.1442 107.866 64.1442 107.378C64.1442 106.889 63.673 106.493 63.0917 106.493Z" fill="#E6E6E6"/>
<path d="M52.976 102.353H51.0588C50.4776 102.353 50.0063 102.749 50.0063 103.237C50.0063 103.726 50.4776 104.122 51.0588 104.122H52.976C53.5573 104.122 54.0285 103.726 54.0285 103.237C54.0285 102.749 53.5573 102.353 52.976 102.353Z" fill="black"/>
<path d="M74.9028 102.353H72.9856C72.4043 102.353 71.9331 102.749 71.9331 103.237C71.9331 103.726 72.4043 104.122 72.9856 104.122H74.9028C75.4841 104.122 75.9553 103.726 75.9553 103.237C75.9553 102.749 75.4841 102.353 74.9028 102.353Z" fill="black"/>
<path d="M81.1157 102.353H79.1985C78.6172 102.353 78.146 102.749 78.146 103.237C78.146 103.726 78.6172 104.122 79.1985 104.122H81.1157C81.6969 104.122 82.1682 103.726 82.1682 103.237C82.1682 102.749 81.6969 102.353 81.1157 102.353Z" fill="#E6E6E6"/>
<path d="M68.9389 102.5H57.0232C56.4419 102.5 55.9707 102.897 55.9707 103.385C55.9707 103.874 56.4419 104.27 57.0232 104.27H68.9389C69.5202 104.27 69.9914 103.874 69.9914 103.385C69.9914 102.897 69.5202 102.5 68.9389 102.5Z" fill="#E6E6E6"/>
<path d="M58.8232 98.3601H56.906C56.3247 98.3601 55.8535 98.7561 55.8535 99.2447C55.8535 99.7332 56.3247 100.129 56.906 100.129H58.8232C59.4045 100.129 59.8757 99.7332 59.8757 99.2447C59.8757 98.7561 59.4045 98.3601 58.8232 98.3601Z" fill="black"/>
<path d="M80.75 98.3601H78.8328C78.2515 98.3601 77.7803 98.7561 77.7803 99.2447C77.7803 99.7332 78.2515 100.129 78.8328 100.129H80.75C81.3312 100.129 81.8024 99.7332 81.8024 99.2447C81.8024 98.7561 81.3312 98.3601 80.75 98.3601Z" fill="#E6E6E6"/>
<path d="M86.9628 98.3601H85.0456C84.4644 98.3601 83.9932 98.7561 83.9932 99.2447C83.9932 99.7332 84.4644 100.129 85.0456 100.129H86.9628C87.5441 100.129 88.0153 99.7332 88.0153 99.2447C88.0153 98.7561 87.5441 98.3601 86.9628 98.3601Z" fill="#E6E6E6"/>
<path d="M74.7861 98.5076H62.8704C62.2891 98.5076 61.8179 98.9036 61.8179 99.3921C61.8179 99.8807 62.2891 100.277 62.8704 100.277H74.7861C75.3673 100.277 75.8385 99.8807 75.8385 99.3921C75.8385 98.9036 75.3673 98.5076 74.7861 98.5076Z" fill="#E6E6E6"/>
<path d="M34.3887 168.022C34.6116 168.118 34.8382 168.213 35.0611 168.305C40.8352 170.731 45.4544 172.111 51.773 173.622C52.3066 168.615 52.8219 159.815 53.3225 154.36C53.4541 152.945 53.5857 151.756 53.7136 150.917C53.7458 150.472 53.8541 150.032 54.0352 149.612L54.0132 150.917L53.9584 154.36L53.6405 174.052C61.5003 175.8 69.5743 176.778 77.7016 176.967C78.1255 176.976 78.5421 176.982 78.9441 176.988C79.0866 176.991 79.2255 176.994 79.3643 176.994C79.8212 176.997 80.2743 177 80.7311 177C89.2957 177.006 97.8293 176.136 106.144 174.411C105.965 169.457 105.786 160.755 105.614 154.36C105.578 153.11 105.545 151.946 105.508 150.917C105.439 148.718 105.366 147.133 105.297 146.602C105.358 146.696 105.406 146.796 105.439 146.9C105.778 148.224 106.008 149.567 106.13 150.917C106.258 151.946 106.386 153.11 106.513 154.36C107.193 161.004 107.902 170.037 108.633 173.867C112.984 172.869 117.252 171.635 121.413 170.172C123.605 169.405 125.759 168.576 127.874 167.688C127.472 165.476 127.052 162.997 126.62 160.427C126.284 158.433 125.937 156.385 125.583 154.36C125.034 151.234 116.889 129.383 116.373 128.554C115.931 127.844 115.511 127.175 115.112 126.557C114.148 125.059 113.329 123.864 112.722 123.108C110.186 119.875 106.41 117.468 102.022 116.286L101.912 116.262L101.836 116.29L94.3623 114.361L93.2697 114.078L92.5351 113.888L89.9477 112.232L88.5408 111.332L87.2215 110.488L84.6414 108.838L68.6677 109.664L65.5577 115.958L58.5923 118.099L58.4717 118.053L58.3657 118.016L58.2561 118.04C53.8684 119.223 50.0931 121.629 47.5558 124.862C47.2123 125.295 46.7957 125.866 46.3242 126.557C45.9222 127.144 45.4837 127.814 45.0086 128.554C44.3325 129.607 43.5943 130.796 42.8123 132.083C42.6405 132.366 42.4651 132.654 42.2897 132.946C41.9644 133.487 41.6343 134.039 41.2993 134.602C40.5209 135.907 39.7169 137.271 38.913 138.656C38.2149 139.857 37.5096 142.326 36.8153 145.469C36.2415 148.079 35.6714 151.157 35.1196 154.36C34.396 158.513 35.1671 163.486 34.513 167.307C34.4727 167.549 34.4289 167.786 34.3887 168.022Z" fill="#3F3D56"/>
<path opacity="0.2" d="M110.946 145.455L107.841 135.383L105.099 144.074L110.946 145.455Z" fill="black"/>
<path d="M28.3149 138.892C29.4259 151.755 28.2747 157.419 34.4069 168.025C39.9864 170.32 45.7981 172.193 51.773 173.621C52.3943 173.769 53.0168 173.912 53.6405 174.051C61.5003 175.799 69.5743 176.777 77.7015 176.966C78.1255 176.975 78.5421 176.981 78.9441 176.987C79.0866 176.99 79.2255 176.994 79.3643 176.994C79.8211 176.997 80.2743 177 80.7311 177C89.2957 177.005 97.8293 176.136 106.144 174.41C106.978 174.238 107.807 174.057 108.633 173.867C112.983 172.869 117.252 171.634 121.413 170.172C123.605 169.404 125.759 168.576 127.874 167.687C128.353 167.484 128.831 167.282 129.303 167.073C131.726 163.491 133.103 159.136 133.133 153.902C131.455 144.884 32.0206 131.115 28.3149 138.892Z" fill="#2F2E41"/>
<path opacity="0.2" d="M28.3177 141.095C28.261 140.298 28.1975 139.476 28.1235 138.619C31.8292 130.842 131.264 144.612 132.941 153.63C132.937 154.456 132.895 155.259 132.824 156.042C128.762 147.141 34.2974 134.054 28.3177 141.095Z" fill="black"/>
<path d="M5.7848 145.338C5.94581 145.732 6.25122 146.073 6.6572 146.312C7.06317 146.551 7.54882 146.676 8.04441 146.668L17.7258 146.459C18.225 146.451 18.7077 146.307 19.1016 146.049C19.4956 145.791 19.7797 145.433 19.9115 145.029L21.2815 132.716C21.7676 132.901 22.2967 132.992 22.8302 132.983C23.7659 132.963 24.6537 132.631 25.2985 132.061C25.9433 131.491 26.2924 130.729 26.2689 129.942C26.2454 129.156 25.8513 128.41 25.1733 127.867C24.4952 127.325 23.5887 127.031 22.653 127.05C22.4398 127.05 22.2271 127.068 22.0185 127.106C21.7917 126.9 21.5161 126.736 21.2093 126.624C20.9025 126.513 20.5714 126.457 20.2373 126.46L5.34514 126.783C5.2216 126.787 5.09869 126.8 4.97779 126.821C4.65121 126.873 4.34145 126.982 4.06938 127.142C3.7973 127.302 3.56922 127.51 3.40048 127.75C3.23175 127.991 3.12627 128.259 3.09116 128.536C3.05604 128.814 3.09209 129.095 3.1969 129.36L5.7848 145.338ZM21.5624 131.88L22.5373 128.946C22.6482 128.607 22.6508 128.249 22.5448 127.909C22.5921 127.909 22.6338 127.89 22.6811 127.89C23.3495 127.879 23.9962 128.09 24.4793 128.479C24.9623 128.867 25.2424 129.401 25.258 129.963C25.2737 130.524 25.0237 131.068 24.5628 131.476C24.1019 131.883 23.4677 132.119 22.7993 132.134C22.3672 132.145 21.9396 132.058 21.5624 131.88Z" fill="#2F2E41"/>
<path d="M4.97803 126.821C5.2953 128.346 8.8624 129.418 13.1516 129.231C17.0957 129.079 20.3207 127.915 20.9116 126.535C20.6929 126.481 20.4655 126.455 20.2376 126.459L5.34537 126.783C5.22184 126.786 5.09893 126.799 4.97803 126.821Z" fill="#3F3D56"/>
<path d="M13.9374 138.572C13.957 138.568 13.9757 138.561 13.9926 138.552L16.095 137.395C16.1205 137.381 16.1413 137.362 16.1558 137.34C16.1703 137.317 16.1778 137.292 16.1779 137.267C16.1779 137.241 16.1703 137.216 16.1559 137.194C16.1414 137.171 16.1206 137.152 16.0952 137.138L13.9099 135.935C13.8898 135.924 13.8673 135.916 13.8437 135.912C13.8201 135.909 13.7958 135.909 13.7723 135.913C13.7487 135.917 13.7264 135.925 13.7065 135.936C13.6866 135.948 13.6695 135.962 13.6564 135.979C13.6432 135.996 13.6341 136.015 13.6296 136.035C13.6252 136.055 13.6254 136.075 13.6304 136.095C13.6353 136.115 13.6449 136.133 13.6585 136.15C13.6721 136.167 13.6895 136.181 13.7096 136.192L15.6615 137.266L13.7926 138.295C13.7564 138.315 13.7297 138.345 13.7174 138.379C13.7051 138.414 13.7079 138.452 13.7253 138.485C13.7426 138.518 13.7735 138.545 13.8123 138.561C13.8512 138.577 13.8955 138.581 13.9374 138.572H13.9374Z" fill="#F34A50"/>
<path d="M10.6166 138.701C10.6519 138.693 10.6837 138.677 10.7079 138.654C10.7322 138.631 10.7478 138.603 10.7528 138.573C10.7577 138.542 10.7518 138.511 10.7357 138.484C10.7197 138.456 10.6942 138.434 10.6627 138.418L8.72467 137.485L10.5978 136.315C10.6171 136.303 10.6333 136.288 10.6456 136.271C10.6579 136.254 10.6661 136.234 10.6695 136.214C10.673 136.194 10.6718 136.174 10.666 136.155C10.6601 136.135 10.6498 136.117 10.6355 136.101C10.6212 136.084 10.6032 136.071 10.5826 136.06C10.5621 136.05 10.5393 136.043 10.5155 136.04C10.4918 136.037 10.4676 136.038 10.4444 136.043C10.4211 136.048 10.3993 136.057 10.38 136.069L8.28284 137.378C8.25847 137.393 8.23898 137.413 8.22614 137.436C8.2133 137.46 8.20752 137.485 8.2093 137.51C8.21108 137.536 8.22039 137.561 8.23636 137.582C8.25234 137.604 8.27449 137.622 8.30081 137.635L10.4808 138.685C10.5219 138.705 10.5706 138.71 10.6166 138.701Z" fill="#F34A50"/>
<path d="M13.7281 139.586C13.7458 139.582 13.7627 139.576 13.7782 139.568C13.7987 139.558 13.8166 139.544 13.8308 139.528C13.845 139.511 13.8552 139.493 13.8609 139.473C13.8666 139.454 13.8676 139.433 13.8639 139.413C13.8602 139.393 13.8519 139.374 13.8394 139.357L10.859 135.239C10.8337 135.204 10.7931 135.179 10.7461 135.17C10.6991 135.16 10.6495 135.167 10.6082 135.188C10.5669 135.209 10.5373 135.243 10.5258 135.283C10.5143 135.322 10.5218 135.364 10.5468 135.399L13.5272 139.517C13.5475 139.545 13.578 139.567 13.6142 139.579C13.6503 139.592 13.6903 139.594 13.7281 139.586Z" fill="#F34A50"/>
<path d="M245.218 122.302H212.693V146.259H245.218V122.302Z" fill="#3F3D56"/>
<path d="M250.04 88.8379C249.437 91.8414 249.966 94.9282 251.554 97.6661C252.142 98.6732 252.87 99.8863 252.154 100.833C251.953 101.07 251.692 101.266 251.39 101.406C251.087 101.547 250.751 101.63 250.406 101.647C249.715 101.678 249.024 101.603 248.365 101.425" fill="#CCCCCC"/>
<path d="M221.465 79.608C222.07 79.608 222.561 79.2642 222.561 78.8401C222.561 78.4161 222.07 78.0723 221.465 78.0723C220.859 78.0723 220.368 78.4161 220.368 78.8401C220.368 79.2642 220.859 79.608 221.465 79.608Z" fill="#3F3D56"/>
<path d="M225.485 79.9154C226.09 79.9154 226.581 79.5716 226.581 79.1475C226.581 78.7234 226.09 78.3796 225.485 78.3796C224.879 78.3796 224.388 78.7234 224.388 79.1475C224.388 79.5716 224.879 79.9154 225.485 79.9154Z" fill="#3F3D56"/>
<path d="M229.505 81.4513C230.11 81.4513 230.601 81.1075 230.601 80.6834C230.601 80.2593 230.11 79.9155 229.505 79.9155C228.899 79.9155 228.408 80.2593 228.408 80.6834C228.408 81.1075 228.899 81.4513 229.505 81.4513Z" fill="#3F3D56"/>
<path d="M234.255 80.5299C234.861 80.5299 235.351 80.1861 235.351 79.762C235.351 79.3379 234.861 78.9941 234.255 78.9941C233.65 78.9941 233.159 79.3379 233.159 79.762C233.159 80.1861 233.65 80.5299 234.255 80.5299Z" fill="#3F3D56"/>
<path d="M134.461 95.0832C139.785 93.8408 145.716 95.1723 149.831 98.2222C152.051 99.8791 153.68 102.021 154.537 104.411C155.588 107.254 155.762 110.254 155.872 113.21C155.993 116.479 156.099 119.748 156.212 123.017C156.32 126.133 156.333 129.265 156.58 132.376C156.788 134.987 157.285 137.697 158.948 139.962C160.489 142.061 162.924 143.479 165.676 144.26C168.466 145.052 171.473 145.237 174.399 145.221C177.804 145.211 181.204 144.985 184.568 144.544C190.959 143.683 197.271 141.489 201.174 136.961C202.971 134.905 203.981 132.438 204.069 129.888C204.152 126.916 203.022 124.038 201.785 121.293C200.581 118.622 199.278 115.991 198.516 113.198C197.808 110.585 197.471 107.91 197.511 105.23C197.577 99.8681 199.106 94.5904 201.981 89.8035C203.436 87.345 205.281 85.064 207.467 83.0232C209.722 80.9617 212.513 79.2598 215.832 78.7019C217.452 78.4198 219.13 78.4765 220.718 78.867C221.395 79.0374 221.684 78.1484 221.009 77.9785C217.721 77.1509 214.148 77.7801 211.233 79.2164C208.366 80.6287 206.101 82.7473 204.178 84.9937C200.484 89.3979 198.025 94.4481 196.985 99.7653C195.945 105.082 196.352 110.528 198.174 115.695C200.125 121.066 204.369 126.658 202.546 132.471C200.95 137.56 195.423 141.018 189.712 142.58C186.248 143.528 182.616 143.928 178.993 144.136C175.932 144.311 172.829 144.423 169.776 144.092C166.972 143.788 164.088 143.068 161.914 141.486C159.531 139.752 158.442 137.26 157.967 134.703C157.431 131.81 157.51 128.827 157.409 125.907L157.063 115.942C156.868 110.314 157.036 104.077 152.68 99.4135C150.938 97.5964 148.726 96.1371 146.212 95.1466C143.698 94.1561 140.949 93.6606 138.173 93.6976C136.819 93.7238 135.474 93.8907 134.169 94.1947C134.034 94.2304 133.92 94.309 133.852 94.414C133.784 94.5189 133.767 94.642 133.804 94.7572C133.842 94.8725 133.932 94.9708 134.054 95.0317C134.177 95.0925 134.322 95.1109 134.461 95.0832H134.461Z" fill="#3F3D56"/>
<path d="M56.6322 89.2541C57.4083 93.8951 60.3448 98.0874 64.7965 100.91C69.2482 103.732 74.8509 104.954 80.3736 104.306C85.8964 103.659 90.8874 101.195 94.25 97.4561C97.6126 93.7175 99.0717 89.0098 98.3068 84.3674L98.2652 84.1166C97.3752 79.5368 94.379 75.4346 89.9228 72.6949C85.4666 69.9552 79.9075 68.7975 74.4449 69.4716C68.9822 70.1457 64.0537 72.5975 60.7226 76.2982C57.3915 79.9989 55.9247 84.6518 56.6386 89.2533L56.6322 89.2541Z" fill="#FFB6B6"/>
<path d="M75.1792 103.876C74.0914 102.034 72.9737 100.057 73.2692 98.0159C73.5647 95.975 75.9373 94.0183 78.2772 94.618C79.6764 94.9766 80.7375 96.1337 82.1988 96.189C84.2095 96.265 85.3544 94.328 85.9738 92.7184L88.4962 86.1632C93.3615 89.3756 87.1997 86.0078 93.2266 84.8318C95.591 84.3704 97.9779 83.4772 99.3593 81.7997C100.741 80.1222 100.722 77.5262 98.8131 76.266C97.8772 75.6481 96.6338 75.4159 95.739 74.7562C95.184 74.347 94.8005 73.7985 94.6452 73.1919C94.4899 72.5852 94.5711 71.9527 94.8767 71.3878C95.1824 70.823 95.6963 70.3559 96.3424 70.0556C96.9885 69.7553 97.7325 69.6378 98.4642 69.7205L92.0446 69.0645L93.9449 66.1528C92.571 67.0694 90.6541 67.1976 88.9267 66.9412C87.1992 66.6848 85.5709 66.0919 83.8804 65.6982C75.7648 63.8084 66.355 67.1605 62.3272 73.3763C60.7464 72.9376 59.0442 72.913 57.4463 73.3056C55.8484 73.6983 54.4302 74.4897 53.3796 75.5751C51.6691 77.4124 51.2117 79.859 51.1544 82.1914C51.0478 86.7902 52.2589 91.3431 54.6855 95.4659C55.4419 96.7471 56.3358 98.004 57.6213 98.9412C58.9069 99.8784 73.4348 105.07 75.1114 104.825" fill="#2F2E41"/>
<path d="M226.946 91.7406C226.949 92.5378 226.827 93.332 226.584 94.1026V94.1056C226.581 94.121 226.573 94.1364 226.57 94.1517C225.832 96.4338 224.07 98.0371 222.013 98.0371C219.966 98.0371 218.212 96.4461 217.463 94.1824C217.412 94.0258 217.368 93.8691 217.328 93.7064C217.276 93.5251 217.236 93.3378 217.203 93.1443C217.174 92.9907 217.152 92.8341 217.134 92.6743C217.108 92.4532 217.09 92.232 217.086 92.0017V91.9986C217.079 91.9126 217.079 91.8266 217.079 91.7406V91.6638L217.083 91.6608C217.083 91.2715 217.114 90.8826 217.174 90.4967C217.2 90.3339 217.229 90.1772 217.265 90.0206C217.309 89.8302 217.357 89.6428 217.415 89.4585C217.463 89.2957 217.518 89.1391 217.576 88.9824C217.657 88.7736 217.744 88.5708 217.843 88.3773C217.905 88.2514 217.971 88.1286 218.037 88.0088C218.936 86.4546 220.383 85.4441 222.013 85.4441C224.267 85.4441 226.168 87.376 226.756 90.0114C226.763 90.0513 226.774 90.0912 226.778 90.1312V90.1342C226.891 90.6644 226.947 91.202 226.946 91.7406Z" fill="#E6E6E6"/>
<path d="M218.066 88.1437C218.064 88.2 218.041 88.254 218 88.2965C217.96 88.3391 217.904 88.3675 217.843 88.3771C217.9 88.2512 217.961 88.1283 218.022 88.0085C218.05 88.049 218.066 88.0958 218.066 88.1437Z" fill="#F34A50"/>
<path d="M222.405 87.864H219.189C219.032 87.864 218.905 87.9709 218.905 88.1027C218.905 88.2346 219.032 88.3415 219.189 88.3415H222.405C222.562 88.3415 222.689 88.2346 222.689 88.1027C222.689 87.9709 222.562 87.864 222.405 87.864Z" fill="#F34A50"/>
<path d="M217.985 89.2187C217.985 89.2822 217.955 89.3431 217.902 89.388C217.848 89.4329 217.776 89.4582 217.7 89.4583H217.415C217.463 89.2955 217.517 89.1388 217.576 88.9822H217.7C217.775 88.9821 217.847 89.0069 217.9 89.0512C217.954 89.0955 217.984 89.1557 217.985 89.2187Z" fill="#F34A50"/>
<path d="M219.379 88.9817H218.861C218.704 88.9817 218.577 89.0886 218.577 89.2204C218.577 89.3523 218.704 89.4592 218.861 89.4592H219.379C219.536 89.4592 219.663 89.3523 219.663 89.2204C219.663 89.0886 219.536 88.9817 219.379 88.9817Z" fill="#F34A50"/>
<path d="M223.983 88.9417H220.767C220.61 88.9417 220.483 89.0485 220.483 89.1804C220.483 89.3122 220.61 89.4191 220.767 89.4191H223.983C224.14 89.4191 224.267 89.3122 224.267 89.1804C224.267 89.0485 224.14 88.9417 223.983 88.9417Z" fill="#F34A50"/>
<path d="M219.28 90.0593H218.763C218.606 90.0593 218.479 90.1662 218.479 90.2981C218.479 90.4299 218.606 90.5368 218.763 90.5368H219.28C219.437 90.5368 219.564 90.4299 219.564 90.2981C219.564 90.1662 219.437 90.0593 219.28 90.0593Z" fill="#F34A50"/>
<path d="M220.957 90.0593H220.439C220.282 90.0593 220.155 90.1662 220.155 90.2981C220.155 90.4299 220.282 90.5368 220.439 90.5368H220.957C221.114 90.5368 221.241 90.4299 221.241 90.2981C221.241 90.1662 221.114 90.0593 220.957 90.0593Z" fill="#F34A50"/>
<path d="M217.956 90.257C217.956 90.3205 217.926 90.3814 217.873 90.4263C217.819 90.4712 217.747 90.4965 217.671 90.4966H217.174C217.2 90.3338 217.229 90.1772 217.266 90.0205H217.671C217.709 90.0202 217.745 90.0261 217.78 90.0378C217.814 90.0496 217.846 90.0669 217.872 90.0889C217.899 90.1109 217.92 90.1371 217.934 90.1659C217.949 90.1948 217.956 90.2257 217.956 90.257Z" fill="#F34A50"/>
<path d="M225.561 90.0193H222.345C222.188 90.0193 222.061 90.1262 222.061 90.258C222.061 90.3899 222.188 90.4968 222.345 90.4968H225.561C225.718 90.4968 225.845 90.3899 225.845 90.258C225.845 90.1262 225.718 90.0193 225.561 90.0193Z" fill="#F34A50"/>
<path d="M218.084 91.8294C218.084 91.8607 218.076 91.8917 218.062 91.9205C218.048 91.9494 218.027 91.9755 218 91.9975C217.974 92.0195 217.942 92.0369 217.908 92.0486C217.873 92.0603 217.836 92.0662 217.799 92.0659H217.284C217.211 92.0662 217.14 92.0431 217.086 92.0014V91.9983C217.079 91.9123 217.079 91.8263 217.079 91.7403V91.6636L217.083 91.6605C217.109 91.6381 217.14 91.6203 217.175 91.6082C217.209 91.596 217.246 91.5898 217.284 91.5898H217.799C217.875 91.5899 217.947 91.6152 218 91.6601C218.054 91.705 218.084 91.7659 218.084 91.8294Z" fill="#CCCCCC"/>
<path d="M222.405 91.55H219.189C219.032 91.55 218.905 91.6569 218.905 91.7888C218.905 91.9206 219.032 92.0275 219.189 92.0275H222.405C222.562 92.0275 222.689 91.9206 222.689 91.7888C222.689 91.6569 222.562 91.55 222.405 91.55Z" fill="#CCCCCC"/>
<path d="M217.985 92.9045C217.985 92.968 217.955 93.0289 217.902 93.0738C217.848 93.1187 217.776 93.144 217.7 93.144H217.203C217.174 92.9905 217.152 92.8338 217.134 92.6741C217.15 92.6691 217.168 92.667 217.185 92.668H217.7C217.775 92.6679 217.847 92.6927 217.901 92.737C217.954 92.7812 217.984 92.8414 217.985 92.9045Z" fill="#CCCCCC"/>
<path d="M219.379 92.6672H218.861C218.704 92.6672 218.577 92.7741 218.577 92.906C218.577 93.0378 218.704 93.1447 218.861 93.1447H219.379C219.536 93.1447 219.663 93.0378 219.663 92.906C219.663 92.7741 219.536 92.6672 219.379 92.6672Z" fill="#CCCCCC"/>
<path d="M223.983 92.6277H220.767C220.61 92.6277 220.483 92.7346 220.483 92.8664C220.483 92.9983 220.61 93.1052 220.767 93.1052H223.983C224.14 93.1052 224.267 92.9983 224.267 92.8664C224.267 92.7346 224.14 92.6277 223.983 92.6277Z" fill="#CCCCCC"/>
<path d="M219.28 93.7449H218.763C218.606 93.7449 218.479 93.8518 218.479 93.9836C218.479 94.1155 218.606 94.2223 218.763 94.2223H219.28C219.437 94.2223 219.564 94.1155 219.564 93.9836C219.564 93.8518 219.437 93.7449 219.28 93.7449Z" fill="#CCCCCC"/>
<path d="M220.957 93.7449H220.439C220.282 93.7449 220.155 93.8518 220.155 93.9836C220.155 94.1155 220.282 94.2223 220.439 94.2223H220.957C221.114 94.2223 221.241 94.1155 221.241 93.9836C221.241 93.8518 221.114 93.7449 220.957 93.7449Z" fill="#CCCCCC"/>
<path d="M217.956 93.9426C217.956 94.0061 217.926 94.067 217.873 94.1119C217.819 94.1568 217.747 94.1821 217.671 94.1821H217.463C217.412 94.0255 217.368 93.8689 217.328 93.7061H217.671C217.708 93.7058 217.745 93.7116 217.78 93.7234C217.814 93.7351 217.846 93.7525 217.872 93.7745C217.899 93.7965 217.92 93.8226 217.934 93.8515C217.949 93.8803 217.956 93.9113 217.956 93.9426Z" fill="#CCCCCC"/>
<path d="M225.561 93.7053H222.345C222.188 93.7053 222.061 93.8122 222.061 93.9441C222.061 94.0759 222.188 94.1828 222.345 94.1828H225.561C225.718 94.1828 225.845 94.0759 225.845 93.9441C225.845 93.8122 225.718 93.7053 225.561 93.7053Z" fill="#CCCCCC"/>
</g>
<defs>
<clipPath id="clip0_26_100">
<rect width="270" height="177" fill="white"/>
</clipPath>
</defs>
</svg>
