<svg width="502" height="315" viewBox="0 0 502 315" fill="none" xmlns="http://www.w3.org/2000/svg">
<g clip-path="url(#clip0_139_234)">
<path d="M444.867 295.924H83.0343C79.8166 295.924 76.7306 294.704 74.4554 292.532C72.1801 290.36 70.9019 287.415 70.9019 284.344C202.066 269.794 330.765 269.794 456.999 284.344C456.999 287.415 455.721 290.36 453.446 292.532C451.17 294.704 448.084 295.924 444.867 295.924Z" fill="#2F2E41"/>
<path d="M456.999 285.025L70.9019 284.344L115.649 212.481L115.863 212.14V53.7621C115.863 51.8397 116.26 49.9361 117.03 48.16C117.801 46.384 118.931 44.7702 120.355 43.4109C121.779 42.0516 123.47 40.9733 125.331 40.2377C127.192 39.5021 129.186 39.1236 131.2 39.1238H394.56C396.574 39.1236 398.568 39.5021 400.429 40.2377C402.29 40.9733 403.981 42.0516 405.405 43.4109C406.829 44.7702 407.959 46.384 408.73 48.16C409.5 49.9361 409.897 51.8397 409.897 53.7621V213.23L456.999 285.025Z" fill="#3F3D56"/>
<path d="M130.85 49.3413C129.525 49.3427 128.255 49.8455 127.319 50.7395C126.382 51.6334 125.855 52.8453 125.854 54.1095V198.518C125.856 199.782 126.382 200.994 127.319 201.888C128.255 202.782 129.525 203.285 130.85 203.286H397.051C398.376 203.285 399.646 202.782 400.582 201.888C401.519 200.994 402.046 199.782 402.047 198.518V54.1095C402.046 52.8454 401.519 51.6334 400.582 50.7395C399.646 49.8456 398.376 49.3428 397.051 49.3413H130.85Z" fill="white"/>
<path d="M131.966 222.359C131.557 222.36 131.156 222.472 130.811 222.683C130.467 222.893 130.192 223.194 130.021 223.548L116.233 252.157C116.083 252.469 116.017 252.811 116.042 253.153C116.067 253.495 116.181 253.825 116.375 254.114C116.569 254.402 116.835 254.64 117.15 254.804C117.465 254.969 117.818 255.055 118.177 255.055H408.132C408.497 255.055 408.856 254.966 409.174 254.796C409.493 254.627 409.761 254.382 409.953 254.086C410.145 253.789 410.254 253.451 410.271 253.103C410.287 252.755 410.21 252.409 410.046 252.097L395.059 223.488C394.883 223.148 394.609 222.862 394.271 222.663C393.933 222.463 393.543 222.358 393.145 222.359H131.966Z" fill="#2F2E41"/>
<path d="M262.882 46.9572C264.656 46.9572 266.093 45.5848 266.093 43.8919C266.093 42.199 264.656 40.8267 262.882 40.8267C261.108 40.8267 259.67 42.199 259.67 43.8919C259.67 45.5848 261.108 46.9572 262.882 46.9572Z" fill="white"/>
<path d="M234.38 260.503C233.91 260.503 233.452 260.652 233.079 260.925C232.705 261.198 232.436 261.581 232.313 262.015L228.855 274.276C228.769 274.579 228.758 274.896 228.821 275.204C228.885 275.512 229.022 275.801 229.222 276.05C229.422 276.299 229.679 276.501 229.974 276.64C230.269 276.779 230.593 276.851 230.922 276.851H296.697C297.038 276.851 297.374 276.773 297.678 276.624C297.981 276.474 298.242 276.258 298.44 275.993C298.638 275.727 298.767 275.421 298.815 275.098C298.864 274.776 298.831 274.447 298.719 274.139L294.273 261.878C294.127 261.476 293.854 261.128 293.491 260.882C293.128 260.636 292.694 260.503 292.249 260.503H234.38Z" fill="#2F2E41"/>
<path d="M409.898 209.757V212.481H115.649L115.87 212.141V209.757H409.898Z" fill="#2F2E41"/>
<g clip-path="url(#clip1_139_234)">
<rect width="108" height="21" transform="translate(155 167)" fill="white"/>
<path d="M256.175 162.417V192.682H160.481C149.578 192.682 140.708 185.893 140.708 177.549C140.708 169.206 149.578 162.417 160.481 162.417H256.175Z" fill="#F2F2F2"/>
<path d="M263.396 193.314C263.396 193.638 263.239 193.949 262.96 194.178C262.68 194.408 262.302 194.537 261.907 194.537H162.281C156.871 194.537 151.681 192.772 147.855 189.629C144.029 186.487 141.88 182.226 141.88 177.782C141.88 173.338 144.029 169.076 147.855 165.934C151.681 162.792 156.871 161.027 162.281 161.027H261.907C262.302 161.027 262.681 161.156 262.96 161.385C263.239 161.614 263.396 161.925 263.396 162.25C263.396 162.574 263.239 162.885 262.96 163.115C262.681 163.344 262.302 163.473 261.907 163.473H162.281C157.661 163.473 153.229 164.98 149.961 167.664C146.694 170.347 144.858 173.987 144.858 177.782C144.858 181.577 146.694 185.216 149.961 187.9C153.229 190.583 157.661 192.091 162.281 192.091H261.907C262.302 192.091 262.68 192.22 262.96 192.449C263.239 192.678 263.396 192.989 263.396 193.314Z" fill="#9F0505"/>
<path d="M256.295 188.84H157.921C157.847 188.84 157.775 188.796 157.722 188.717C157.67 188.638 157.64 188.531 157.64 188.42C157.64 188.309 157.67 188.202 157.722 188.123C157.775 188.044 157.847 188 157.921 188H256.295C256.369 188 256.441 188.044 256.493 188.123C256.546 188.202 256.576 188.309 256.576 188.42C256.576 188.531 256.546 188.638 256.493 188.717C256.441 188.796 256.369 188.84 256.295 188.84Z" fill="#202020"/>
<path d="M253.295 181.84H154.921C154.847 181.84 154.775 181.796 154.722 181.717C154.67 181.638 154.64 181.531 154.64 181.42C154.64 181.309 154.67 181.202 154.722 181.123C154.775 181.044 154.847 181 154.921 181H253.295C253.369 181 253.441 181.044 253.493 181.123C253.546 181.202 253.576 181.309 253.576 181.42C253.576 181.531 253.546 181.638 253.493 181.717C253.441 181.796 253.369 181.84 253.295 181.84Z" fill="#202020"/>
<path d="M253.295 174.84H154.921C154.847 174.84 154.775 174.796 154.722 174.717C154.67 174.638 154.64 174.531 154.64 174.42C154.64 174.309 154.67 174.202 154.722 174.123C154.775 174.044 154.847 174 154.921 174H253.295C253.369 174 253.441 174.044 253.493 174.123C253.546 174.202 253.576 174.309 253.576 174.42C253.576 174.531 253.546 174.638 253.493 174.717C253.441 174.796 253.369 174.84 253.295 174.84Z" fill="#202020"/>
<path d="M262.5 193.5L315.5 185" stroke="#9F0505" stroke-width="2.5"/>
<path d="M256.295 167.84H157.921C157.847 167.84 157.775 167.796 157.722 167.717C157.67 167.638 157.64 167.531 157.64 167.42C157.64 167.309 157.67 167.202 157.722 167.123C157.775 167.044 157.847 167 157.921 167H256.295C256.369 167 256.441 167.044 256.493 167.123C256.546 167.202 256.576 167.309 256.576 167.42C256.576 167.531 256.546 167.638 256.493 167.717C256.441 167.796 256.369 167.84 256.295 167.84Z" fill="#202020"/>
<path d="M298.434 162.368L265.102 167.648C265.077 167.652 265.046 167.612 265.016 167.537C264.985 167.462 264.959 167.358 264.941 167.248C264.924 167.138 264.917 167.031 264.923 166.95C264.928 166.869 264.945 166.822 264.971 166.818L298.302 161.539C298.328 161.535 298.359 161.575 298.389 161.65C298.419 161.725 298.446 161.828 298.463 161.938C298.481 162.048 298.487 162.156 298.482 162.236C298.476 162.317 298.459 162.364 298.434 162.368Z" fill="#202020"/>
<path d="M295.434 169.368L262.102 174.648C262.077 174.652 262.046 174.612 262.016 174.537C261.985 174.462 261.959 174.358 261.941 174.248C261.924 174.138 261.917 174.031 261.923 173.95C261.928 173.869 261.945 173.822 261.971 173.818L295.302 168.539C295.328 168.535 295.359 168.575 295.389 168.65C295.419 168.725 295.446 168.828 295.463 168.938C295.481 169.048 295.487 169.156 295.482 169.236C295.476 169.317 295.459 169.364 295.434 169.368Z" fill="#202020"/>
<path d="M295.434 176.368L262.102 181.648C262.077 181.652 262.046 181.612 262.016 181.537C261.985 181.462 261.959 181.358 261.941 181.248C261.924 181.138 261.917 181.031 261.923 180.95C261.928 180.869 261.945 180.822 261.971 180.818L295.302 175.539C295.328 175.535 295.359 175.575 295.389 175.65C295.419 175.725 295.446 175.828 295.463 175.938C295.481 176.048 295.487 176.156 295.482 176.236C295.476 176.317 295.459 176.364 295.434 176.368Z" fill="#202020"/>
<path d="M298.434 183.368L265.102 188.648C265.077 188.652 265.046 188.612 265.016 188.537C264.985 188.462 264.959 188.358 264.941 188.248C264.924 188.138 264.917 188.031 264.923 187.95C264.928 187.869 264.945 187.822 264.971 187.818L298.302 182.539C298.328 182.535 298.359 182.575 298.389 182.65C298.419 182.725 298.446 182.828 298.463 182.938C298.481 183.048 298.487 183.156 298.482 183.236C298.476 183.317 298.459 183.364 298.434 183.368Z" fill="#202020"/>
<rect width="108" height="21" transform="translate(237.86 118.14) rotate(29)" fill="white"/>
<path d="M328.571 163.182L313.899 189.652L230.203 143.259C220.667 137.973 216.2 127.735 220.245 120.437C224.29 113.14 235.34 111.503 244.876 116.789L328.571 163.182Z" fill="#F2F2F2"/>
<path d="M316.414 191.769C316.257 192.052 315.969 192.248 315.613 192.314C315.258 192.379 314.864 192.308 314.519 192.117L227.384 143.817C222.652 141.194 218.969 137.134 217.146 132.531C215.323 127.928 215.509 123.159 217.664 119.272C219.818 115.386 223.764 112.7 228.634 111.807C233.503 110.914 238.898 111.886 243.63 114.509L330.765 162.808C331.11 163 331.379 163.296 331.512 163.632C331.645 163.968 331.631 164.316 331.474 164.6C331.317 164.883 331.029 165.079 330.673 165.145C330.318 165.21 329.924 165.139 329.579 164.947L242.444 116.648C238.403 114.408 233.796 113.578 229.637 114.341C225.478 115.104 222.108 117.397 220.269 120.716C218.429 124.035 218.27 128.108 219.827 132.039C221.383 135.971 224.529 139.438 228.57 141.678L315.704 189.977C316.05 190.169 316.318 190.465 316.452 190.801C316.585 191.137 316.571 191.485 316.414 191.769Z" fill="black"/>
<path d="M312.741 184.835L226.701 137.143C226.636 137.107 226.595 137.033 226.587 136.939C226.579 136.844 226.605 136.736 226.659 136.639C226.713 136.542 226.791 136.463 226.875 136.419C226.959 136.376 227.043 136.372 227.109 136.408L313.148 184.1C313.213 184.136 313.254 184.21 313.262 184.304C313.27 184.399 313.244 184.506 313.19 184.604C313.136 184.701 313.058 184.78 312.974 184.824C312.89 184.867 312.806 184.871 312.741 184.835Z" fill="#535050"/>
<path d="M314.134 177.713L228.095 130.02C228.03 129.984 227.989 129.911 227.981 129.816C227.973 129.722 227.999 129.614 228.053 129.517C228.107 129.419 228.184 129.34 228.269 129.297C228.353 129.254 228.437 129.25 228.502 129.286L314.541 176.978C314.607 177.014 314.648 177.088 314.656 177.182C314.663 177.276 314.638 177.384 314.584 177.482C314.53 177.579 314.452 177.658 314.368 177.701C314.283 177.745 314.199 177.749 314.134 177.713Z" fill="#535050"/>
<path d="M317.528 171.59L231.488 123.898C231.423 123.862 231.382 123.789 231.374 123.694C231.366 123.6 231.392 123.492 231.446 123.394C231.5 123.297 231.578 123.218 231.662 123.175C231.747 123.131 231.831 123.127 231.896 123.163L317.935 170.856C318 170.892 318.041 170.965 318.049 171.06C318.057 171.154 318.031 171.262 317.977 171.359C317.923 171.457 317.845 171.536 317.761 171.579C317.677 171.622 317.593 171.627 317.528 171.59Z" fill="#535050"/>
<path d="M322.921 166.468L236.882 118.775C236.817 118.739 236.776 118.666 236.768 118.572C236.76 118.477 236.786 118.369 236.84 118.272C236.894 118.174 236.972 118.095 237.056 118.052C237.14 118.009 237.224 118.005 237.289 118.041L323.329 165.733C323.394 165.769 323.435 165.843 323.443 165.937C323.451 166.032 323.425 166.139 323.371 166.237C323.317 166.334 323.239 166.413 323.155 166.457C323.07 166.5 322.986 166.504 322.921 166.468Z" fill="#535050"/>
<path d="M232 112.5L338 115.5" stroke="black" stroke-width="2.5"/>
<path d="M315.419 190.82L410.706 178.765" stroke="black" stroke-width="2.5"/>
<path d="M330.416 163.819L408.913 154.423" stroke="black" stroke-width="2.5"/>
<path d="M336.999 115.14L429.999 166.64" stroke="black" stroke-width="2.5"/>
<path d="M338 116L239.5 113L331 164L406 154.5L338 116Z" fill="black"/>
<path d="M407.039 159.481L329.133 169.046C329.074 169.054 329.012 169.017 328.96 168.944C328.909 168.871 328.872 168.767 328.859 168.657C328.845 168.546 328.856 168.437 328.888 168.354C328.92 168.271 328.971 168.22 329.03 168.213L406.937 158.647C406.996 158.64 407.058 158.677 407.109 158.75C407.16 158.823 407.197 158.926 407.21 159.036C407.224 159.147 407.214 159.256 407.181 159.339C407.149 159.423 407.098 159.473 407.039 159.481Z" fill="#202020"/>
<path d="M404.039 165.481L326.133 175.046C326.074 175.054 326.012 175.017 325.96 174.944C325.909 174.871 325.872 174.767 325.859 174.657C325.845 174.546 325.856 174.437 325.888 174.354C325.92 174.271 325.971 174.22 326.03 174.213L403.937 164.647C403.996 164.64 404.058 164.677 404.109 164.75C404.16 164.823 404.197 164.926 404.21 165.036C404.224 165.147 404.214 165.256 404.181 165.339C404.149 165.423 404.098 165.473 404.039 165.481Z" fill="#202020"/>
<path d="M401.04 171.481L323.134 181.046C323.075 181.054 323.013 181.017 322.961 180.944C322.91 180.871 322.873 180.767 322.86 180.657C322.846 180.546 322.857 180.437 322.889 180.354C322.921 180.271 322.972 180.22 323.031 180.213L400.938 170.647C400.997 170.64 401.059 170.677 401.11 170.75C401.161 170.823 401.198 170.926 401.211 171.036C401.225 171.147 401.215 171.256 401.182 171.339C401.15 171.423 401.099 171.473 401.04 171.481Z" fill="#202020"/>
<path d="M403.989 175.873L321.148 186.045C321.085 186.052 321.019 186.016 320.965 185.943C320.911 185.87 320.873 185.767 320.86 185.657C320.846 185.546 320.858 185.437 320.893 185.354C320.928 185.27 320.983 185.219 321.045 185.211L403.886 175.039C403.949 175.032 404.015 175.068 404.069 175.141C404.123 175.214 404.161 175.317 404.174 175.427C404.188 175.538 404.176 175.647 404.141 175.73C404.106 175.814 404.051 175.865 403.989 175.873Z" fill="#202020"/>
<path d="M183.955 119.86C172.532 119.773 161.252 116.912 150.844 111.461C150.224 111.141 149.698 110.619 149.33 109.959C148.962 109.3 148.767 108.53 148.77 107.744V74.765C148.771 73.6846 149.142 72.6488 149.802 71.8848C150.461 71.1209 151.356 70.6911 152.289 70.6899H215.621C216.554 70.6912 217.449 71.1209 218.108 71.8849C218.768 72.6488 219.139 73.6846 219.14 74.765V107.744C219.143 108.53 218.948 109.3 218.58 109.959C218.212 110.619 217.686 111.141 217.067 111.461C206.658 116.912 195.378 119.773 183.955 119.86Z" fill="black"/>
<path d="M230.5 150L155 162H260L239 150H230.5Z" fill="#7A0505"/>
<path d="M261.499 160.5C257.099 169.836 259.666 181.39 261.499 186" stroke="black" stroke-width="0.5"/>
<path d="M328.704 165.815C320.226 171.7 316.671 182.989 315.954 187.898" stroke="black" stroke-width="0.5"/>
<path d="M184.12 100.18C183.65 100.18 183.186 100.099 182.754 99.9413L132.584 81.5525C131.937 81.3154 131.387 80.9154 131.004 80.404C130.621 79.8926 130.423 79.2933 130.436 78.6833C130.449 78.0734 130.672 77.4808 131.076 76.9819C131.48 76.4831 132.047 76.1008 132.704 75.8845L182.874 59.3494C183.682 59.0818 184.575 59.0835 185.382 59.354L234.88 75.8891C235.533 76.1072 236.096 76.4895 236.497 76.9872C236.899 77.4849 237.12 78.0752 237.133 78.6828C237.146 79.2903 236.95 79.8874 236.57 80.3976C236.19 80.9078 235.644 81.308 235.001 81.5469L185.502 99.9354C185.065 100.097 184.595 100.18 184.12 100.18Z" fill="black"/>
<path opacity="0.2" d="M235.197 78.1711L185.519 98.9205C185.132 99.0823 184.715 99.1661 184.294 99.1671C183.872 99.1681 183.455 99.0862 183.067 98.9263L132.716 78.1771C132.084 77.9228 131.556 77.4698 131.217 76.8899C130.995 77.266 130.857 77.6839 130.813 78.1158C130.769 78.5478 130.82 78.984 130.962 79.3954C131.103 79.8068 131.333 80.184 131.636 80.502C131.938 80.82 132.306 81.0715 132.716 81.2399L183.067 101.989C183.455 102.149 183.872 102.231 184.294 102.23C184.715 102.229 185.132 102.145 185.519 101.983L235.197 81.2338C235.604 81.064 235.97 80.8117 236.271 80.4935C236.571 80.1754 236.799 79.7986 236.939 79.3881C237.08 78.9775 237.129 78.5426 237.085 78.112C237.04 77.6814 236.903 77.2648 236.682 76.8899C236.345 77.4652 235.823 77.9155 235.197 78.1711Z" fill="white"/>
<path d="M150.401 102.91C150.637 102.91 150.864 102.857 151.031 102.762C151.198 102.667 151.292 102.539 151.292 102.405V85.5145L180.685 79.4495C180.922 79.4515 181.15 79.4002 181.319 79.307C181.489 79.2137 181.586 79.0861 181.59 78.9522C181.593 78.8184 181.503 78.6892 181.338 78.5931C181.173 78.497 180.948 78.4419 180.712 78.4399L151.319 84.5049C151.082 84.5019 150.847 84.526 150.627 84.5759C150.408 84.6258 150.208 84.7005 150.041 84.7953C149.872 84.889 149.738 85.0009 149.647 85.1244C149.556 85.248 149.509 85.3806 149.51 85.5145V102.405C149.51 102.539 149.604 102.667 149.771 102.762C149.938 102.857 150.165 102.91 150.401 102.91Z" fill="white"/>
<path d="M155.69 103.65C155.69 106.378 153.3 108.65 150.275 108.65C147.249 108.65 144.86 106.378 144.86 103.65C144.86 100.922 147.249 98.6499 150.275 98.6499C153.3 98.6499 155.69 100.922 155.69 103.65Z" fill="white" stroke="black"/>
</g>
</g>
<defs>
<clipPath id="clip0_139_234">
<rect width="502" height="315" fill="white"/>
</clipPath>
<clipPath id="clip1_139_234">
<rect width="295" height="250" fill="white" transform="translate(108 -25)"/>
</clipPath>
</defs>
</svg>
