<svg width="237" height="174" viewBox="0 0 237 174" fill="none" xmlns="http://www.w3.org/2000/svg">
<g clip-path="url(#clip0_29_570)">
<path d="M0 132.05C2.61671 135.18 5.44698 138.121 8.4701 140.853L228.53 141.157C231.553 138.425 234.383 135.484 237 132.354L0 132.05Z" fill="#3F3D56"/>
<path d="M149.229 103.864V129.923C149.23 130.255 149.361 130.573 149.593 130.808C149.826 131.043 150.141 131.175 150.47 131.175H188.726C189.055 131.175 189.37 131.043 189.603 130.808C189.835 130.573 189.966 130.255 189.966 129.923V103.864C189.966 103.532 189.834 103.214 189.602 102.98C189.369 102.745 189.054 102.613 188.726 102.613H150.47C150.142 102.613 149.826 102.745 149.594 102.98C149.361 103.214 149.23 103.532 149.229 103.864Z" fill="#3F3D56"/>
<path d="M150.127 104.188V129.601C150.128 129.779 150.198 129.949 150.322 130.074C150.446 130.2 150.615 130.27 150.791 130.271H188.408C188.583 130.27 188.752 130.2 188.876 130.074C189 129.949 189.07 129.779 189.071 129.601V104.188C189.071 104.01 189.001 103.84 188.877 103.714C188.752 103.588 188.584 103.518 188.408 103.517H150.791C150.615 103.518 150.446 103.588 150.322 103.714C150.197 103.84 150.127 104.01 150.127 104.188Z" fill="#969696"/>
<path d="M148.429 135.005C148.499 135.094 148.588 135.165 148.69 135.214C148.791 135.263 148.902 135.288 149.015 135.288H189.977C190.089 135.287 190.2 135.262 190.301 135.213C190.402 135.165 190.491 135.094 190.562 135.006C190.632 134.918 190.682 134.816 190.709 134.706C190.735 134.596 190.737 134.481 190.714 134.371L190.078 131.322C190.052 131.197 189.995 131.082 189.913 130.985C189.831 130.889 189.726 130.814 189.609 130.769C189.524 130.735 189.433 130.718 189.341 130.718H149.648C149.556 130.718 149.466 130.735 149.381 130.769C149.263 130.814 149.158 130.889 149.076 130.985C148.994 131.082 148.938 131.197 148.911 131.322L148.275 134.371C148.253 134.481 148.255 134.596 148.281 134.705C148.308 134.815 148.359 134.917 148.429 135.005Z" fill="#2F2E41"/>
<path d="M187.936 132.032H188.904C188.985 132.032 189.051 131.965 189.051 131.883V131.416C189.051 131.334 188.985 131.267 188.904 131.267H187.936C187.855 131.267 187.789 131.334 187.789 131.416V131.883C187.789 131.965 187.855 132.032 187.936 132.032Z" fill="#3F3D56"/>
<path d="M185.413 132.032H186.38C186.461 132.032 186.527 131.965 186.527 131.883V131.416C186.527 131.334 186.461 131.267 186.38 131.267H185.413C185.332 131.267 185.266 131.334 185.266 131.416V131.883C185.266 131.965 185.332 132.032 185.413 132.032Z" fill="#3F3D56"/>
<path d="M182.889 132.032H183.857C183.938 132.032 184.004 131.965 184.004 131.883V131.416C184.004 131.334 183.938 131.267 183.857 131.267H182.889C182.808 131.267 182.742 131.334 182.742 131.416V131.883C182.742 131.965 182.808 132.032 182.889 132.032Z" fill="#3F3D56"/>
<path d="M180.366 132.032H181.334C181.415 132.032 181.481 131.965 181.481 131.883V131.416C181.481 131.334 181.415 131.267 181.334 131.267H180.366C180.285 131.267 180.219 131.334 180.219 131.416V131.883C180.219 131.965 180.285 132.032 180.366 132.032Z" fill="#3F3D56"/>
<path d="M177.843 132.032H178.81C178.892 132.032 178.958 131.965 178.958 131.883V131.416C178.958 131.334 178.892 131.267 178.81 131.267H177.843C177.762 131.267 177.696 131.334 177.696 131.416V131.883C177.696 131.965 177.762 132.032 177.843 132.032Z" fill="#3F3D56"/>
<path d="M175.32 132.032H176.288C176.369 132.032 176.435 131.965 176.435 131.883V131.416C176.435 131.334 176.369 131.267 176.288 131.267H175.32C175.239 131.267 175.173 131.334 175.173 131.416V131.883C175.173 131.965 175.239 132.032 175.32 132.032Z" fill="#3F3D56"/>
<path d="M172.797 132.032H173.764C173.845 132.032 173.911 131.965 173.911 131.883V131.416C173.911 131.334 173.845 131.267 173.764 131.267H172.797C172.715 131.267 172.65 131.334 172.65 131.416V131.883C172.65 131.965 172.715 132.032 172.797 132.032Z" fill="#3F3D56"/>
<path d="M170.274 132.032H171.241C171.322 132.032 171.388 131.965 171.388 131.883V131.416C171.388 131.334 171.322 131.267 171.241 131.267H170.274C170.192 131.267 170.127 131.334 170.127 131.416V131.883C170.127 131.965 170.192 132.032 170.274 132.032Z" fill="#3F3D56"/>
<path d="M167.75 132.032H168.718C168.799 132.032 168.865 131.965 168.865 131.883V131.416C168.865 131.334 168.799 131.267 168.718 131.267H167.75C167.669 131.267 167.603 131.334 167.603 131.416V131.883C167.603 131.965 167.669 132.032 167.75 132.032Z" fill="#3F3D56"/>
<path d="M165.227 132.032H166.194C166.275 132.032 166.341 131.965 166.341 131.883V131.416C166.341 131.334 166.275 131.267 166.194 131.267H165.227C165.146 131.267 165.08 131.334 165.08 131.416V131.883C165.08 131.965 165.146 132.032 165.227 132.032Z" fill="#3F3D56"/>
<path d="M162.704 132.032H163.671C163.753 132.032 163.818 131.965 163.818 131.883V131.416C163.818 131.334 163.753 131.267 163.671 131.267H162.704C162.623 131.267 162.557 131.334 162.557 131.416V131.883C162.557 131.965 162.623 132.032 162.704 132.032Z" fill="#3F3D56"/>
<path d="M160.18 132.032H161.148C161.229 132.032 161.295 131.965 161.295 131.883V131.416C161.295 131.334 161.229 131.267 161.148 131.267H160.18C160.099 131.267 160.033 131.334 160.033 131.416V131.883C160.033 131.965 160.099 132.032 160.18 132.032Z" fill="#3F3D56"/>
<path d="M157.657 132.032H158.624C158.706 132.032 158.771 131.965 158.771 131.883V131.416C158.771 131.334 158.706 131.267 158.624 131.267H157.657C157.576 131.267 157.51 131.334 157.51 131.416V131.883C157.51 131.965 157.576 132.032 157.657 132.032Z" fill="#3F3D56"/>
<path d="M155.134 132.032H156.101C156.183 132.032 156.249 131.965 156.249 131.883V131.416C156.249 131.334 156.183 131.267 156.101 131.267H155.134C155.053 131.267 154.987 131.334 154.987 131.416V131.883C154.987 131.965 155.053 132.032 155.134 132.032Z" fill="#3F3D56"/>
<path d="M152.611 132.032H153.578C153.659 132.032 153.725 131.965 153.725 131.883V131.416C153.725 131.334 153.659 131.267 153.578 131.267H152.611C152.529 131.267 152.463 131.334 152.463 131.416V131.883C152.463 131.965 152.529 132.032 152.611 132.032Z" fill="#3F3D56"/>
<path d="M150.088 132.032H151.055C151.136 132.032 151.202 131.965 151.202 131.883V131.416C151.202 131.334 151.136 131.267 151.055 131.267H150.088C150.006 131.267 149.941 131.334 149.941 131.416V131.883C149.941 131.965 150.006 132.032 150.088 132.032Z" fill="#3F3D56"/>
<path d="M187.966 133.305H188.934C189.015 133.305 189.081 133.239 189.081 133.157V132.689C189.081 132.608 189.015 132.541 188.934 132.541H187.966C187.885 132.541 187.819 132.608 187.819 132.689V133.157C187.819 133.239 187.885 133.305 187.966 133.305Z" fill="#3F3D56"/>
<path d="M185.443 133.305H186.41C186.491 133.305 186.557 133.239 186.557 133.157V132.689C186.557 132.608 186.491 132.541 186.41 132.541H185.443C185.361 132.541 185.296 132.608 185.296 132.689V133.157C185.296 133.239 185.361 133.305 185.443 133.305Z" fill="#3F3D56"/>
<path d="M182.92 133.305H183.887C183.968 133.305 184.034 133.239 184.034 133.157V132.689C184.034 132.608 183.968 132.541 183.887 132.541H182.92C182.838 132.541 182.773 132.608 182.773 132.689V133.157C182.773 133.239 182.838 133.305 182.92 133.305Z" fill="#3F3D56"/>
<path d="M180.396 133.305H181.364C181.445 133.305 181.511 133.239 181.511 133.157V132.689C181.511 132.608 181.445 132.541 181.364 132.541H180.396C180.315 132.541 180.249 132.608 180.249 132.689V133.157C180.249 133.239 180.315 133.305 180.396 133.305Z" fill="#3F3D56"/>
<path d="M177.873 133.305H178.84C178.921 133.305 178.987 133.239 178.987 133.157V132.689C178.987 132.608 178.921 132.541 178.84 132.541H177.873C177.792 132.541 177.726 132.608 177.726 132.689V133.157C177.726 133.239 177.792 133.305 177.873 133.305Z" fill="#3F3D56"/>
<path d="M175.349 133.305H176.317C176.398 133.305 176.464 133.239 176.464 133.157V132.689C176.464 132.608 176.398 132.541 176.317 132.541H175.349C175.268 132.541 175.202 132.608 175.202 132.689V133.157C175.202 133.239 175.268 133.305 175.349 133.305Z" fill="#3F3D56"/>
<path d="M172.826 133.305H173.794C173.875 133.305 173.941 133.239 173.941 133.157V132.689C173.941 132.608 173.875 132.541 173.794 132.541H172.826C172.745 132.541 172.679 132.608 172.679 132.689V133.157C172.679 133.239 172.745 133.305 172.826 133.305Z" fill="#3F3D56"/>
<path d="M170.303 133.305H171.271C171.352 133.305 171.418 133.239 171.418 133.157V132.689C171.418 132.608 171.352 132.541 171.271 132.541H170.303C170.222 132.541 170.156 132.608 170.156 132.689V133.157C170.156 133.239 170.222 133.305 170.303 133.305Z" fill="#3F3D56"/>
<path d="M167.78 133.305H168.747C168.829 133.305 168.895 133.239 168.895 133.157V132.689C168.895 132.608 168.829 132.541 168.747 132.541H167.78C167.699 132.541 167.633 132.608 167.633 132.689V133.157C167.633 133.239 167.699 133.305 167.78 133.305Z" fill="#3F3D56"/>
<path d="M165.257 133.305H166.225C166.306 133.305 166.372 133.239 166.372 133.157V132.689C166.372 132.608 166.306 132.541 166.225 132.541H165.257C165.176 132.541 165.11 132.608 165.11 132.689V133.157C165.11 133.239 165.176 133.305 165.257 133.305Z" fill="#3F3D56"/>
<path d="M162.734 133.305H163.701C163.782 133.305 163.848 133.239 163.848 133.157V132.689C163.848 132.608 163.782 132.541 163.701 132.541H162.734C162.652 132.541 162.587 132.608 162.587 132.689V133.157C162.587 133.239 162.652 133.305 162.734 133.305Z" fill="#3F3D56"/>
<path d="M160.21 133.305H161.178C161.259 133.305 161.325 133.239 161.325 133.157V132.689C161.325 132.608 161.259 132.541 161.178 132.541H160.21C160.129 132.541 160.063 132.608 160.063 132.689V133.157C160.063 133.239 160.129 133.305 160.21 133.305Z" fill="#3F3D56"/>
<path d="M157.687 133.305H158.654C158.735 133.305 158.801 133.239 158.801 133.157V132.689C158.801 132.608 158.735 132.541 158.654 132.541H157.687C157.605 132.541 157.54 132.608 157.54 132.689V133.157C157.54 133.239 157.605 133.305 157.687 133.305Z" fill="#3F3D56"/>
<path d="M155.164 133.305H156.131C156.212 133.305 156.278 133.239 156.278 133.157V132.689C156.278 132.608 156.212 132.541 156.131 132.541H155.164C155.083 132.541 155.017 132.608 155.017 132.689V133.157C155.017 133.239 155.083 133.305 155.164 133.305Z" fill="#3F3D56"/>
<path d="M152.64 133.305H153.608C153.689 133.305 153.755 133.239 153.755 133.157V132.689C153.755 132.608 153.689 132.541 153.608 132.541H152.64C152.559 132.541 152.493 132.608 152.493 132.689V133.157C152.493 133.239 152.559 133.305 152.64 133.305Z" fill="#3F3D56"/>
<path d="M150.117 133.305H151.085C151.166 133.305 151.232 133.239 151.232 133.157V132.689C151.232 132.608 151.166 132.541 151.085 132.541H150.117C150.036 132.541 149.97 132.608 149.97 132.689V133.157C149.97 133.239 150.036 133.305 150.117 133.305Z" fill="#3F3D56"/>
<path d="M167.023 134.833H176.822C176.903 134.833 176.969 134.767 176.969 134.685V134.218C176.969 134.136 176.903 134.069 176.822 134.069H167.023C166.942 134.069 166.876 134.136 166.876 134.218V134.685C166.876 134.767 166.942 134.833 167.023 134.833Z" fill="#3F3D56"/>
<path d="M156.641 109.077H155.785C155.525 109.077 155.314 109.29 155.314 109.552C155.314 109.814 155.525 110.026 155.785 110.026H156.641C156.901 110.026 157.111 109.814 157.111 109.552C157.111 109.29 156.901 109.077 156.641 109.077Z" fill="white"/>
<path d="M166.438 109.077H165.581C165.321 109.077 165.111 109.29 165.111 109.552C165.111 109.814 165.321 110.026 165.581 110.026H166.438C166.697 110.026 166.908 109.814 166.908 109.552C166.908 109.29 166.697 109.077 166.438 109.077Z" fill="white"/>
<path d="M169.213 109.077H168.357C168.097 109.077 167.887 109.29 167.887 109.552C167.887 109.814 168.097 110.026 168.357 110.026H169.213C169.473 110.026 169.684 109.814 169.684 109.552C169.684 109.29 169.473 109.077 169.213 109.077Z" fill="white"/>
<path d="M163.773 108.998H158.449C158.19 108.998 157.979 109.211 157.979 109.473C157.979 109.735 158.19 109.947 158.449 109.947H163.773C164.033 109.947 164.243 109.735 164.243 109.473C164.243 109.211 164.033 108.998 163.773 108.998Z" fill="white"/>
<path d="M176.835 108.998H171.511C171.252 108.998 171.041 109.211 171.041 109.473C171.041 109.735 171.252 109.947 171.511 109.947H176.835C177.095 109.947 177.305 109.735 177.305 109.473C177.305 109.211 177.095 108.998 176.835 108.998Z" fill="white"/>
<path d="M159.254 111.22H158.397C158.137 111.22 157.927 111.432 157.927 111.694C157.927 111.956 158.137 112.169 158.397 112.169H159.254C159.513 112.169 159.724 111.956 159.724 111.694C159.724 111.432 159.513 111.22 159.254 111.22Z" fill="white"/>
<path d="M169.05 111.22H168.193C167.934 111.22 167.723 111.432 167.723 111.694C167.723 111.956 167.934 112.169 168.193 112.169H169.05C169.31 112.169 169.52 111.956 169.52 111.694C169.52 111.432 169.31 111.22 169.05 111.22Z" fill="white"/>
<path d="M171.826 111.22H170.969C170.71 111.22 170.499 111.432 170.499 111.694C170.499 111.956 170.71 112.169 170.969 112.169H171.826C172.085 112.169 172.296 111.956 172.296 111.694C172.296 111.432 172.085 111.22 171.826 111.22Z" fill="white"/>
<path d="M166.385 111.141H161.062C160.802 111.141 160.591 111.353 160.591 111.615C160.591 111.877 160.802 112.09 161.062 112.09H166.385C166.645 112.09 166.855 111.877 166.855 111.615C166.855 111.353 166.645 111.141 166.385 111.141Z" fill="white"/>
<path d="M179.447 111.141H174.124C173.864 111.141 173.653 111.353 173.653 111.615C173.653 111.877 173.864 112.09 174.124 112.09H179.447C179.707 112.09 179.917 111.877 179.917 111.615C179.917 111.353 179.707 111.141 179.447 111.141Z" fill="white"/>
<path d="M161.866 113.362H161.009C160.75 113.362 160.539 113.575 160.539 113.837C160.539 114.099 160.75 114.312 161.009 114.312H161.866C162.126 114.312 162.336 114.099 162.336 113.837C162.336 113.575 162.126 113.362 161.866 113.362Z" fill="white"/>
<path d="M171.662 113.362H170.806C170.546 113.362 170.335 113.575 170.335 113.837C170.335 114.099 170.546 114.312 170.806 114.312H171.662C171.922 114.312 172.132 114.099 172.132 113.837C172.132 113.575 171.922 113.362 171.662 113.362Z" fill="white"/>
<path d="M174.438 113.362H173.582C173.322 113.362 173.111 113.575 173.111 113.837C173.111 114.099 173.322 114.312 173.582 114.312H174.438C174.698 114.312 174.908 114.099 174.908 113.837C174.908 113.575 174.698 113.362 174.438 113.362Z" fill="white"/>
<path d="M168.998 113.283H163.674C163.415 113.283 163.204 113.496 163.204 113.758C163.204 114.02 163.415 114.233 163.674 114.233H168.998C169.258 114.233 169.468 114.02 169.468 113.758C169.468 113.496 169.258 113.283 168.998 113.283Z" fill="white"/>
<path d="M182.059 113.283H176.736C176.476 113.283 176.266 113.496 176.266 113.758C176.266 114.02 176.476 114.233 176.736 114.233H182.059C182.319 114.233 182.53 114.02 182.53 113.758C182.53 113.496 182.319 113.283 182.059 113.283Z" fill="white"/>
<path d="M164.478 115.505H163.622C163.362 115.505 163.151 115.717 163.151 115.98C163.151 116.242 163.362 116.454 163.622 116.454H164.478C164.738 116.454 164.948 116.242 164.948 115.98C164.948 115.717 164.738 115.505 164.478 115.505Z" fill="white"/>
<path d="M174.275 115.505H173.418C173.158 115.505 172.948 115.717 172.948 115.98C172.948 116.242 173.158 116.454 173.418 116.454H174.275C174.534 116.454 174.745 116.242 174.745 115.98C174.745 115.717 174.534 115.505 174.275 115.505Z" fill="white"/>
<path d="M177.05 115.505H176.194C175.934 115.505 175.724 115.717 175.724 115.98C175.724 116.242 175.934 116.454 176.194 116.454H177.05C177.31 116.454 177.521 116.242 177.521 115.98C177.521 115.717 177.31 115.505 177.05 115.505Z" fill="white"/>
<path d="M171.61 115.426H166.287C166.027 115.426 165.816 115.638 165.816 115.901C165.816 116.163 166.027 116.375 166.287 116.375H171.61C171.87 116.375 172.08 116.163 172.08 115.901C172.08 115.638 171.87 115.426 171.61 115.426Z" fill="white"/>
<path d="M166.438 124.025H165.581C165.321 124.025 165.111 124.237 165.111 124.499C165.111 124.762 165.321 124.974 165.581 124.974H166.438C166.697 124.974 166.908 124.762 166.908 124.499C166.908 124.237 166.697 124.025 166.438 124.025Z" fill="white"/>
<path d="M169.213 124.025H168.357C168.097 124.025 167.887 124.237 167.887 124.499C167.887 124.762 168.097 124.974 168.357 124.974H169.213C169.473 124.974 169.684 124.762 169.684 124.499C169.684 124.237 169.473 124.025 169.213 124.025Z" fill="white"/>
<path d="M176.835 124.104H171.511C171.252 124.104 171.041 124.317 171.041 124.579C171.041 124.841 171.252 125.053 171.511 125.053H176.835C177.095 125.053 177.305 124.841 177.305 124.579C177.305 124.317 177.095 124.104 176.835 124.104Z" fill="white"/>
<path d="M156.641 124.025H155.785C155.525 124.025 155.314 124.237 155.314 124.499C155.314 124.762 155.525 124.974 155.785 124.974H156.641C156.901 124.974 157.111 124.762 157.111 124.499C157.111 124.237 156.901 124.025 156.641 124.025Z" fill="white"/>
<path d="M163.773 124.104H158.449C158.19 124.104 157.979 124.317 157.979 124.579C157.979 124.841 158.19 125.053 158.449 125.053H163.773C164.033 125.053 164.243 124.841 164.243 124.579C164.243 124.317 164.033 124.104 163.773 124.104Z" fill="white"/>
<path d="M159.254 121.882H158.397C158.137 121.882 157.927 122.095 157.927 122.357C157.927 122.619 158.137 122.831 158.397 122.831H159.254C159.513 122.831 159.724 122.619 159.724 122.357C159.724 122.095 159.513 121.882 159.254 121.882Z" fill="white"/>
<path d="M169.05 121.882H168.193C167.934 121.882 167.723 122.095 167.723 122.357C167.723 122.619 167.934 122.831 168.193 122.831H169.05C169.31 122.831 169.52 122.619 169.52 122.357C169.52 122.095 169.31 121.882 169.05 121.882Z" fill="white"/>
<path d="M171.826 121.882H170.969C170.71 121.882 170.499 122.095 170.499 122.357C170.499 122.619 170.71 122.831 170.969 122.831H171.826C172.085 122.831 172.296 122.619 172.296 122.357C172.296 122.095 172.085 121.882 171.826 121.882Z" fill="white"/>
<path d="M166.385 121.961H161.062C160.802 121.961 160.591 122.174 160.591 122.436C160.591 122.698 160.802 122.911 161.062 122.911H166.385C166.645 122.911 166.855 122.698 166.855 122.436C166.855 122.174 166.645 121.961 166.385 121.961Z" fill="white"/>
<path d="M161.866 119.74H161.009C160.75 119.74 160.539 119.952 160.539 120.214C160.539 120.476 160.75 120.689 161.009 120.689H161.866C162.126 120.689 162.336 120.476 162.336 120.214C162.336 119.952 162.126 119.74 161.866 119.74Z" fill="white"/>
<path d="M171.662 119.74H170.806C170.546 119.74 170.335 119.952 170.335 120.214C170.335 120.476 170.546 120.689 170.806 120.689H171.662C171.922 120.689 172.132 120.476 172.132 120.214C172.132 119.952 171.922 119.74 171.662 119.74Z" fill="white"/>
<path d="M174.438 119.74H173.582C173.322 119.74 173.111 119.952 173.111 120.214C173.111 120.476 173.322 120.689 173.582 120.689H174.438C174.698 120.689 174.908 120.476 174.908 120.214C174.908 119.952 174.698 119.74 174.438 119.74Z" fill="white"/>
<path d="M168.998 119.819H163.674C163.415 119.819 163.204 120.031 163.204 120.293C163.204 120.556 163.415 120.768 163.674 120.768H168.998C169.258 120.768 169.468 120.556 169.468 120.293C169.468 120.031 169.258 119.819 168.998 119.819Z" fill="white"/>
<path d="M164.478 117.597H163.622C163.362 117.597 163.151 117.809 163.151 118.072C163.151 118.334 163.362 118.546 163.622 118.546H164.478C164.738 118.546 164.948 118.334 164.948 118.072C164.948 117.809 164.738 117.597 164.478 117.597Z" fill="white"/>
<path d="M174.275 117.597H173.418C173.158 117.597 172.948 117.809 172.948 118.072C172.948 118.334 173.158 118.546 173.418 118.546H174.275C174.534 118.546 174.745 118.334 174.745 118.072C174.745 117.809 174.534 117.597 174.275 117.597Z" fill="white"/>
<path d="M177.05 117.597H176.194C175.934 117.597 175.724 117.809 175.724 118.072C175.724 118.334 175.934 118.546 176.194 118.546H177.05C177.31 118.546 177.521 118.334 177.521 118.072C177.521 117.809 177.31 117.597 177.05 117.597Z" fill="white"/>
<path d="M171.61 117.676H166.287C166.027 117.676 165.816 117.889 165.816 118.151C165.816 118.413 166.027 118.625 166.287 118.625H171.61C171.87 118.625 172.08 118.413 172.08 118.151C172.08 117.889 171.87 117.676 171.61 117.676Z" fill="white"/>
<path d="M152.087 149.135L148.066 142.719L160.688 132.563L165.897 126.737C166.574 125.98 167.436 125.415 168.397 125.1C169.357 124.785 170.383 124.729 171.371 124.939C172.36 125.149 173.276 125.618 174.029 126.297C174.782 126.977 175.345 127.844 175.662 128.813C176.132 130.247 176.031 131.81 175.38 133.171C174.73 134.532 173.582 135.585 172.177 136.107L163.939 139.171L152.087 149.135Z" fill="#FFB6B6"/>
<path d="M57.7393 102.614V133.798H79.3814V102.614C79.3817 102.39 79.3108 102.171 79.1791 101.99C79.0473 101.81 78.8617 101.677 78.6494 101.61C78.5494 101.577 78.4445 101.561 78.3392 101.562H58.7845C58.6474 101.562 58.5116 101.589 58.3849 101.641C58.2581 101.694 58.1429 101.771 58.0459 101.869C57.9488 101.967 57.8717 102.083 57.8191 102.211C57.7665 102.338 57.7394 102.475 57.7393 102.614ZM66.1853 113.329C66.1909 112.714 66.4368 112.126 66.8694 111.694C67.3021 111.261 67.8865 111.018 68.4955 111.018C69.1046 111.018 69.689 111.261 70.1216 111.694C70.5543 112.126 70.8002 112.714 70.8058 113.329V116.947C70.8027 117.564 70.5579 118.154 70.125 118.589C69.6921 119.023 69.1062 119.267 68.4955 119.267C67.8849 119.267 67.299 119.023 66.8661 118.589C66.4332 118.154 66.1884 117.564 66.1853 116.947V113.329Z" fill="#2F2E41"/>
<path d="M57.6733 132.801V135.808C57.6738 135.964 57.7351 136.113 57.844 136.224C57.9528 136.334 58.1004 136.397 58.2547 136.398H78.8667C79.0211 136.397 79.169 136.335 79.2779 136.224C79.3869 136.114 79.448 135.964 79.448 135.808V132.801H57.6733Z" fill="#3F3D56"/>
<path d="M23.6934 55.6309V112.569C23.6939 113.295 23.9797 113.99 24.488 114.503C24.9963 115.016 25.6855 115.305 26.4043 115.305H109.991C110.71 115.305 111.399 115.016 111.907 114.503C112.415 113.99 112.701 113.295 112.702 112.569V55.6309C112.7 54.906 112.414 54.2113 111.906 53.6989C111.397 53.1866 110.709 52.8984 109.991 52.8975H26.4043C25.6861 52.8984 24.9975 53.1866 24.4894 53.6989C23.9813 54.2113 23.6951 54.906 23.6934 55.6309Z" fill="#3F3D56"/>
<path d="M25.6543 56.3392V111.866C25.655 112.254 25.8078 112.626 26.0794 112.9C26.3509 113.174 26.7191 113.328 27.1031 113.329H109.295C109.679 113.328 110.047 113.174 110.319 112.9C110.59 112.626 110.743 112.254 110.744 111.866V56.3392C110.744 55.9511 110.591 55.5788 110.32 55.304C110.048 55.0293 109.679 54.8745 109.295 54.8737H27.1031C26.7186 54.8745 26.3501 55.0293 26.0785 55.304C25.8069 55.5788 25.6543 55.9511 25.6543 56.3392Z" fill="white"/>
<path d="M40.9079 136.194C40.9915 136.3 41.0979 136.386 41.2189 136.444C41.3399 136.503 41.4725 136.533 41.6067 136.532H90.5055C90.6392 136.532 90.7712 136.501 90.8919 136.443C91.0126 136.385 91.1189 136.301 91.2032 136.196C91.2874 136.091 91.3475 135.968 91.3789 135.837C91.4104 135.706 91.4125 135.569 91.385 135.437L90.626 131.798C90.5945 131.649 90.5268 131.511 90.4289 131.396C90.3311 131.281 90.2062 131.192 90.0657 131.138C89.964 131.098 89.8557 131.077 89.7464 131.077H42.3627C42.2535 131.077 42.1452 131.098 42.0434 131.138C41.903 131.192 41.7781 131.281 41.6802 131.396C41.5824 131.511 41.5146 131.649 41.4832 131.798L40.7241 135.437C40.6971 135.569 40.6996 135.706 40.7314 135.837C40.7632 135.968 40.8235 136.09 40.9079 136.194Z" fill="#2F2E41"/>
<path d="M106.628 62.5228H29.721C29.6411 62.5211 29.565 62.4877 29.5091 62.43C29.4532 62.3723 29.4219 62.2948 29.4219 62.2141C29.4219 62.1334 29.4532 62.0559 29.5091 61.9982C29.565 61.9405 29.6411 61.9072 29.721 61.9054H106.628C106.708 61.9072 106.784 61.9405 106.84 61.9982C106.895 62.0559 106.927 62.1334 106.927 62.2141C106.927 62.2948 106.895 62.3723 106.84 62.43C106.784 62.4877 106.708 62.5211 106.628 62.5228Z" fill="#3F3D56"/>
<path d="M34.9559 60.3291C35.9458 60.3291 36.7483 59.501 36.7483 58.4795C36.7483 57.458 35.9458 56.6299 34.9559 56.6299C33.966 56.6299 33.1636 57.458 33.1636 58.4795C33.1636 59.501 33.966 60.3291 34.9559 60.3291Z" fill="#3F3D56"/>
<path d="M41.1478 60.3291C42.1377 60.3291 42.9402 59.501 42.9402 58.4795C42.9402 57.458 42.1377 56.6299 41.1478 56.6299C40.1579 56.6299 39.3555 57.458 39.3555 58.4795C39.3555 59.501 40.1579 60.3291 41.1478 60.3291Z" fill="#3F3D56"/>
<path d="M47.3397 60.3291C48.3296 60.3291 49.132 59.501 49.132 58.4795C49.132 57.458 48.3296 56.6299 47.3397 56.6299C46.3498 56.6299 45.5474 57.458 45.5474 58.4795C45.5474 59.501 46.3498 60.3291 47.3397 60.3291Z" fill="#3F3D56"/>
<path d="M102.899 57.0873H98.5015C98.4145 57.0893 98.3318 57.1256 98.2711 57.1884C98.2103 57.2512 98.1763 57.3355 98.1763 57.4233C98.1763 57.511 98.2103 57.5953 98.2711 57.6581C98.3318 57.7209 98.4145 57.7572 98.5015 57.7592H102.899C102.987 57.758 103.07 57.7221 103.131 57.6592C103.193 57.5963 103.227 57.5116 103.227 57.4233C103.227 57.335 103.193 57.2502 103.131 57.1873C103.07 57.1245 102.987 57.0885 102.899 57.0873Z" fill="#3F3D56"/>
<path d="M102.899 58.3491H98.5014C98.4144 58.3511 98.3316 58.3873 98.2707 58.4501C98.2099 58.5129 98.1758 58.5973 98.1758 58.6851C98.1758 58.773 98.2099 58.8573 98.2707 58.9201C98.3316 58.9829 98.4144 59.0191 98.5014 59.0211H102.899C102.987 59.02 103.07 58.9842 103.132 58.9213C103.193 58.8584 103.228 58.7735 103.228 58.6851C103.228 58.5967 103.193 58.5118 103.132 58.4489C103.07 58.3861 102.987 58.3502 102.899 58.3491Z" fill="#3F3D56"/>
<path d="M102.899 59.611H98.5015C98.4145 59.613 98.3318 59.6493 98.2711 59.7121C98.2103 59.7749 98.1763 59.8592 98.1763 59.947C98.1763 60.0347 98.2103 60.119 98.2711 60.1818C98.3318 60.2446 98.4145 60.2809 98.5015 60.2829H102.899C102.987 60.2817 103.07 60.2457 103.131 60.1829C103.193 60.12 103.227 60.0352 103.227 59.947C103.227 59.8587 103.193 59.7739 103.131 59.711C103.07 59.6482 102.987 59.6122 102.899 59.611Z" fill="#3F3D56"/>
<path d="M208.919 134.121C209.052 134.511 209.304 134.848 209.638 135.085C209.973 135.322 210.373 135.445 210.782 135.438L218.761 135.23C219.173 135.222 219.571 135.08 219.895 134.825C220.22 134.569 220.454 134.215 220.563 133.814L221.692 121.625C222.093 121.809 222.529 121.899 222.969 121.89C223.351 121.881 223.727 121.795 224.076 121.639C224.426 121.482 224.741 121.258 225.004 120.978C225.268 120.698 225.474 120.369 225.611 120.009C225.749 119.649 225.814 119.265 225.805 118.88C225.795 118.494 225.711 118.114 225.555 117.762C225.4 117.409 225.178 117.091 224.901 116.825C224.624 116.559 224.298 116.351 223.942 116.212C223.585 116.074 223.205 116.007 222.823 116.017C222.647 116.016 222.472 116.035 222.3 116.072C222.113 115.868 221.886 115.705 221.633 115.595C221.38 115.485 221.107 115.43 220.832 115.432L208.557 115.752C208.455 115.756 208.354 115.769 208.254 115.79C207.985 115.841 207.73 115.949 207.506 116.108C207.281 116.266 207.093 116.472 206.954 116.71C206.815 116.948 206.728 117.213 206.699 117.488C206.67 117.763 206.7 118.041 206.786 118.303L208.919 134.121ZM221.924 120.798L222.727 117.893C222.819 117.558 222.821 117.204 222.733 116.867C222.772 116.867 222.807 116.848 222.846 116.848C223.397 116.837 223.93 117.046 224.328 117.431C224.726 117.816 224.957 118.344 224.97 118.9C224.983 119.456 224.777 119.995 224.397 120.398C224.017 120.801 223.494 121.035 222.943 121.05C222.587 121.061 222.235 120.974 221.924 120.798Z" fill="#2F2E41"/>
<path d="M208.254 115.79C208.516 117.3 211.456 118.361 214.991 118.176C218.242 118.025 220.9 116.873 221.387 115.507C221.207 115.453 221.02 115.428 220.832 115.432L208.557 115.752C208.455 115.756 208.354 115.769 208.254 115.79Z" fill="#3F3D56"/>
<path d="M215.639 127.423C215.655 127.419 215.671 127.412 215.685 127.403L217.417 126.258C217.438 126.244 217.456 126.225 217.468 126.203C217.479 126.181 217.486 126.156 217.486 126.131C217.486 126.105 217.48 126.081 217.468 126.058C217.456 126.036 217.439 126.017 217.418 126.003L215.616 124.813C215.6 124.802 215.581 124.794 215.562 124.79C215.542 124.786 215.522 124.786 215.503 124.79C215.484 124.795 215.465 124.802 215.449 124.814C215.432 124.825 215.418 124.839 215.407 124.856C215.397 124.873 215.389 124.891 215.385 124.911C215.382 124.931 215.382 124.951 215.386 124.971C215.39 124.99 215.398 125.009 215.409 125.025C215.42 125.042 215.435 125.056 215.451 125.067L217.06 126.13L215.52 127.148C215.49 127.168 215.468 127.198 215.458 127.232C215.448 127.267 215.45 127.304 215.464 127.337C215.479 127.37 215.504 127.396 215.536 127.412C215.568 127.428 215.605 127.432 215.639 127.423H215.639Z" fill="#969696"/>
<path d="M212.902 127.55C212.931 127.543 212.958 127.527 212.978 127.504C212.998 127.482 213.011 127.454 213.015 127.424C213.019 127.394 213.014 127.363 213.001 127.336C212.987 127.309 212.966 127.286 212.94 127.271L211.343 126.347L212.887 125.189C212.903 125.177 212.916 125.162 212.926 125.145C212.936 125.128 212.943 125.109 212.946 125.089C212.949 125.069 212.948 125.049 212.943 125.03C212.938 125.011 212.93 124.992 212.918 124.976C212.906 124.96 212.891 124.947 212.874 124.937C212.857 124.926 212.839 124.92 212.819 124.917C212.8 124.914 212.78 124.915 212.76 124.92C212.741 124.924 212.723 124.933 212.707 124.945L210.979 126.241C210.959 126.256 210.943 126.276 210.932 126.299C210.922 126.322 210.917 126.347 210.918 126.372C210.92 126.397 210.927 126.422 210.941 126.443C210.954 126.465 210.972 126.482 210.994 126.495L212.79 127.535C212.824 127.554 212.864 127.56 212.902 127.55Z" fill="#969696"/>
<path d="M215.467 128.426C215.481 128.422 215.495 128.417 215.508 128.409C215.525 128.398 215.54 128.385 215.551 128.368C215.563 128.352 215.572 128.334 215.576 128.315C215.581 128.295 215.582 128.275 215.579 128.255C215.576 128.236 215.569 128.217 215.559 128.2L213.102 124.123C213.081 124.088 213.048 124.064 213.009 124.054C212.97 124.045 212.929 124.051 212.895 124.072C212.861 124.093 212.836 124.127 212.827 124.166C212.818 124.205 212.824 124.247 212.845 124.281L215.301 128.358C215.318 128.386 215.343 128.407 215.373 128.419C215.403 128.432 215.436 128.434 215.467 128.426Z" fill="#969696"/>
<path d="M77.3634 79.3069H64.0525C63.5095 79.3069 63.0693 79.7512 63.0693 80.2994V81.6121C63.0693 82.1603 63.5095 82.6046 64.0525 82.6046H77.3634C77.9064 82.6046 78.3466 82.1603 78.3466 81.6121V80.2994C78.3466 79.7512 77.9064 79.3069 77.3634 79.3069Z" fill="#969696"/>
<path d="M85.1222 85.9022H56.2938C55.7507 85.9022 55.3105 86.3466 55.3105 86.8947V88.2074C55.3105 88.7556 55.7507 89.1999 56.2938 89.1999H85.1222C85.6652 89.1999 86.1054 88.7556 86.1054 88.2074V86.8947C86.1054 86.3466 85.6652 85.9022 85.1222 85.9022Z" fill="#E6E6E6"/>
<path d="M85.1222 92.4976H56.2938C55.7507 92.4976 55.3105 92.9419 55.3105 93.4901V94.8028C55.3105 95.3509 55.7507 95.7953 56.2938 95.7953H85.1222C85.6652 95.7953 86.1054 95.3509 86.1054 94.8028V93.4901C86.1054 92.9419 85.6652 92.4976 85.1222 92.4976Z" fill="#E6E6E6"/>
<path d="M87.5659 114.583L87.6312 114.791L87.6346 114.798L89.6001 120.83L91.8611 127.781L96.115 140.844L96.1562 142.873V142.88L96.4724 159.203L95.5962 161.416L96.5823 165.045C96.5823 165.045 96.1287 159.56 93.696 162.71C92.3181 164.5 90.7066 166.331 89.3836 168.048C91.3113 168.835 93.2699 169.548 95.2594 170.185C95.6889 170.323 96.1219 170.455 96.5548 170.587C96.6476 170.615 96.7404 170.642 96.8332 170.67C103.428 172.639 110.246 173.745 117.12 173.962C117.477 173.972 117.828 173.979 118.168 173.986C118.288 173.99 118.405 173.993 118.522 173.993C118.907 173.997 119.288 174 119.673 174C120.45 174 121.223 173.988 121.993 173.965C127.689 173.803 133.353 173.03 138.888 171.659C138.85 169.352 138.747 166.657 138.599 163.778C138.531 162.366 136.988 160.837 136.895 159.359C136.83 158.249 138.214 157.205 138.142 156.078C137.675 149.137 137.091 151.801 136.658 146.886C136.613 146.404 136.572 145.943 136.534 145.502C136.256 142.346 136.063 140.372 136.063 140.372L137.912 128.61L140.816 110.144L140.592 109.772L140.341 109.648L125.027 101.996L124.195 99.8453C123.953 99.2258 123.532 98.6935 122.988 98.3171C122.444 97.9407 121.8 97.7372 121.14 97.7329L111.052 97.6913C110.528 97.6889 110.012 97.8126 109.545 98.0521C109.078 98.2916 108.675 98.64 108.368 99.0684L105.637 102.887L87.5659 114.583Z" fill="#3F3D56"/>
<path d="M98.4414 137.938L96.1563 142.873L94.5964 146.245L91.9127 160.428L90.5692 161.867L89.4181 156.772L77.3703 159.472C76.9751 157.256 77.2645 159.547 77.0205 157.115C77.0892 157.046 77.1614 156.977 77.2335 156.907C77.426 156.727 77.5875 156.557 77.584 156.394C77.4466 148.007 77.8589 133.734 81.3019 125.086C81.8412 123.675 82.5522 122.336 83.4186 121.101C83.4873 121.007 83.5526 120.914 83.6179 120.82C85.2054 118.576 86.2087 116.366 87.6313 114.795V114.792C87.6401 114.784 87.6482 114.776 87.6553 114.767C87.6605 114.765 87.6652 114.761 87.6691 114.757L97.4414 109.526L97.8607 121.417L98.1596 129.963L98.4414 137.938Z" fill="#3F3D56"/>
<path d="M133.678 139.339L136.532 145.504L137.529 147.651L140.212 161.833L141.551 163.269L142.704 158.174L143.247 158.062L153.024 156.018L155.873 165.154C156.515 164.074 156.768 162.803 156.589 161.556C156.41 160.309 155.81 159.163 154.891 158.311C154.696 158.133 154.534 157.96 154.539 157.796C154.701 147.932 154.103 129.919 148.705 122.505C146.991 120.153 145.962 117.809 144.465 116.172C144.461 116.168 144.461 116.163 144.456 116.163L140.814 110.143L140.592 109.774L140.341 109.647L133.678 139.339Z" fill="#3F3D56"/>
<path d="M116.387 94.7931C123.8 94.7931 129.809 88.7273 129.809 81.2447C129.809 73.7622 123.8 67.6964 116.387 67.6964C108.975 67.6964 102.966 73.7622 102.966 81.2447C102.966 88.7273 108.975 94.7931 116.387 94.7931Z" fill="#FFB6B6"/>
<path d="M134.528 71.7812C134.424 71.669 134.299 71.5791 134.16 71.5169C134.02 71.4548 133.87 71.4216 133.718 71.4193L133.92 70.8538C133.986 70.6757 134.003 70.483 133.971 70.2957C133.939 70.1083 133.858 69.933 133.737 69.7876C133.615 69.6421 133.458 69.5319 133.281 69.4682C133.103 69.4044 132.912 69.3894 132.727 69.4247L131.992 69.5676L132.061 69.072C132.088 68.8874 132.066 68.699 131.999 68.5254C131.931 68.3517 131.82 68.1987 131.677 68.0816C131.533 67.9644 131.361 67.887 131.179 67.857C130.997 67.827 130.81 67.8454 130.637 67.9105C130.479 67.9731 130.31 67.9993 130.141 67.9872C129.972 67.9751 129.808 67.925 129.661 67.8406C129.513 67.7587 129.384 67.6453 129.285 67.5082C129.185 67.3712 129.116 67.2137 129.082 67.047L128.826 65.8003L128.799 65.7334C127.552 63.6354 125.154 62.109 122.221 61.5496C119.609 61.0479 116.931 61.3033 114.35 61.5435C113.326 61.6408 112.169 61.7502 111.205 62.3462C110.386 62.857 109.693 63.8787 109.835 64.9094C107.29 64.1219 104.561 65.6939 103.208 67.6764C101.606 70.0358 101.344 72.9913 101.301 75.3022C101.187 80.7691 102.304 85.2418 104.615 88.5987C104.783 88.8419 104.826 89.3497 105.16 89.52L105.091 89.4074C105.464 89.596 105.844 89.9 105.702 90.2254C105.296 91.1619 107.997 93.2325 109.901 93.9166C113.374 95.1663 117.992 95.0599 121.239 94.6099L121.353 93.8345C122.525 93.6734 123.35 93.3663 123.582 92.8859C123.992 92.5332 124.341 92.2169 124.645 91.925L124.648 91.922C124.654 91.9159 124.666 91.9068 124.673 91.9007C126.139 90.4808 126.48 89.672 126.633 88.4406C126.781 87.2334 126.519 86.0081 126.251 84.9043C131.896 85.7861 124.028 78.8353 129.287 77.4914C129.347 77.4726 129.409 77.4574 129.471 77.4458C129.624 77.4093 129.778 77.3728 129.926 77.3302C130.637 77.1353 131.318 76.8416 131.95 76.4576C133.42 75.5545 133.905 74.3565 134.664 73.0065C134.773 72.8143 134.819 72.5918 134.795 72.3714C134.77 72.151 134.677 71.9443 134.528 71.7812Z" fill="#2F2E41"/>
<path d="M163.857 140.304C163.854 140.836 163.848 141.581 163.824 142.502C163.821 142.63 163.818 142.761 163.815 142.894C163.776 144.588 163.737 146.008 163.674 147.586C163.671 147.695 163.668 147.802 163.662 147.911C163.577 150.113 163.445 152.676 163.216 156.735C162.791 164.233 162.05 157.766 161.306 160.396C161.27 160.527 161.231 160.682 161.195 160.864C161.082 161.526 160.892 162.172 160.628 162.789C160.234 163.026 159.827 163.254 159.426 163.482C158.285 164.124 157.125 164.741 155.957 165.328C155.3 165.656 154.64 165.978 153.978 166.289C153.872 166.337 153.77 166.386 153.667 166.432C150.274 168.016 146.777 169.363 143.2 170.463C142.501 170.676 141.806 170.883 141.101 171.075C140.366 171.281 139.631 171.476 138.887 171.658C133.352 173.03 127.689 173.804 121.992 173.966C121.224 173.99 120.45 174 119.672 174C119.287 174 118.907 173.997 118.522 173.993C118.404 173.993 118.287 173.99 118.169 173.987C117.829 173.978 117.477 173.972 117.121 173.963C110.247 173.747 103.429 172.64 96.8345 170.67L96.5544 170.588C96.1206 170.454 95.6899 170.323 95.2592 170.184C93.2711 169.548 91.3122 168.837 89.3825 168.049C87.9096 167.45 86.4537 166.808 85.0149 166.121C85.0018 166.118 84.9895 166.112 84.9788 166.103C84.6775 165.963 84.3733 165.817 84.0721 165.668C84.033 165.647 83.9908 165.626 83.9486 165.605C82.8251 165.051 81.7136 164.471 80.6142 163.865C79.6895 161.722 78.3882 161.311 77.581 159.426C77.346 158.866 77.1762 158.28 77.0749 157.681C77.0749 157.675 77.0719 157.669 77.0719 157.659C77.1563 158.791 76.7135 155.653 77.0689 157.647C77.0659 157.611 77.0629 157.571 77.0599 157.526C77.0508 157.416 77.0388 157.282 77.0207 157.115C75.9876 146.932 76.0538 135.287 75.605 125.691C75.5749 125.07 75.5438 124.476 75.5117 123.909C75.5026 123.72 75.4906 123.535 75.4785 123.353C75.4996 123.298 75.5237 123.24 75.5508 123.185C75.5566 123.169 75.5636 123.154 75.5719 123.14C75.5808 123.121 75.5908 123.103 75.602 123.085C75.608 123.076 75.6171 123.064 75.6231 123.055C75.6275 123.044 75.6325 123.034 75.6382 123.024C75.6653 122.982 75.6954 122.936 75.7285 122.893C75.7436 122.875 75.7556 122.86 75.7707 122.845C75.7811 122.829 75.7932 122.815 75.8068 122.802C75.8161 122.788 75.8272 122.774 75.84 122.763C75.852 122.75 75.8641 122.735 75.8791 122.72C75.8856 122.711 75.8937 122.702 75.9032 122.696C75.927 122.668 75.9533 122.643 75.9815 122.62C76.089 122.52 76.2038 122.428 76.3249 122.346C76.3671 122.319 76.4123 122.291 76.4544 122.261C76.758 122.078 77.0776 121.923 77.4093 121.799C77.5238 121.756 77.6382 121.717 77.7617 121.674C77.8069 121.662 77.8491 121.647 77.8942 121.632C77.9605 121.61 78.0268 121.589 78.0961 121.574C78.4394 121.47 78.8099 121.382 79.2105 121.3C79.2587 121.291 79.3099 121.282 79.3611 121.27C79.4334 121.255 79.5087 121.242 79.584 121.23C79.6865 121.212 79.7919 121.194 79.8973 121.175C80.7919 121.033 81.807 120.926 82.9275 120.856C83.0329 120.85 83.1384 120.844 83.2438 120.838C83.3673 120.832 83.4908 120.826 83.6173 120.82C83.7227 120.814 83.8311 120.811 83.9396 120.808C84.045 120.801 84.1534 120.798 84.2649 120.795C84.5691 120.786 84.8824 120.777 85.2017 120.771C86.1113 120.753 87.0692 120.759 88.0752 120.78C88.5421 120.792 89.018 120.804 89.506 120.826C89.5391 120.826 89.5693 120.829 89.5994 120.829C90.0241 120.844 90.4518 120.862 90.8916 120.887C91.1988 120.902 91.5091 120.917 91.8193 120.935C92.1115 120.954 92.4067 120.972 92.7049 120.993C92.9368 121.005 93.1687 121.023 93.4037 121.039C93.6025 121.054 93.8013 121.069 94.0001 121.081L94.2712 121.099C94.4188 121.112 94.5664 121.121 94.717 121.136C95.0483 121.163 95.3796 121.191 95.717 121.218C96.0513 121.248 96.3917 121.279 96.7321 121.309C97.0724 121.34 97.4158 121.373 97.7592 121.407C97.7954 121.41 97.8285 121.413 97.8616 121.416C98.1749 121.449 98.4881 121.48 98.8044 121.513C98.8767 121.519 98.952 121.525 99.0243 121.534C99.3258 121.565 99.6333 121.601 99.9376 121.633C100.031 121.643 100.124 121.653 100.218 121.664C100.456 121.69 100.691 121.713 100.931 121.741C101.247 121.777 101.57 121.811 101.883 121.854C102.127 121.881 102.371 121.908 102.615 121.939C102.997 121.984 103.386 122.033 103.774 122.085C103.922 122.103 104.07 122.121 104.217 122.142C105.326 122.282 106.446 122.437 107.585 122.598C109.311 122.845 111.064 123.112 112.829 123.401C114.597 123.69 116.375 123.995 118.163 124.316C118.615 124.398 119.067 124.481 119.522 124.566C119.727 124.605 119.931 124.645 120.136 124.684C120.486 124.748 120.835 124.815 121.184 124.882C121.534 124.949 121.883 125.016 122.233 125.086C122.648 125.168 123.067 125.25 123.483 125.332C126.221 125.879 128.944 126.463 131.6 127.074C132.037 127.175 132.474 127.278 132.908 127.378C133.775 127.582 134.635 127.789 135.486 127.999C135.721 128.053 135.953 128.111 136.185 128.169C136.763 128.315 137.342 128.461 137.911 128.61L138.01 128.637C138.429 128.74 138.839 128.847 139.248 128.956C140.215 129.212 141.166 129.47 142.101 129.732C142.721 129.905 143.335 130.08 143.941 130.258C144.848 130.522 145.736 130.79 146.601 131.06C146.815 131.127 147.029 131.194 147.239 131.258C147.872 131.456 148.495 131.656 149.101 131.857C149.583 132.015 150.053 132.176 150.517 132.337C150.98 132.499 151.435 132.66 151.881 132.821C152.167 132.924 152.45 133.034 152.734 133.137C153.14 133.289 153.541 133.441 153.932 133.593C154.053 133.639 154.17 133.687 154.288 133.733C154.363 133.767 154.435 133.794 154.508 133.824C154.649 133.882 154.794 133.937 154.932 133.995C155.074 134.049 155.212 134.107 155.351 134.168C155.487 134.223 155.625 134.28 155.758 134.338C155.893 134.393 156.026 134.451 156.158 134.511C156.27 134.557 156.378 134.606 156.484 134.654C156.697 134.749 156.911 134.843 157.119 134.94C157.222 134.989 157.324 135.034 157.426 135.083L157.661 135.193C157.695 135.211 157.728 135.226 157.761 135.241C157.836 135.278 157.914 135.317 157.99 135.354C158.164 135.436 158.336 135.524 158.505 135.606C158.731 135.722 158.951 135.837 159.161 135.95C159.375 136.065 159.583 136.181 159.782 136.293C159.815 136.311 159.845 136.33 159.878 136.348C159.923 136.372 159.969 136.4 160.014 136.424C160.167 136.512 160.315 136.603 160.463 136.692C160.752 136.871 161.026 137.047 161.282 137.224C161.339 137.263 161.393 137.303 161.451 137.339C161.64 137.476 161.821 137.61 161.99 137.747C161.99 137.75 161.99 137.75 161.993 137.75C162.05 137.792 162.104 137.838 162.158 137.88C162.204 137.923 162.252 137.959 162.297 138.002C162.454 138.139 162.598 138.27 162.731 138.403C162.775 138.445 162.817 138.488 162.857 138.534C162.875 138.549 162.891 138.565 162.905 138.583C162.966 138.644 163.02 138.704 163.071 138.765C163.079 138.774 163.086 138.783 163.092 138.793C163.165 138.878 163.231 138.963 163.294 139.048C163.324 139.091 163.357 139.133 163.384 139.176C163.421 139.227 163.457 139.282 163.487 139.334C163.514 139.376 163.538 139.422 163.562 139.465C163.626 139.574 163.68 139.689 163.725 139.808C163.759 139.889 163.786 139.972 163.806 140.057C163.829 140.138 163.846 140.221 163.857 140.304Z" fill="#2F2E41"/>
<path opacity="0.2" d="M163.857 140.304C163.854 140.836 163.848 141.581 163.824 142.502C163.821 142.63 163.815 142.761 163.812 142.894C163.782 144.187 163.737 145.783 163.674 147.586C163.671 147.696 163.668 147.802 163.662 147.911C163.577 150.113 163.445 152.676 163.216 156.735C162.791 164.233 162.05 157.766 161.306 160.396C159.24 159.113 156.975 157.769 154.553 156.389C154.116 156.139 153.675 155.889 153.231 155.638C148.387 152.91 142.977 150.052 137.33 147.221C137.107 147.109 136.881 146.996 136.658 146.887C123.721 140.432 109.6 134.153 98.1599 129.963C95.952 129.154 93.8435 128.424 91.8615 127.783C87.6867 126.436 84.0782 125.493 81.301 125.086C78.4094 124.66 76.4124 124.812 75.6051 125.691C75.575 125.071 75.5438 124.477 75.5117 123.909C75.4997 123.721 75.4876 123.535 75.4756 123.353C75.4942 123.303 75.5183 123.255 75.5417 123.207C75.5451 123.2 75.5474 123.192 75.5509 123.185C75.5567 123.17 75.5637 123.154 75.572 123.14C75.5809 123.121 75.5909 123.103 75.6021 123.085C75.6119 123.063 75.624 123.043 75.6382 123.024C75.6654 122.982 75.6955 122.936 75.7286 122.893C75.753 122.862 75.7791 122.831 75.8069 122.802C75.8162 122.788 75.8273 122.774 75.8401 122.763C75.8521 122.751 75.8641 122.735 75.8792 122.72C75.8856 122.711 75.8938 122.702 75.9033 122.696C75.9271 122.668 75.9533 122.643 75.9816 122.62C76.0891 122.52 76.2039 122.429 76.325 122.346C76.3672 122.319 76.4124 122.291 76.4545 122.261C76.7581 122.078 77.0777 121.923 77.4094 121.799C77.5238 121.756 77.6383 121.717 77.7618 121.674C77.807 121.662 77.8491 121.647 77.8943 121.632C77.9606 121.61 78.0269 121.589 78.0961 121.574C78.4395 121.47 78.81 121.382 79.2106 121.3C79.3311 121.276 79.4576 121.252 79.5841 121.23C79.6865 121.212 79.792 121.194 79.8974 121.176C80.792 121.033 81.8071 120.926 82.9276 120.856C83.033 120.85 83.1384 120.844 83.2439 120.838C83.3674 120.832 83.4908 120.826 83.6174 120.82C83.7228 120.814 83.8312 120.811 83.9397 120.808C84.0451 120.802 84.1535 120.799 84.265 120.795C84.5692 120.786 84.8825 120.777 85.2017 120.771C86.1114 120.756 87.0693 120.762 88.0753 120.783C88.5422 120.792 89.0181 120.808 89.5061 120.829C89.5362 120.829 89.5693 120.832 89.5994 120.832C90.0241 120.844 90.4549 120.865 90.8916 120.887C91.1989 120.902 91.5091 120.917 91.8194 120.935C92.1115 120.954 92.4067 120.972 92.7049 120.993C92.9369 121.005 93.1688 121.024 93.4037 121.039C93.6025 121.054 93.8013 121.069 94.0001 121.081C94.2381 121.1 94.4761 121.118 94.717 121.136C95.0484 121.163 95.3797 121.191 95.7171 121.218C96.0514 121.249 96.3918 121.279 96.7321 121.309C97.0725 121.34 97.4159 121.373 97.7593 121.407C97.7954 121.41 97.8285 121.413 97.8617 121.416C98.1749 121.449 98.4882 121.48 98.8045 121.513C100.558 121.692 102.362 121.902 104.217 122.142C105.326 122.285 106.448 122.438 107.585 122.602C109.311 122.848 111.064 123.115 112.829 123.401C114.597 123.69 116.375 123.995 118.163 124.316C118.615 124.399 119.067 124.481 119.522 124.566C120.076 124.669 120.63 124.775 121.185 124.882C121.534 124.949 121.883 125.016 122.233 125.086C122.648 125.168 123.067 125.25 123.483 125.332C126.221 125.879 128.944 126.463 131.6 127.074C132.037 127.175 132.474 127.278 132.908 127.378C133.775 127.582 134.635 127.789 135.486 127.999C135.721 128.056 135.953 128.114 136.185 128.172C136.766 128.318 137.342 128.464 137.911 128.61V128.613C137.944 128.619 137.977 128.628 138.01 128.637C138.426 128.744 138.839 128.85 139.248 128.959C140.215 129.215 141.166 129.472 142.101 129.732C142.721 129.908 143.336 130.081 143.941 130.258C144.848 130.525 145.736 130.793 146.601 131.06C146.815 131.127 147.029 131.194 147.239 131.258C147.872 131.459 148.492 131.658 149.101 131.857C149.583 132.015 150.053 132.176 150.517 132.338C150.98 132.499 151.435 132.66 151.881 132.821C152.17 132.924 152.453 133.031 152.734 133.134C153.143 133.286 153.541 133.438 153.932 133.593C154.053 133.639 154.17 133.688 154.288 133.733C154.508 133.818 154.722 133.906 154.932 133.995C155.074 134.049 155.213 134.107 155.351 134.168C155.487 134.223 155.625 134.28 155.758 134.338C155.893 134.393 156.026 134.451 156.158 134.512C156.27 134.557 156.378 134.606 156.484 134.654C156.697 134.749 156.911 134.843 157.119 134.94C157.222 134.989 157.324 135.035 157.426 135.083L157.661 135.193C157.694 135.211 157.728 135.226 157.761 135.241C158.017 135.363 158.264 135.485 158.505 135.606C158.731 135.722 158.951 135.837 159.161 135.95C159.411 136.084 159.649 136.214 159.878 136.348C159.923 136.372 159.969 136.4 160.014 136.424C160.167 136.512 160.315 136.603 160.463 136.692C160.752 136.871 161.026 137.047 161.282 137.224C161.535 137.4 161.77 137.573 161.99 137.747C161.99 137.75 161.99 137.75 161.993 137.75C162.098 137.835 162.201 137.92 162.297 138.002C162.454 138.139 162.598 138.27 162.731 138.404C162.775 138.445 162.817 138.488 162.857 138.534C162.875 138.549 162.891 138.565 162.905 138.583C162.969 138.653 163.032 138.723 163.092 138.793C163.165 138.878 163.231 138.963 163.294 139.048C163.324 139.091 163.357 139.133 163.384 139.176C163.421 139.228 163.457 139.282 163.487 139.334C163.514 139.376 163.538 139.422 163.562 139.465C163.626 139.574 163.68 139.689 163.725 139.808C163.758 139.889 163.785 139.973 163.806 140.058C163.829 140.138 163.846 140.221 163.857 140.304Z" fill="black"/>
</g>
<defs>
<clipPath id="clip0_29_570">
<rect width="237" height="174" fill="white"/>
</clipPath>
</defs>
</svg>
