<svg width="400" height="300" viewBox="0 0 400 300" fill="none" xmlns="http://www.w3.org/2000/svg">
<g clip-path="url(#clip0_143_495)">
<path d="M352.228 274.361L352.618 263.965C356.679 261.389 361.208 260.028 365.813 260.001C359.476 266.15 360.268 278.004 355.971 286.273C353.223 291.473 348.631 294.907 343.492 295.605L338.189 299.459C336.716 289.715 338.912 279.694 344.199 272.037C345.682 269.931 347.383 268.056 349.261 266.455C350.531 270.43 352.228 274.361 352.228 274.361Z" fill="#F2F2F2"/>
<path d="M84.128 262.969L71.3295 258.37C69.651 250.277 69.6625 241.82 71.363 233.734C76.6335 247.165 91.6927 250.241 100.372 260.891C105.812 267.67 108.359 277.017 107.293 286.292L110.095 297.045C97.4059 295.958 85.7546 288.332 78.2103 276.176C76.1471 272.781 74.4523 269.092 73.1659 265.195C78.594 264.465 84.128 262.969 84.128 262.969H84.128Z" fill="#F2F2F2"/>
<path d="M307.882 297.759C307.88 298.074 307.774 298.375 307.588 298.599C307.401 298.82 307.148 298.943 306.885 298.942H302.878C302.329 298.944 301.883 298.418 301.881 297.767V153.951C301.881 150.781 300.984 148.208 299.883 148.202H50.4519C49.3455 148.208 48.4534 150.781 48.4484 153.951V296.878C48.4467 297.487 48.057 297.995 47.5464 298.055C46.739 298.15 45.9317 298.232 45.1293 298.309C45.1093 298.309 45.0894 298.315 45.0695 298.315C44.6309 298.363 44.1923 298.398 43.7537 298.439H43.7488C43.5195 297.949 43.3002 297.446 43.076 296.943C43.0041 296.772 42.9665 296.584 42.9663 296.393V146.493C42.9663 145.618 42.9962 144.736 43.0461 143.867C43.1172 142.673 43.2419 141.485 43.4198 140.306C44.2621 134.812 46.1659 131.091 48.3288 131.08H302.001C302.316 131.082 302.628 131.161 302.918 131.31C303.343 131.534 303.727 131.853 304.049 132.251C304.486 132.79 304.86 133.397 305.16 134.055C306.227 136.284 306.99 139.609 307.259 143.477C307.259 143.512 307.264 143.548 307.264 143.583C307.333 144.541 307.368 145.517 307.363 146.493L307.433 159.168L307.478 166.727L307.613 190.445L307.662 198.867L307.882 297.759Z" fill="#E6E6E6"/>
<path d="M215.309 87.2325H189.889C189.141 87.2338 188.534 87.9551 188.535 88.8438V136.5H216.667V88.8438C216.667 87.9544 216.06 87.233 215.311 87.2325H215.309ZM202.685 114.31C201.03 114.301 199.691 112.712 199.683 110.748V105.251C199.683 103.284 201.027 101.689 202.685 101.689C204.343 101.689 205.687 103.284 205.687 105.251V110.748C205.679 112.712 204.339 114.301 202.685 114.31Z" fill="#CCCCCC"/>
<path d="M188.448 134.976V139.574C188.449 140.07 188.787 140.471 189.205 140.472H215.997C216.414 140.47 216.752 140.069 216.754 139.574V134.976H188.448Z" fill="#3F3D56"/>
<path d="M257.402 12.8595H148.742C146.798 12.8632 145.223 14.7322 145.22 17.039V104.059C145.222 106.366 146.798 108.236 148.742 108.238H257.402C259.346 108.236 260.922 106.366 260.923 104.059V17.039C260.92 14.7322 259.345 12.8632 257.402 12.8595Z" fill="#E6E6E6"/>
<path d="M256.495 15.8783H149.65C148.609 15.881 147.767 16.883 147.767 18.1182V102.981C147.768 104.215 148.611 105.214 149.65 105.216H256.495C257.534 105.214 258.377 104.215 258.378 102.981V18.1181C258.378 16.883 257.536 15.881 256.495 15.8783Z" fill="white"/>
<path d="M235.684 142.072H172.117C171.471 142.072 170.947 141.451 170.947 140.685C170.947 140.589 170.956 140.493 170.972 140.399L171.959 134.839C172.074 134.198 172.551 133.74 173.103 133.737H234.697C235.25 133.74 235.726 134.198 235.841 134.839L236.828 140.399C236.961 141.149 236.556 141.885 235.924 142.043C235.845 142.062 235.765 142.072 235.684 142.072Z" fill="#CCCCCC"/>
<path d="M175.268 134.738H173.797C173.663 134.738 173.554 134.868 173.554 135.027V135.844C173.554 136.003 173.663 136.132 173.797 136.132H175.268C175.403 136.132 175.512 136.003 175.512 135.844V135.027C175.512 134.868 175.403 134.738 175.268 134.738Z" fill="#E6E6E6"/>
<path d="M179.184 134.738H177.713C177.579 134.738 177.47 134.868 177.47 135.027V135.844C177.47 136.003 177.579 136.132 177.713 136.132H179.184C179.319 136.132 179.428 136.003 179.428 135.844V135.027C179.428 134.868 179.319 134.738 179.184 134.738Z" fill="#E6E6E6"/>
<path d="M183.1 134.738H181.629C181.494 134.738 181.385 134.868 181.385 135.027V135.844C181.385 136.003 181.494 136.132 181.629 136.132H183.1C183.234 136.132 183.343 136.003 183.343 135.844V135.027C183.343 134.868 183.234 134.738 183.1 134.738Z" fill="#E6E6E6"/>
<path d="M187.015 134.738H185.544C185.41 134.738 185.301 134.868 185.301 135.027V135.844C185.301 136.003 185.41 136.132 185.544 136.132H187.015C187.15 136.132 187.259 136.003 187.259 135.844V135.027C187.259 134.868 187.15 134.738 187.015 134.738Z" fill="#E6E6E6"/>
<path d="M190.931 134.738H189.46C189.325 134.738 189.216 134.868 189.216 135.027V135.844C189.216 136.003 189.325 136.132 189.46 136.132H190.931C191.065 136.132 191.174 136.003 191.174 135.844V135.027C191.174 134.868 191.065 134.738 190.931 134.738Z" fill="#E6E6E6"/>
<path d="M194.846 134.738H193.375C193.241 134.738 193.132 134.868 193.132 135.027V135.844C193.132 136.003 193.241 136.132 193.375 136.132H194.846C194.981 136.132 195.09 136.003 195.09 135.844V135.027C195.09 134.868 194.981 134.738 194.846 134.738Z" fill="#E6E6E6"/>
<path d="M198.762 134.738H197.291C197.156 134.738 197.047 134.868 197.047 135.027V135.844C197.047 136.003 197.156 136.132 197.291 136.132H198.762C198.896 136.132 199.005 136.003 199.005 135.844V135.027C199.005 134.868 198.896 134.738 198.762 134.738Z" fill="#E6E6E6"/>
<path d="M202.678 134.738H201.207C201.072 134.738 200.963 134.868 200.963 135.027V135.844C200.963 136.003 201.072 136.132 201.207 136.132H202.678C202.812 136.132 202.921 136.003 202.921 135.844V135.027C202.921 134.868 202.812 134.738 202.678 134.738Z" fill="#E6E6E6"/>
<path d="M206.593 134.738H205.122C204.988 134.738 204.879 134.868 204.879 135.027V135.844C204.879 136.003 204.988 136.132 205.122 136.132H206.593C206.728 136.132 206.837 136.003 206.837 135.844V135.027C206.837 134.868 206.728 134.738 206.593 134.738Z" fill="#E6E6E6"/>
<path d="M210.509 134.738H209.038C208.903 134.738 208.794 134.868 208.794 135.027V135.844C208.794 136.003 208.903 136.132 209.038 136.132H210.509C210.643 136.132 210.752 136.003 210.752 135.844V135.027C210.752 134.868 210.643 134.738 210.509 134.738Z" fill="#E6E6E6"/>
<path d="M214.424 134.738H212.953C212.819 134.738 212.71 134.868 212.71 135.027V135.844C212.71 136.003 212.819 136.132 212.953 136.132H214.424C214.559 136.132 214.668 136.003 214.668 135.844V135.027C214.668 134.868 214.559 134.738 214.424 134.738Z" fill="#E6E6E6"/>
<path d="M218.34 134.738H216.869C216.734 134.738 216.625 134.868 216.625 135.027V135.844C216.625 136.003 216.734 136.132 216.869 136.132H218.34C218.474 136.132 218.583 136.003 218.583 135.844V135.027C218.583 134.868 218.474 134.738 218.34 134.738Z" fill="#E6E6E6"/>
<path d="M222.256 134.738H220.784C220.65 134.738 220.541 134.868 220.541 135.027V135.844C220.541 136.003 220.65 136.132 220.784 136.132H222.256C222.39 136.132 222.499 136.003 222.499 135.844V135.027C222.499 134.868 222.39 134.738 222.256 134.738Z" fill="#E6E6E6"/>
<path d="M226.171 134.738H224.7C224.565 134.738 224.457 134.868 224.457 135.027V135.844C224.457 136.003 224.565 136.132 224.7 136.132H226.171C226.305 136.132 226.414 136.003 226.414 135.844V135.027C226.414 134.868 226.305 134.738 226.171 134.738Z" fill="#E6E6E6"/>
<path d="M230.087 134.738H228.616C228.481 134.738 228.373 134.868 228.373 135.027V135.844C228.373 136.003 228.481 136.132 228.616 136.132H230.087C230.221 136.132 230.33 136.003 230.33 135.844V135.027C230.33 134.868 230.221 134.738 230.087 134.738Z" fill="#E6E6E6"/>
<path d="M234.003 134.738H232.531C232.397 134.738 232.288 134.868 232.288 135.027V135.844C232.288 136.003 232.397 136.132 232.531 136.132H234.003C234.137 136.132 234.246 136.003 234.246 135.844V135.027C234.246 134.868 234.137 134.738 234.003 134.738Z" fill="#E6E6E6"/>
<path d="M175.222 137.062H173.751C173.617 137.062 173.508 137.191 173.508 137.351V138.167C173.508 138.327 173.617 138.456 173.751 138.456H175.222C175.357 138.456 175.466 138.327 175.466 138.167V137.351C175.466 137.191 175.357 137.062 175.222 137.062Z" fill="#E6E6E6"/>
<path d="M179.138 137.062H177.667C177.532 137.062 177.423 137.191 177.423 137.351V138.167C177.423 138.327 177.532 138.456 177.667 138.456H179.138C179.272 138.456 179.381 138.327 179.381 138.167V137.351C179.381 137.191 179.272 137.062 179.138 137.062Z" fill="#E6E6E6"/>
<path d="M183.053 137.062H181.582C181.448 137.062 181.339 137.191 181.339 137.351V138.167C181.339 138.327 181.448 138.456 181.582 138.456H183.053C183.188 138.456 183.297 138.327 183.297 138.167V137.351C183.297 137.191 183.188 137.062 183.053 137.062Z" fill="#E6E6E6"/>
<path d="M186.969 137.062H185.498C185.363 137.062 185.254 137.191 185.254 137.351V138.167C185.254 138.327 185.363 138.456 185.498 138.456H186.969C187.103 138.456 187.212 138.327 187.212 138.167V137.351C187.212 137.191 187.103 137.062 186.969 137.062Z" fill="#E6E6E6"/>
<path d="M190.884 137.062H189.413C189.279 137.062 189.17 137.191 189.17 137.351V138.167C189.17 138.327 189.279 138.456 189.413 138.456H190.884C191.019 138.456 191.128 138.327 191.128 138.167V137.351C191.128 137.191 191.019 137.062 190.884 137.062Z" fill="#E6E6E6"/>
<path d="M194.8 137.062H193.329C193.195 137.062 193.086 137.191 193.086 137.351V138.167C193.086 138.327 193.195 138.456 193.329 138.456H194.8C194.935 138.456 195.044 138.327 195.044 138.167V137.351C195.044 137.191 194.935 137.062 194.8 137.062Z" fill="#E6E6E6"/>
<path d="M198.716 137.062H197.245C197.11 137.062 197.001 137.191 197.001 137.351V138.167C197.001 138.327 197.11 138.456 197.245 138.456H198.716C198.85 138.456 198.959 138.327 198.959 138.167V137.351C198.959 137.191 198.85 137.062 198.716 137.062Z" fill="#E6E6E6"/>
<path d="M202.632 137.062H201.16C201.026 137.062 200.917 137.191 200.917 137.351V138.167C200.917 138.327 201.026 138.456 201.16 138.456H202.632C202.766 138.456 202.875 138.327 202.875 138.167V137.351C202.875 137.191 202.766 137.062 202.632 137.062Z" fill="#E6E6E6"/>
<path d="M206.547 137.062H205.076C204.941 137.062 204.833 137.191 204.833 137.351V138.167C204.833 138.327 204.941 138.456 205.076 138.456H206.547C206.681 138.456 206.79 138.327 206.79 138.167V137.351C206.79 137.191 206.681 137.062 206.547 137.062Z" fill="#E6E6E6"/>
<path d="M210.463 137.062H208.991C208.857 137.062 208.748 137.191 208.748 137.351V138.167C208.748 138.327 208.857 138.456 208.991 138.456H210.463C210.597 138.456 210.706 138.327 210.706 138.167V137.351C210.706 137.191 210.597 137.062 210.463 137.062Z" fill="#E6E6E6"/>
<path d="M214.378 137.062H212.907C212.773 137.062 212.664 137.191 212.664 137.351V138.167C212.664 138.327 212.773 138.456 212.907 138.456H214.378C214.512 138.456 214.621 138.327 214.621 138.167V137.351C214.621 137.191 214.512 137.062 214.378 137.062Z" fill="#E6E6E6"/>
<path d="M218.294 137.062H216.822C216.688 137.062 216.579 137.191 216.579 137.351V138.167C216.579 138.327 216.688 138.456 216.822 138.456H218.294C218.428 138.456 218.537 138.327 218.537 138.167V137.351C218.537 137.191 218.428 137.062 218.294 137.062Z" fill="#E6E6E6"/>
<path d="M222.21 137.062H220.738C220.604 137.062 220.495 137.191 220.495 137.351V138.167C220.495 138.327 220.604 138.456 220.738 138.456H222.21C222.344 138.456 222.453 138.327 222.453 138.167V137.351C222.453 137.191 222.344 137.062 222.21 137.062Z" fill="#E6E6E6"/>
<path d="M226.125 137.062H224.654C224.52 137.062 224.411 137.191 224.411 137.351V138.167C224.411 138.327 224.52 138.456 224.654 138.456H226.125C226.26 138.456 226.368 138.327 226.368 138.167V137.351C226.368 137.191 226.26 137.062 226.125 137.062Z" fill="#E6E6E6"/>
<path d="M230.041 137.062H228.569C228.435 137.062 228.326 137.191 228.326 137.351V138.167C228.326 138.327 228.435 138.456 228.569 138.456H230.041C230.175 138.456 230.284 138.327 230.284 138.167V137.351C230.284 137.191 230.175 137.062 230.041 137.062Z" fill="#E6E6E6"/>
<path d="M233.956 137.062H232.485C232.351 137.062 232.242 137.191 232.242 137.351V138.167C232.242 138.327 232.351 138.456 232.485 138.456H233.956C234.091 138.456 234.199 138.327 234.199 138.167V137.351C234.199 137.191 234.091 137.062 233.956 137.062Z" fill="#E6E6E6"/>
<path d="M207.722 139.85H192.546C192.412 139.85 192.303 139.979 192.303 140.139V140.955C192.303 141.115 192.412 141.244 192.546 141.244H207.722C207.856 141.244 207.965 141.115 207.965 140.955V140.139C207.965 139.979 207.856 139.85 207.722 139.85Z" fill="#E6E6E6"/>
<path d="M251.124 27.5705H151.15C150.93 27.5648 150.756 27.3489 150.761 27.0883C150.766 26.8358 150.937 26.6324 151.15 26.6268H251.124C251.344 26.6326 251.518 26.8485 251.513 27.109C251.508 27.3616 251.337 27.5649 251.124 27.5705Z" fill="#CACACA"/>
<path d="M157.955 24.2177C159.242 24.2177 160.285 22.9522 160.285 21.391C160.285 19.8298 159.242 18.5642 157.955 18.5642C156.668 18.5642 155.625 19.8298 155.625 21.391C155.625 22.9522 156.668 24.2177 157.955 24.2177Z" fill="#CCCCCC"/>
<path d="M166.004 24.2177C167.291 24.2177 168.334 22.9522 168.334 21.391C168.334 19.8298 167.291 18.5642 166.004 18.5642C164.717 18.5642 163.674 19.8298 163.674 21.391C163.674 22.9522 164.717 24.2177 166.004 24.2177Z" fill="#CCCCCC"/>
<path d="M174.053 24.2177C175.339 24.2177 176.383 22.9522 176.383 21.391C176.383 19.8298 175.339 18.5642 174.053 18.5642C172.766 18.5642 171.723 19.8298 171.723 21.391C171.723 22.9522 172.766 24.2177 174.053 24.2177Z" fill="#CCCCCC"/>
<path d="M201.034 34.7247L200.711 33.6051L242.006 8.14148L242.328 9.26111L201.034 34.7247Z" fill="#3F3D56"/>
<path d="M325.628 81.889L325.305 80.7693L350.153 55.4347L350.475 56.5537L325.628 81.889Z" fill="#3F3D56"/>
<path d="M277.888 87.7864L236.594 62.3228L236.917 61.2032L278.211 86.6668L277.888 87.7864Z" fill="#3F3D56"/>
<path d="M299.027 70.0674L274.818 22.9008L275.583 22.1419L299.791 69.3085L299.027 70.0674Z" fill="#3F3D56"/>
<path d="M317.919 8.60812L294.343 8.47919V7.29626L317.919 7.4252V8.60812Z" fill="#3F3D56"/>
<path d="M360.628 15.9455H334.215C330.637 15.9455 327.736 12.503 327.736 8.2565C327.736 4.00998 330.637 0.567505 334.215 0.567505H360.628C364.207 0.567505 367.107 4.00998 367.107 8.2565C367.107 12.503 364.207 15.9455 360.628 15.9455Z" fill="#921C00"/>
<path d="M393.521 60.8965H367.107C363.529 60.8965 360.628 57.4541 360.628 53.2075C360.628 48.961 363.529 45.5186 367.107 45.5186H393.521C397.099 45.5186 400 48.961 400 53.2075C400 57.4541 397.099 60.8965 393.521 60.8965Z" fill="#921C00"/>
<path d="M350.812 92.595L327.235 92.4666V91.2837L350.812 91.412V92.595Z" fill="#3F3D56"/>
<path d="M393.521 99.9329H367.107C363.529 99.9329 360.628 96.4904 360.628 92.2439C360.628 87.9974 363.529 84.5549 367.107 84.5549H393.521C397.099 84.5549 400 87.9974 400 92.2439C400 96.4904 397.099 99.9329 393.521 99.9329Z" fill="#921C00"/>
<path d="M316.273 94.6337H289.86C286.282 94.6337 283.381 91.1912 283.381 86.9447C283.381 82.6982 286.282 79.2557 289.86 79.2557H316.273C319.852 79.2557 322.752 82.6982 322.752 86.9447C322.752 91.1912 319.852 94.6337 316.273 94.6337Z" fill="#921C00"/>
<path d="M280.39 15.378H253.976C250.398 15.378 247.498 11.9355 247.498 7.68899C247.498 3.44248 250.398 0 253.976 0H280.39C283.968 0 286.869 3.44248 286.869 7.68899C286.869 11.9355 283.968 15.378 280.39 15.378Z" fill="#921C00"/>
<path d="M154.138 147.38H124.236C122.034 147.38 120.249 149.499 120.249 152.112C120.249 154.725 122.034 156.844 124.236 156.844H135.2V193.514H143.174V156.844H154.138C156.34 156.844 158.125 154.725 158.125 152.112C158.125 149.499 156.34 147.38 154.138 147.38Z" fill="#3F3D56"/>
<path d="M173.874 213.823H93.8938C77.8668 213.754 64.3072 199.746 62.0395 180.917L59.2084 168.558C53.3486 142.947 44.423 118.467 32.7043 95.8655C27.3481 85.5423 24.5913 75.5495 30.8529 65.9286C30.9062 65.8467 30.9586 65.7659 31.0102 65.6863C36.0324 57.9285 61.0294 56.2492 69.1783 55.9225C69.5003 55.9095 69.8234 55.9031 70.1478 55.9032H119.895C120.219 55.9032 120.543 55.9097 120.864 55.9225C129.814 56.2322 137.898 62.3475 141.914 71.8452C146.198 81.5421 145.651 93.2475 140.49 102.323C123.016 133.476 117.665 153.01 123.143 165.66C128.441 177.895 144.683 184.151 174.255 185.346C182.202 185.668 185.85 193.012 185.875 199.699C185.9 206.214 182.394 213.407 174.636 213.804C174.384 213.817 174.13 213.823 173.874 213.823Z" fill="#3F3D56"/>
<path d="M107.481 298.106H137.384C139.585 298.106 141.371 295.988 141.371 293.375C141.371 290.761 139.585 288.643 137.384 288.643H126.419V208.796H118.445V288.643H107.481C105.279 288.643 103.494 290.761 103.494 293.375C103.494 295.988 105.279 298.106 107.481 298.106Z" fill="#3F3D56"/>
<path d="M134.545 265.916L139.697 269.237L153.333 246.861L145.73 241.96L134.545 265.916Z" fill="#A0616A"/>
<path d="M137.025 257.943L146.377 261.418L144.888 266.067L151.301 277.113C152.121 278.525 151.821 280.46 150.631 281.434C149.922 282.013 149.019 282.143 148.215 281.78L137.329 276.871L136.925 271.426L134.72 275.695L130.615 273.844L137.025 257.943V257.943Z" fill="#2F2E41"/>
<path d="M147.561 40.264C148.022 44.0182 145.832 47.5055 142.668 48.0531C142.331 48.1114 141.99 48.1343 141.65 48.1215L121.789 98.2746L115.56 87.9657L136.005 40.5416C136.319 36.7454 139.167 33.9702 142.365 34.343C145.042 34.6549 147.19 37.1028 147.561 40.264V40.264Z" fill="#A0616A"/>
<path d="M81.6508 108.415C81.6508 108.415 81.1186 117.177 89.4679 118.895C97.8172 120.614 120.137 103.863 123.803 101.291C127.469 98.7192 134.3 66.3592 134.3 66.3592L128.359 54.4343C121.024 65.4455 115.264 75.5991 114.914 82.8066L81.6509 108.415H81.6508Z" fill="#921C00"/>
<path d="M91.2896 138.595L93.0928 147.79C93.0928 147.79 93.1105 156.269 94.3757 157.832C95.6321 159.388 123.259 156.264 123.259 156.264C123.259 156.264 120.33 142.601 120.369 132.263L91.2896 138.595Z" fill="#A0616A"/>
<path d="M149.653 256.209L139.685 249.703C139.496 234.31 147.297 213.48 156.55 191.662C135.856 195.885 116.333 197.238 99.447 192.129C93.6787 190.321 90.2021 183.352 91.6411 176.48C91.7068 176.156 91.7828 175.835 91.8691 175.518C93.8901 168.2 89.3585 163.613 93.5265 155.564C104.489 151.121 114.903 149.866 124.426 153.79L130.392 169.447L159.967 164.905C165.947 164.056 171.375 169.122 172.09 176.219C172.093 176.251 172.096 176.284 172.099 176.316C172.139 176.697 172.165 177.08 172.177 177.464C166.197 210.735 159.492 240.672 149.653 256.209Z" fill="#2F2E41"/>
<path d="M87.2752 80.382L98.6685 79.5837C99.6534 79.5146 100.567 80.1947 100.943 81.2771L104.163 90.5404L117.544 103.666C117.544 103.666 122.842 111.667 122.854 122.001C122.867 132.334 124.734 156.252 124.734 156.252C124.734 156.252 117.002 143.336 112.229 146.771C111.417 147.355 111.132 148.551 110.281 149.155C109.857 149.456 108.877 149.163 108.449 149.465C101.872 154.098 95.0136 158.625 94.3728 157.831C93.1145 156.273 91.5882 148.31 91.5882 148.31L81.1591 102.834C80.0143 97.9894 80.7545 92.7909 83.1772 88.6617C83.9058 87.4442 84.6692 86.5385 85.3786 86.3887C86.9715 85.9862 86.1242 81.7494 87.2752 80.382Z" fill="#921C00"/>
<path d="M184.193 285.179L189.003 281.211L178.108 256.816L171.01 262.673L184.193 285.179Z" fill="#A0616A"/>
<path d="M184.92 268.811L177.383 276.806C165.398 260.958 156.338 238.731 148.66 213.489C128.543 206.497 113.372 195.22 100.128 181.83C95.6346 177.318 92.2665 171.522 96.0984 166.026C96.2776 165.769 96.4646 165.52 96.6596 165.28C101.184 159.762 112.658 160.813 119.378 155.758L134.389 174.801L133.445 179.906L161.642 191.241C167.318 193.602 170.307 200.977 168.317 207.713C168.308 207.746 168.298 207.779 168.288 207.812C168.182 208.175 168.064 208.532 167.932 208.884L184.92 268.811V268.811Z" fill="#2F2E41"/>
<path d="M181.389 283.57L189.088 276.375L191.48 280.459L202.782 280.418C204.228 280.413 205.404 281.799 205.408 283.515C205.411 284.536 204.991 285.493 204.284 286.076L194.722 293.965L190.708 291.285L192.43 295.855L188.825 298.83L181.389 283.57Z" fill="#2F2E41"/>
<path d="M104.099 194.989C101.157 193.506 99.7837 189.474 101.033 185.981C101.166 185.609 101.326 185.251 101.513 184.912L75.7197 138.718L86.3781 137.757L109.903 183.126C112.473 185.416 112.991 189.746 111.061 192.796C109.446 195.348 106.568 196.255 104.099 194.989V194.989Z" fill="#A0616A"/>
<path d="M89.269 92.7474C89.269 92.7474 83.2371 87.6562 77.6625 95.2304C72.088 102.805 72.5535 134.141 72.5011 139.194C72.4847 140.776 74.4101 144.191 77.0627 148.135C78.2537 149.906 79.5911 151.783 80.9653 153.649C81.7606 154.729 81.0754 156.977 81.8739 158.027C82.668 159.071 84.9459 158.917 85.7013 159.885C89.2867 164.484 92.1994 167.985 92.1994 167.985L103.871 168.155C104.003 157.858 98.0611 148.666 90.4274 139.783L89.269 92.7474Z" fill="#921C00"/>
<path d="M77.5041 47.9129C76.3991 48.8595 75.2365 49.8347 73.8881 50.0692C72.5397 50.3038 70.9611 49.5302 70.5879 47.9746C70.1316 46.0726 71.5788 44.3409 72.8795 43.1048L77.004 39.1851C77.7593 38.3902 78.6119 37.7359 79.5328 37.2447C80.4697 36.7555 81.5432 36.7981 82.4504 37.3605C83.3518 38.0828 83.873 39.3083 83.8275 40.5979C83.7687 41.8691 83.4152 43.0963 82.806 44.1442C81.2589 47.0061 78.7943 48.9943 75.9827 49.6487" fill="#2F2E41"/>
<path d="M108.786 149.746H78.884C76.682 149.746 74.897 151.865 74.897 154.478C74.897 157.091 76.682 159.21 78.884 159.21H89.8482V195.88H97.8221V159.21H108.786C110.988 159.21 112.773 157.091 112.773 154.478C112.773 151.865 110.988 149.746 108.786 149.746Z" fill="#3F3D56"/>
<path d="M79.3363 37.9857C79.4566 34.438 76.2711 31.6289 73.2861 31.8509C70.3012 32.073 67.7352 34.5648 66.0424 37.4922C64.3501 40.417 63.3335 43.8048 62.0003 46.9805C60.6671 50.1562 58.8917 53.2656 56.2425 54.9113C53.5938 56.5545 49.9068 56.2613 48.076 53.4557C46.9214 55.5336 46.6703 58.14 47.3999 60.4736C48.1494 62.7769 49.5471 64.7017 51.3561 65.9215C52.0761 66.4282 52.8452 66.8296 53.6466 67.1168C53.977 66.0583 54.442 65.066 55.0252 64.1743C54.7618 65.2299 54.6612 66.3333 54.7284 67.4314C55.9636 67.7123 57.2342 67.6886 58.4613 67.3616C60.9046 66.7129 62.9475 64.7358 63.9742 62.0258C65.0938 58.8806 64.5236 55.2945 64.763 51.8922C65.0004 48.4893 66.7282 44.6046 69.6052 44.5492C71.7962 44.5064 71.5062 44.7208 72.8945 46.7327" fill="#2F2E41"/>
<path d="M99.2315 56.6276C99.2315 65.1206 93.4301 72.0056 86.2738 72.0056C79.1174 72.0056 72.3193 62.1633 72.3193 53.6703C72.3193 45.1773 79.1174 41.2496 86.2738 41.2496C93.4301 41.2496 99.2315 48.1346 99.2315 56.6276Z" fill="#2F2E41"/>
<path d="M92.6594 75.0563C99.3483 73.432 103.661 65.68 102.292 57.7418C100.924 49.8036 94.3919 44.6852 87.703 46.3095C81.0142 47.9338 76.7013 55.6858 78.07 63.624C79.4387 71.5622 85.9706 76.6806 92.6594 75.0563Z" fill="#A0616A"/>
<path d="M105.711 58.402C102.051 59.5878 98.3562 60.8309 96.9293 58.402C96.652 56.7914 96.1266 55.2555 95.3794 53.8714C95.2388 55.4214 94.9323 56.9439 94.4673 58.402C89.8439 59.5946 85.5228 59.8797 81.7887 58.402C81.2753 59.504 80.9773 60.729 80.9166 61.9862C80.7319 61.8486 80.5387 61.728 80.3385 61.6254C80.0983 61.4643 79.8113 61.4341 79.551 61.5426C79.371 61.6716 79.2515 61.8921 79.2271 62.14C79.2023 62.3867 79.2124 62.6366 79.257 62.8793C79.3093 63.7253 79.5223 64.5463 79.88 65.2807C80.1661 65.7921 80.6199 66.1376 81.1309 66.2329C81.6492 69.693 85.7757 74.3714 85.7757 74.3714C73.3164 74.9629 73.3164 64.9317 73.3164 55.4447L74.8115 51.8959H79.7953V44.2069H93.7497C100.355 44.2089 105.709 50.5631 105.711 58.402V58.402Z" fill="#2F2E41"/>
<path d="M219.258 299.818L0.596501 300C0.268776 300.002 0.00171767 299.688 8.24589e-06 299.299C-0.00170117 298.911 0.262586 298.594 0.590311 298.592H0.596501L219.258 298.41C219.585 298.411 219.85 298.727 219.849 299.116C219.848 299.503 219.584 299.817 219.258 299.818Z" fill="#CACACA"/>
<path d="M365.281 299.818L252.275 300C251.947 300.002 251.68 299.688 251.679 299.299C251.677 298.911 251.941 298.594 252.269 298.592H252.275L365.281 298.41C365.609 298.409 365.876 298.723 365.877 299.112C365.878 299.501 365.613 299.817 365.285 299.818H365.281Z" fill="#CACACA"/>
<path d="M224.255 87.5362H181.418C177.698 87.5313 174.683 83.9531 174.679 79.5376V45.8521C174.683 41.4367 177.698 37.8584 181.418 37.8535H224.255C227.976 37.8584 230.991 41.4367 230.995 45.8521V79.5376C230.991 83.9531 227.976 87.5313 224.255 87.5362ZM181.418 39.0364C178.248 39.0407 175.679 42.0897 175.675 45.8521V79.5376C175.679 83.3001 178.248 86.349 181.418 86.3533H224.255C227.425 86.349 229.995 83.3001 229.998 79.5376V45.8521C229.995 42.0897 227.425 39.0407 224.255 39.0364L181.418 39.0364Z" fill="#E6E6E6"/>
<path d="M194.111 48.4998H182.653V49.6827H194.111V48.4998Z" fill="#E6E6E6"/>
<path d="M208.07 53.2314H182.653V54.4144H208.07V53.2314Z" fill="#E6E6E6"/>
<path d="M208.07 57.3717H182.653V58.5546H208.07V57.3717Z" fill="#E6E6E6"/>
<path d="M215.047 61.5119H182.653V62.6948H215.047V61.5119Z" fill="#E6E6E6"/>
<path d="M199.598 65.6522H182.653V66.8351H199.598V65.6522Z" fill="#E6E6E6"/>
<path d="M213.552 69.7924H182.653V70.9753H213.552V69.7924Z" fill="#E6E6E6"/>
<path d="M188.135 73.9326H182.653V75.1155H188.135V73.9326Z" fill="#E6E6E6"/>
<path d="M182.28 23.0423C182.231 23.0423 182.183 23.0201 182.146 22.9758L181.083 21.6857C181.012 21.5998 181.012 21.4624 181.083 21.3765L182.146 20.0865C182.218 19.9992 182.337 19.9978 182.41 20.083C182.483 20.1685 182.485 20.3085 182.413 20.3958L181.477 21.5311L182.413 22.6665C182.485 22.7538 182.483 22.8939 182.41 22.9793C182.374 23.0214 182.327 23.0424 182.28 23.0424V23.0423Z" fill="#CCCCCC"/>
<path d="M184.066 23.0423C184.019 23.0423 183.972 23.0214 183.936 22.9793C183.862 22.8938 183.861 22.7539 183.933 22.6665L184.869 21.5311L183.933 20.3958C183.861 20.3085 183.862 20.1684 183.936 20.083C184.009 19.9975 184.128 19.9991 184.199 20.0865L185.263 21.3764C185.334 21.4624 185.334 21.5998 185.263 21.6857L184.199 22.9758C184.163 23.0201 184.115 23.0423 184.066 23.0423V23.0423Z" fill="#CCCCCC"/>
<path d="M239.696 19.8405H237.719C237.494 19.8405 237.311 20.0573 237.311 20.3249V22.6737C237.311 22.9413 237.494 23.158 237.719 23.158H239.696C239.922 23.158 240.106 22.9413 240.106 22.6737V20.3249C240.106 20.0573 239.922 19.8405 239.696 19.8405Z" fill="#CCCCCC"/>
<path d="M234.851 19.8405H232.874C232.648 19.8405 232.466 20.0573 232.466 20.3249V22.6737C232.466 22.9413 232.648 23.158 232.874 23.158H234.851C235.077 23.158 235.261 22.9413 235.261 22.6737V20.3249C235.261 20.0573 235.077 19.8405 234.851 19.8405Z" fill="#CCCCCC"/>
<path d="M244.262 19.951H242.285C242.06 19.951 241.877 20.1678 241.877 20.4354V22.7842C241.877 23.0518 242.06 23.2686 242.285 23.2686H244.262C244.488 23.2686 244.672 23.0518 244.672 22.7842V20.4354C244.672 20.1678 244.488 19.951 244.262 19.951Z" fill="#CCCCCC"/>
<path d="M214.459 20.8446H198.654C198.379 20.8446 198.157 21.11 198.157 21.4351C198.157 21.7603 198.379 22.0256 198.654 22.0256H214.459C214.733 22.0256 214.957 21.7602 214.957 21.4351C214.957 21.11 214.733 20.8446 214.459 20.8446Z" fill="#CCCCCC"/>
</g>
<defs>
<clipPath id="clip0_143_495">
<rect width="400" height="300" fill="white"/>
</clipPath>
</defs>
</svg>
