<svg width="248" height="130" viewBox="0 0 248 130" fill="none" xmlns="http://www.w3.org/2000/svg">
<g clip-path="url(#clip0_29_675)">
<path d="M124.261 110.614C107.458 110.613 91.1741 106.798 78.185 99.8171C65.1958 92.8362 56.3047 83.1219 53.0265 72.3293C49.7484 61.5368 52.286 50.3337 60.2071 40.6291C68.1282 30.9244 80.9427 23.3186 96.467 19.1076C111.991 14.8965 129.265 14.3408 145.345 17.5351C161.425 20.7294 175.316 27.4761 184.651 36.6256C193.987 45.7751 198.189 56.7613 196.542 67.7123C194.895 78.6633 187.501 88.9016 175.619 96.6826C168.89 101.113 160.886 104.626 152.071 107.017C143.255 109.408 133.803 110.631 124.261 110.614ZM124.261 15.8526C84.5206 15.8526 52.1891 37.0254 52.1891 63.0502C52.1891 89.0751 84.5206 110.248 124.261 110.248C164.002 110.248 196.333 89.0751 196.333 63.0502C196.333 37.0254 164.002 15.8526 124.261 15.8526Z" fill="#CCCCCC"/>
<path d="M151.23 117.746V69.8291H96.7706V117.746H151.23Z" fill="#2F2E41"/>
<path d="M160.586 68.3658H87.4146V87.3865H160.586V68.3658Z" fill="#3F3D56"/>
<path d="M160.586 89.5813H87.4146V108.602H160.586V89.5813Z" fill="#3F3D56"/>
<path d="M160.586 110.797H87.4146V129.817H160.586V110.797Z" fill="#3F3D56"/>
<path d="M160.586 76.4307H87.4146V79.3569H160.586V76.4307Z" fill="#FF0000"/>
<path d="M160.586 97.646H87.4146V100.572H160.586V97.646Z" fill="#FF0000"/>
<path d="M160.586 118.861H87.4146V121.788H160.586V118.861Z" fill="#FF0000"/>
<path d="M146.342 72.2065C147.268 72.2065 148.018 71.7152 148.018 71.1092C148.018 70.5031 147.268 70.0118 146.342 70.0118C145.417 70.0118 144.667 70.5031 144.667 71.1092C144.667 71.7152 145.417 72.2065 146.342 72.2065Z" fill="#FF0000"/>
<path d="M152.207 72.2065C153.132 72.2065 153.883 71.7152 153.883 71.1092C153.883 70.5031 153.132 70.0118 152.207 70.0118C151.281 70.0118 150.531 70.5031 150.531 71.1092C150.531 71.7152 151.281 72.2065 152.207 72.2065Z" fill="#FF0000"/>
<path d="M158.072 72.2065C158.998 72.2065 159.748 71.7152 159.748 71.1092C159.748 70.5031 158.998 70.0118 158.072 70.0118C157.147 70.0118 156.396 70.5031 156.396 71.1092C156.396 71.7152 157.147 72.2065 158.072 72.2065Z" fill="#FF0000"/>
<path d="M146.342 93.0563C147.268 93.0563 148.018 92.565 148.018 91.9589C148.018 91.3529 147.268 90.8616 146.342 90.8616C145.417 90.8616 144.667 91.3529 144.667 91.9589C144.667 92.565 145.417 93.0563 146.342 93.0563Z" fill="#FF0000"/>
<path d="M152.207 93.0563C153.132 93.0563 153.883 92.565 153.883 91.9589C153.883 91.3529 153.132 90.8616 152.207 90.8616C151.281 90.8616 150.531 91.3529 150.531 91.9589C150.531 92.565 151.281 93.0563 152.207 93.0563Z" fill="#FF0000"/>
<path d="M158.072 93.0563C158.998 93.0563 159.748 92.565 159.748 91.9589C159.748 91.3529 158.998 90.8616 158.072 90.8616C157.147 90.8616 156.396 91.3529 156.396 91.9589C156.396 92.565 157.147 93.0563 158.072 93.0563Z" fill="#FF0000"/>
<path d="M146.342 113.906C147.268 113.906 148.018 113.414 148.018 112.808C148.018 112.202 147.268 111.711 146.342 111.711C145.417 111.711 144.667 112.202 144.667 112.808C144.667 113.414 145.417 113.906 146.342 113.906Z" fill="#FF0000"/>
<path d="M152.207 113.906C153.132 113.906 153.883 113.414 153.883 112.808C153.883 112.202 153.132 111.711 152.207 111.711C151.281 111.711 150.531 112.202 150.531 112.808C150.531 113.414 151.281 113.906 152.207 113.906Z" fill="#FF0000"/>
<path d="M158.072 113.906C158.998 113.906 159.748 113.414 159.748 112.808C159.748 112.202 158.998 111.711 158.072 111.711C157.147 111.711 156.396 112.202 156.396 112.808C156.396 113.414 157.147 113.906 158.072 113.906Z" fill="#FF0000"/>
<path d="M248 129.634H0V130H248V129.634Z" fill="#3F3D56"/>
<path d="M67.5518 49.5753V83.5915C67.5516 84.3031 67.1198 84.9856 66.3514 85.4888C65.583 85.992 64.5409 86.2747 63.4542 86.2749H43.2683C42.1813 86.275 41.1388 85.9923 40.3701 85.4891C39.6013 84.9859 39.1693 84.3033 39.1689 83.5915V49.5753C39.1693 48.8635 39.6013 48.1809 40.3701 47.6776C41.1388 47.1744 42.1813 46.8918 43.2683 46.8918H45.717C45.5968 47.0855 45.551 47.2955 45.5837 47.5034C45.6165 47.7113 45.7267 47.9108 45.9047 48.0843C46.0828 48.2578 46.3231 48.4 46.6047 48.4984C46.8864 48.5969 47.2006 48.6485 47.5198 48.6487H59.0284C59.3476 48.6485 59.6618 48.5969 59.9434 48.4984C60.225 48.4 60.4654 48.2578 60.6435 48.0843C60.8215 47.9108 60.9317 47.7114 60.9644 47.5034C60.9972 47.2955 60.9514 47.0855 60.8312 46.8918H63.4542C64.5409 46.892 65.583 47.1748 66.3514 47.678C67.1198 48.1812 67.5516 48.8636 67.5518 49.5753Z" fill="#E6E6E6"/>
<path d="M66.2069 53.3877H40.5132V76.7977H66.2069V53.3877Z" fill="white"/>
<path d="M58.0637 69.4851H47.8086V69.8689H58.0637V69.4851Z" fill="#E6E6E6"/>
<path d="M63.6662 70.8943H47.7983V71.278H63.6662V70.8943Z" fill="#FF0000"/>
<path d="M60.2509 72.2217H47.7983V72.6054H60.2509V72.2217Z" fill="#E6E6E6"/>
<path d="M55.1234 73.5493H47.7983V73.9331H55.1234V73.5493Z" fill="#E6E6E6"/>
<path d="M58.7859 74.8767H47.7983V75.2605H58.7859V74.8767Z" fill="#E6E6E6"/>
<path d="M44.3297 69.3749H43.1577V70.1424H44.3297V69.3749Z" fill="#E6E6E6"/>
<path d="M44.3297 70.7023H43.1577V71.4698H44.3297V70.7023Z" fill="#FF0000"/>
<path d="M44.3297 72.0299H43.1577V72.7974H44.3297V72.0299Z" fill="#E6E6E6"/>
<path d="M44.3297 73.3574H43.1577V74.1249H44.3297V73.3574Z" fill="#E6E6E6"/>
<path d="M44.3297 74.6849H43.1577V75.4524H44.3297V74.6849Z" fill="#E6E6E6"/>
<path d="M58.5783 56.314H48.2456V63.0805H58.5783V56.314Z" fill="#E6E6E6"/>
<path d="M158.35 0.0180664H89.6797V28.8188H158.35V0.0180664Z" fill="#E6E6E6"/>
<path d="M151.791 8.08289H94.8564V22.1719H151.791V8.08289Z" fill="white"/>
<path d="M118.894 10.5238H105.229V11.0351H118.894V10.5238Z" fill="#E6E6E6"/>
<path d="M126.359 12.4014H105.216V12.9127H126.359V12.4014Z" fill="#FF0000"/>
<path d="M121.808 14.1702H105.216V14.6815H121.808V14.1702Z" fill="#E6E6E6"/>
<path d="M114.976 15.9391H105.216V16.4504H114.976V15.9391Z" fill="#E6E6E6"/>
<path d="M119.856 17.7079H105.216V18.2192H119.856V17.7079Z" fill="#E6E6E6"/>
<path d="M100.594 10.3768H99.0327V11.3995H100.594V10.3768Z" fill="#E6E6E6"/>
<path d="M100.594 12.1456H99.0327V13.1683H100.594V12.1456Z" fill="#FF0000"/>
<path d="M100.594 13.9146H99.0327V14.9372H100.594V13.9146Z" fill="#E6E6E6"/>
<path d="M100.594 15.6833H99.0327V16.706H100.594V15.6833Z" fill="#E6E6E6"/>
<path d="M100.594 17.4523H99.0327V18.4749H100.594V17.4523Z" fill="#E6E6E6"/>
<path d="M148.996 9.84814H135.016V19.0034H148.996V9.84814Z" fill="#E6E6E6"/>
<path d="M158.321 0H89.6504V1.91048H158.321V0Z" fill="#FF0000"/>
<path d="M91.818 1.36026C92.1415 1.36026 92.4036 1.18856 92.4036 0.976758C92.4036 0.764959 92.1415 0.593262 91.818 0.593262C91.4946 0.593262 91.2324 0.764959 91.2324 0.976758C91.2324 1.18856 91.4946 1.36026 91.818 1.36026Z" fill="white"/>
<path d="M93.8708 1.36026C94.1942 1.36026 94.4564 1.18856 94.4564 0.976758C94.4564 0.764959 94.1942 0.593262 93.8708 0.593262C93.5473 0.593262 93.2852 0.764959 93.2852 0.976758C93.2852 1.18856 93.5473 1.36026 93.8708 1.36026Z" fill="white"/>
<path d="M95.923 1.36026C96.2464 1.36026 96.5086 1.18856 96.5086 0.976758C96.5086 0.764959 96.2464 0.593262 95.923 0.593262C95.5996 0.593262 95.3374 0.764959 95.3374 0.976758C95.3374 1.18856 95.5996 1.36026 95.923 1.36026Z" fill="white"/>
<path d="M204.334 53.9175H187.578V59.5871H204.334V53.9175Z" fill="#E6E6E6"/>
<path d="M204.334 74.2184H187.578V79.888H204.334V74.2184Z" fill="#E6E6E6"/>
<path d="M195.956 76.0473C203.668 76.0473 209.92 71.9531 209.92 66.9027C209.92 61.8523 203.668 57.7582 195.956 57.7582C188.244 57.7582 181.992 61.8523 181.992 66.9027C181.992 71.9531 188.244 76.0473 195.956 76.0473Z" fill="#E6E6E6"/>
<path d="M195.956 74.0355C201.971 74.0355 206.848 70.8421 206.848 66.9028C206.848 62.9635 201.971 59.77 195.956 59.77C189.94 59.77 185.064 62.9635 185.064 66.9028C185.064 70.8421 189.94 74.0355 195.956 74.0355Z" fill="white"/>
<path d="M200.836 64.9485H192.389V65.2646H200.836V64.9485Z" fill="#E2E2E2"/>
<path d="M205.451 66.1091H192.38V66.4252H205.451V66.1091Z" fill="#FF0000"/>
<path d="M202.638 67.2026H192.38V67.5187H202.638V67.2026Z" fill="#E2E2E2"/>
<path d="M198.414 68.2961H192.38V68.6122H198.414V68.2961Z" fill="#E2E2E2"/>
<path d="M201.431 69.3896H192.38V69.7058H201.431V69.3896Z" fill="#E2E2E2"/>
<path d="M189.524 64.8575H188.558V65.4898H189.524V64.8575Z" fill="#E2E2E2"/>
<path d="M189.524 65.951H188.558V66.5833H189.524V65.951Z" fill="#FF0000"/>
<path d="M189.524 67.0446H188.558V67.6768H189.524V67.0446Z" fill="#E2E2E2"/>
<path d="M189.524 68.1381H188.558V68.7703H189.524V68.1381Z" fill="#E2E2E2"/>
<path d="M189.524 69.2317H188.558V69.8639H189.524V69.2317Z" fill="#E2E2E2"/>
</g>
<defs>
<clipPath id="clip0_29_675">
<rect width="248" height="130" fill="white"/>
</clipPath>
</defs>
</svg>
